<svg width="65" height="133" viewBox="0 0 65 133" fill="none" xmlns="http://www.w3.org/2000/svg">
<path d="M6.00553 47.7443C6.71509 46.3871 7.44564 44.9947 7.84715 43.464C8.03026 42.7621 8.13898 42.0268 8.13898 41.2915C8.13898 40.4207 7.98639 39.549 7.62207 38.7403C7.15666 37.7074 6.69697 36.7403 6.34219 35.7552C5.98741 34.77 5.73563 33.7667 5.67555 32.6499C5.66887 32.5287 5.66601 32.4067 5.66601 32.2856C5.66601 31.1745 5.93305 30.0605 6.40323 29.0315C6.87341 28.0034 7.54768 27.0621 8.35166 26.2981C9.00209 25.6792 9.75839 25.1423 10.508 24.57C11.2576 23.9968 12.0006 23.3874 12.609 22.6092C13.1078 21.9731 13.4388 21.2769 13.6419 20.5559C13.846 19.8348 13.9252 19.0881 13.9252 18.3385C13.9252 17.7395 13.8746 17.1387 13.7964 16.5464C13.6858 15.7005 13.6219 14.8431 13.6219 13.9895C13.6219 11.9877 13.97 10.0126 14.855 8.26156C15.9947 6.00508 17.7638 4.34179 19.8706 3.20497C21.9773 2.07005 24.4198 1.4673 26.8823 1.35C27.1674 1.33665 27.4526 1.32998 27.7378 1.32998C30.597 1.32998 33.4314 1.99948 36.1857 2.99897C38.94 3.99846 41.6114 5.32794 44.1445 6.63548C45.7162 7.44709 47.1086 8.17095 48.3131 9.07793C49.5177 9.98491 50.541 11.0702 51.3993 12.6334C52.4952 14.6304 53.075 16.9136 53.075 19.192C53.075 19.893 53.0197 20.5931 52.9091 21.2845C52.807 21.9187 52.6611 22.5844 52.539 23.2596C52.4169 23.9349 52.3187 24.6196 52.3187 25.2967C52.3187 25.7192 52.3569 26.1389 52.4541 26.5499C52.5514 26.961 52.7088 27.3634 52.9424 27.744C53.1475 28.0806 53.3974 28.3715 53.672 28.63C54.085 29.0172 54.5533 29.3319 55.0273 29.6218C55.5032 29.9118 55.9848 30.1769 56.4292 30.4582C58.1316 31.534 59.503 33.0819 60.4491 34.8663C61.3942 36.6507 61.9121 38.6697 61.9121 40.6782C61.9121 41.7216 61.7729 42.7611 61.4829 43.7654C61.3389 44.2632 61.1587 44.762 60.988 45.2732C60.8163 45.7834 60.6542 46.307 60.5502 46.8554C60.4682 47.2903 60.4291 47.7309 60.4291 48.1715C60.4291 49.3141 60.6961 50.4538 61.193 51.48C61.3542 51.8128 61.5592 52.1056 61.77 52.3755C62.0866 52.7799 62.4157 53.1385 62.6531 53.4951C62.7714 53.6735 62.8677 53.8509 62.9335 54.0311C62.9993 54.2123 63.0365 54.3974 63.0365 54.6014C63.0365 54.7397 63.0193 54.8885 62.9793 55.0507L63.6278 55.2099C63.6793 54.9991 63.7041 54.796 63.7041 54.6014C63.7051 54.2181 63.6078 53.8719 63.4609 53.5648C63.2387 53.1022 62.9125 52.7179 62.6007 52.3402C62.2879 51.9635 61.9894 51.5944 61.7938 51.1891C61.3408 50.2525 61.0957 49.2101 61.0967 48.1715C61.0967 47.7719 61.1329 47.3723 61.2064 46.9794C61.3008 46.4806 61.4524 45.9856 61.6203 45.4849C61.7881 44.9842 61.9722 44.4768 62.1238 43.9504C62.4319 42.8832 62.5797 41.7807 62.5797 40.6782C62.5797 38.5553 62.0342 36.4332 61.0385 34.5535C60.0428 32.6747 58.5961 31.0381 56.7859 29.8936C56.1622 29.5007 55.5079 29.1564 54.929 28.7673C54.6391 28.5737 54.3692 28.3687 54.1298 28.1436C53.8895 27.9175 53.6816 27.6725 53.5118 27.3959C53.3172 27.0792 53.1875 26.7464 53.1046 26.3964C53.0216 26.0464 52.9863 25.6782 52.9863 25.2967C52.9863 24.6845 53.0769 24.0369 53.1961 23.3779C53.3144 22.7198 53.4622 22.0503 53.5681 21.3904C53.6844 20.6627 53.7426 19.9274 53.7426 19.192C53.7417 16.8001 53.1351 14.4101 51.984 12.312C51.0817 10.6659 49.9802 9.49566 48.7137 8.54385C47.4481 7.59205 46.0223 6.85387 44.4506 6.04226C41.9118 4.73186 39.2157 3.38905 36.4137 2.37144C33.6117 1.35478 30.7019 0.662376 27.7378 0.662376C27.4431 0.662376 27.1465 0.669064 26.8508 0.683369C24.3015 0.805443 21.7637 1.42725 19.554 2.61749C17.3452 3.80772 15.4654 5.57114 14.259 7.96114C13.3148 9.83041 12.9543 11.9124 12.9543 13.9895C12.9543 14.8765 13.0201 15.7625 13.1345 16.6332C13.2099 17.2045 13.2576 17.7767 13.2576 18.3385C13.2576 19.0414 13.1832 19.7261 13.0001 20.3746C12.816 21.0222 12.5241 21.6335 12.0835 22.1981C11.5351 22.901 10.8399 23.4771 10.1027 24.0398C9.36641 24.6034 8.59008 25.1518 7.89197 25.8137C7.02409 26.6386 6.30309 27.6476 5.79667 28.754C5.29025 29.8612 4.99841 31.0667 4.99841 32.2856C4.99841 32.4191 5.00222 32.5526 5.0089 32.6861C5.0728 33.8821 5.34461 34.955 5.71465 35.9812C6.08469 37.0083 6.55201 37.9897 7.0136 39.0149C7.33214 39.7216 7.47139 40.498 7.47139 41.2915C7.47139 41.961 7.3722 42.641 7.20053 43.2952C6.82667 44.7277 6.12474 46.0781 5.41423 47.4353L6.00553 47.7443Z" fill="#192C4A"/>
<path d="M39.4036 61.6713C42.3562 63.3412 45.4453 64.8042 48.7127 65.7446C51.2916 66.4866 54.0163 66.8976 56.6629 66.4532C59.3085 66.0088 61.8739 64.624 63.3312 62.3713C65.7651 58.608 64.5348 53.4388 61.9073 49.8071C60.9765 48.5196 59.8511 47.2712 59.566 45.709C59.2532 44.0038 60.0066 42.309 60.3299 40.6057C60.884 37.6873 60.1058 34.5429 58.2546 32.2206C56.3482 29.8287 53.3573 28.2284 52.2462 25.3778C51.1838 22.653 52.1594 19.583 51.8857 16.6713C51.6044 13.6748 49.8734 10.8909 47.7762 8.81179C45.1258 6.18432 41.6057 5.16767 38.817 2.87781C36.9544 1.3471 34.7876 0.434395 32.3928 0.135887C25.28 -0.751068 16.7901 2.71472 14.9256 10.2023C14.1159 13.4526 15.1535 17.1978 13.764 20.283C12.8188 22.3812 10.8561 23.8137 9.44365 25.6315C7.40462 28.258 6.55963 31.7772 7.18527 35.0436C7.55912 36.993 8.42986 38.9186 8.13612 40.8823C7.74224 43.5193 5.38752 45.4038 4.35846 47.8634C2.95365 51.2224 4.33463 55.3091 7.03649 57.7487C9.73836 60.1892 13.495 61.1782 17.1353 61.2555C19.1744 61.2984 21.2191 61.0819 23.2038 60.6108C26.1279 59.9174 29.0405 58.6385 32.0972 58.7434C35.17 58.8483 36.7913 60.1949 39.4036 61.6713Z" fill="#192C4A"/>
<path d="M40.2705 53.0793C42.7129 53.6115 45.4138 52.7197 47.0599 50.8381C48.7061 48.9574 49.2306 46.162 48.3789 43.8111C47.3489 40.971 44.5784 38.9825 43.742 36.0794C42.8178 32.8701 43.2813 29.4902 40.8103 26.8875C39.2815 25.2777 37.2405 24.2505 35.17 23.4494C32.7848 22.5252 30.2994 21.8595 27.7711 21.4657C26.6829 21.2959 25.4755 21.2015 24.5714 21.8309C23.7884 22.3755 23.4232 23.3368 23.1628 24.2553C22.7155 25.8337 22.4485 27.4626 22.3703 29.102C22.2778 31.0295 22.4284 33.0428 21.6435 34.8052C20.5286 37.3116 17.7476 38.786 16.6976 41.32C15.6237 43.9103 16.7462 47.0614 18.8854 48.8763C21.0236 50.6902 23.9611 51.3283 26.7631 51.2281C28.6705 51.1604 30.6218 50.7923 32.5244 51.0956C35.151 51.5152 37.6792 52.5157 40.2705 53.0793Z" fill="#16273D"/>
<path d="M56.3587 88.6527C54.3025 88.3466 53.2935 85.7067 52.2902 83.4541C50.7442 79.9816 49.4167 76.3174 48.1759 72.7086C46.4153 67.5919 45.2842 62.274 44.1569 56.9724C43.5198 53.9739 41.6162 47.2741 44.2733 44.8755C48.1711 46.184 50.7805 47.4629 52.8891 49.4247C55.5328 51.8833 56.888 55.0039 58.2299 58.2923C59.9199 62.4362 61.5526 66.6268 62.6418 70.9862C63.4915 74.3909 64.4691 77.9922 64.1963 81.5752C63.9045 85.4082 62.08 89.5025 56.3587 88.6527Z" fill="white"/>
<path d="M8.0789 88.6528C9.81275 87.5055 11.1451 85.7068 12.1474 83.4541C13.6934 79.9816 15.021 76.3175 16.2627 72.7086C18.0223 67.592 19.1534 62.2741 20.2807 56.9724C20.9178 53.9739 22.932 47.3399 20.275 44.9423C16.3771 46.2508 13.6581 47.4629 11.5485 49.4247C8.90481 51.8834 7.54958 55.0039 6.20867 58.2923C4.51774 62.4362 2.88498 66.6268 1.7968 70.9862C0.946089 74.391 -0.2327 80.6693 0.0400616 84.2523C0.331897 88.0853 1.96942 92.6975 8.0789 88.6528Z" fill="white"/>
<path d="M44.1626 23.4513C46.976 22.1829 47.5187 25.9844 46.9112 27.8079C46.6604 28.5613 46.2999 29.2871 45.7744 29.8832C45.0667 30.6843 43.1211 31.9556 42.135 30.9427C41.6877 30.483 41.6925 29.762 41.7278 29.1211C41.8193 27.4035 42.2561 24.3106 44.1626 23.4513Z" fill="#E57E67"/>
<path d="M20.4095 23.4513C17.596 22.1829 17.0524 25.9844 17.6599 27.8079C17.9107 28.5613 18.2722 29.2871 18.7977 29.8832C19.5053 30.6843 21.4509 31.9556 22.4371 30.9427C22.8843 30.483 22.8786 29.762 22.8443 29.1211C22.7518 27.4035 22.3159 24.3106 20.4095 23.4513Z" fill="#E57E67"/>
<path d="M58.7448 100.645C56.7839 81.0011 54.8489 69.5118 52.7183 55.7345C52.2929 52.983 51.4632 50.0284 50.3035 48.6198C48.499 46.4281 45.884 45.4763 43.3137 44.515C40.1588 43.3362 36.8685 42.4292 33.4905 42.2537C33.1472 42.2366 32.8057 42.228 32.4633 42.2261V42.1555L32.43 42.2251H32.4195H32.409L32.3756 42.1555V42.2261H32.3613H32.346V42.1555L32.3127 42.2251H32.3022H32.2917L32.2583 42.1555V42.2261C31.9159 42.228 31.5745 42.2366 31.2321 42.2537C27.8531 42.4292 24.5637 43.3362 21.4079 44.515C18.8377 45.4763 16.2226 46.4281 14.4182 48.6198C13.2585 50.0284 12.4287 52.983 12.0034 55.7345C9.87278 69.5118 7.93769 81.0011 5.97686 100.645C4.79235 112.518 3.35988 129.785 3.9302 130.604C5.0222 132.17 17.595 132.534 19.284 132.693C22.0564 132.954 24.8451 132.973 27.6299 132.992C29.2036 133.002 30.7819 133.003 32.3613 132.992C33.9397 133.003 35.5181 133.002 37.0917 132.992C39.8765 132.973 42.6652 132.954 45.4376 132.693C47.1276 132.534 59.6994 132.17 60.7914 130.604C61.3618 129.785 59.9293 112.518 58.7448 100.645Z" fill="white"/>
<path d="M43.2251 43.5756L32.3394 39.2381V39.0903L21.2954 43.4897L32.2555 77.5077L43.2251 43.5756Z" fill="#7CCEDC"/>
<path d="M41.8269 39.0903C41.8269 45.69 37.5429 51.0393 32.2583 51.0393C26.9738 51.0393 22.6898 45.69 22.6898 39.0903C22.6898 32.4897 26.9738 27.1403 32.2583 27.1403C37.5429 27.1403 41.8269 32.4897 41.8269 39.0903Z" fill="#5EB0BC"/>
<path d="M40.2323 39.0903C40.2323 44.5894 36.6626 49.048 32.2583 49.048C27.8551 49.048 24.2844 44.5894 24.2844 39.0903C24.2844 33.5902 27.8551 29.1316 32.2583 29.1316C36.6626 29.1316 40.2323 33.5902 40.2323 39.0903Z" fill="#F89D7D"/>
<path d="M47.8925 45.2122C47.511 46.4873 47.1257 47.7614 46.7337 49.0327C46.3446 50.305 45.9488 51.5753 45.553 52.8457C45.1582 54.117 44.7548 55.3845 44.3561 56.6538L43.1449 60.4572L43.1077 60.5745L42.9837 60.5917L41.0811 60.8607L39.1775 61.1258L39.2414 60.7319C40.1531 61.1821 41.0677 61.6284 41.9776 62.0824L42.1683 62.1777L42.0729 62.3675C41.2718 63.9516 40.4764 65.5396 39.6706 67.1218C38.8647 68.7049 38.0616 70.2881 37.2481 71.8674C36.4394 73.4478 35.6211 75.0242 34.8028 76.6007C33.9817 78.1753 33.1596 79.7499 32.3222 81.3159C33.0785 79.7089 33.85 78.1095 34.6216 76.5101C35.397 74.9117 36.1733 73.3142 36.9582 71.7215C37.7374 70.126 38.528 68.5361 39.3158 66.9444C40.1035 65.3526 40.9018 63.7666 41.6943 62.1768L41.7897 62.4619C40.877 62.0137 39.9681 61.5578 39.0564 61.1058L38.4469 60.8034L39.1203 60.7119L41.0248 60.4544L42.9294 60.2007L42.7692 60.3352L44.0252 56.5461C44.4496 55.2853 44.8673 54.0226 45.2955 52.7627C45.7228 51.5019 46.1491 50.242 46.5821 48.9831C47.0132 47.7242 47.45 46.4672 47.8925 45.2122Z" fill="#EBF7F9"/>
<path d="M16.6479 45.2122C17.0895 46.4672 17.5273 47.7242 17.9574 48.9831C18.3904 50.242 18.8176 51.5019 19.244 52.7627C19.6722 54.0226 20.0908 55.2853 20.5152 56.5461L21.7713 60.3352L21.6101 60.2007L23.5156 60.4544L25.4192 60.7119L26.0935 60.8034L25.4841 61.1058C24.5723 61.5578 23.6635 62.0137 22.7498 62.4619L22.8452 62.1768C23.6377 63.7666 24.436 65.3526 25.2237 66.9444C26.0115 68.5361 26.8021 70.126 27.5823 71.7215C28.3672 73.3142 29.1425 74.9117 29.9179 76.5101C30.6904 78.1095 31.4619 79.7089 32.2182 81.3159C31.3809 79.7499 30.5588 78.1753 29.7367 76.6007C28.9184 75.0242 28.1011 73.4478 27.2923 71.8674C26.4788 70.2881 25.6748 68.7049 24.8699 67.1218C24.0631 65.5396 23.2686 63.9516 22.4675 62.3675L22.3721 62.1777L22.5629 62.0824C23.4727 61.6284 24.3864 61.1821 25.2981 60.7319L25.363 61.1258L23.4594 60.8607L21.5567 60.5917L21.4327 60.5745L21.3955 60.4572L20.1843 56.6538C19.7857 55.3845 19.3813 54.117 18.9874 52.8457C18.5916 51.5753 18.1958 50.305 17.8057 49.0327C17.4147 47.7614 17.0294 46.4873 16.6479 45.2122Z" fill="#EBF7F9"/>
<path d="M22.8643 79.9091C22.9444 76.9793 23.6148 74.0648 24.8299 71.3973C24.9519 71.1264 25.0931 70.8451 25.343 70.6858C25.6577 70.4846 26.063 70.5265 26.4331 70.578C29.4887 70.9996 32.5397 71.4526 35.5849 71.9447C40.1798 72.6857 44.7386 73.6223 49.3088 74.5073C49.8533 74.6122 50.4084 74.7181 50.9587 74.6465C53.2724 74.3423 53.2447 71.3696 53.2734 69.63C53.3353 65.7389 53.4651 62.0785 53.1961 58.196C55.0072 59.7973 56.4063 61.2402 57.6681 63.3021C58.431 64.5477 58.9813 65.9096 59.4916 67.2772C61.6241 72.9871 63.5277 79.2577 63.9797 85.352C64.2439 88.9074 60.1229 91.4185 57.0672 91.3871C52.0717 91.3346 37.0316 87.7897 32.2497 86.4268C29.1225 85.536 26.5523 84.8789 23.5528 83.6229C23.3697 83.5466 23.1761 83.4598 23.0712 83.291C22.9854 83.1527 22.9739 82.9829 22.9673 82.8199C22.9453 82.3144 22.8509 80.4156 22.8643 79.9091Z" fill="#EBF7F9"/>
<path d="M41.5552 82.7674C41.4226 79.8395 40.6997 76.9374 39.437 74.2918C39.3092 74.0238 39.1642 73.7453 38.9115 73.5898C38.5929 73.3953 38.1886 73.4439 37.8195 73.5021C31.7958 74.4444 15.1345 77.1901 9.56005 79.6602C6.13146 81.1804 0.789719 84.5804 0.544615 88.9503C0.344336 92.5096 4.5111 94.9463 7.56488 94.8595C12.5585 94.7165 27.5318 90.9016 32.2889 89.4539C35.3999 88.5068 37.9568 87.803 40.9333 86.4935C41.1155 86.4134 41.3082 86.3228 41.4092 86.1531C41.4932 86.0129 41.5018 85.8422 41.5056 85.6791C41.518 85.1736 41.5781 83.2729 41.5552 82.7674Z" fill="#EBF7F9"/>
<path d="M20.0394 20.965C20.089 18.5521 20.4542 16.268 21.1028 14.3758C23.8991 6.21297 34.1591 4.33321 40.2352 10.3082C47.0113 16.9718 44.7119 32.5297 37.3969 37.9401C35.4409 39.3859 32.2488 39.9686 29.9084 39.3049C22.8261 37.2963 19.8868 28.5031 20.0394 20.965Z" fill="#F89D7D"/>
<path d="M20.0508 12.3807C22.2529 4.03758 32.3518 1.42536 38.8418 6.94831C39.8775 7.82953 40.5957 8.88052 41.3338 10.005C41.9604 10.9577 42.8321 11.6797 43.3853 12.7278C43.9527 13.8045 44.3066 14.9948 44.4239 16.206C44.5068 17.0615 44.791 18.6341 44.6747 19.4791C44.5316 20.5187 44.3333 22.4423 44.2074 23.4838C44.1702 22.3002 43.6609 19.5583 43.3042 18.4281C42.8731 17.0634 42.0901 15.9676 41.0105 15.0406C40.4946 14.598 39.9262 14.2242 39.3892 13.8093C39.2233 13.6806 38.4679 13.0111 38.0721 12.3292C35.4904 15.7139 31.1196 17.0586 27.1769 18.0352C23.8695 18.8545 20.3055 22.7275 20.0947 23.3674C20.0527 22.5558 19.5406 14.3148 20.0508 12.3807Z" fill="#E57E67"/>
<path d="M20.0947 23.3674C19.8744 23.1252 19.4462 21.6908 19.3298 21.3398C18.9932 20.3241 18.5688 19.4629 18.3818 18.4043C17.9517 15.958 17.4396 15.8627 17.4396 13.3744C17.4892 10.1394 19.0513 8.23774 21.4919 6.28168C23.7083 4.50587 26.3882 3.30513 29.195 2.86165C29.7568 2.77296 30.3223 2.71479 30.8898 2.68808C31.7405 2.64803 32.6065 2.67759 33.4209 2.92746C34.0303 3.11344 34.5959 3.41768 35.1576 3.72096C35.912 4.12724 36.6693 4.53638 37.3607 5.0428C38.4899 5.86967 39.4703 7.0847 40.7254 7.70843C42.1302 8.4075 43.5532 8.76323 44.7682 9.83425C45.7982 10.7422 46.5469 11.94 47.0828 13.2104C47.7256 14.7335 47.0189 15.8216 46.8349 17.4468C46.6832 18.7867 46.8263 20.0895 46.2378 21.3398C45.6876 22.51 44.2074 23.4838 44.2074 23.4838C44.2074 23.4838 44.0643 21.0957 44.0214 20.801C43.907 20.0342 43.7754 18.8163 43.247 17.1826C42.7358 15.587 41.7249 14.6095 40.4097 13.6357C39.8823 13.2457 39.3597 12.8413 38.9153 12.353C38.3993 11.7855 38.2028 11.1866 37.8929 10.6249C37.314 11.9162 36.3336 12.9309 35.0956 13.6672C32.965 14.9328 30.5398 15.5365 28.2013 16.2899C25.9715 17.0081 23.1561 17.895 21.8791 20.0227C20.625 22.1095 20.0947 23.3674 20.0947 23.3674Z" fill="#192C4A"/>
<path d="M42.0387 20.0771C41.8909 20.6503 40.4527 20.7762 38.8266 20.3575C37.2005 19.9388 36.0017 19.1348 36.1495 18.5607C36.2974 17.9875 37.7356 17.8616 39.3616 18.2803C40.9877 18.699 42.1865 19.5029 42.0387 20.0771Z" fill="#192C4A"/>
<path d="M34.1362 4.35227C34.2564 4.95024 34.2841 5.56729 34.2259 6.17576C34.1667 6.78613 34.017 7.38603 33.8053 7.96112C33.5926 8.53716 33.3113 9.08744 32.9784 9.6034C32.6456 10.1203 32.2593 10.6039 31.8292 11.0445C31.6146 11.2657 31.3876 11.4746 31.1511 11.672C30.9089 11.8618 30.6733 12.0611 30.4177 12.2328L30.2298 12.3663L30.1354 12.4331L30.0391 12.4951L29.65 12.744C29.5203 12.826 29.3858 12.8994 29.2532 12.9776L29.0539 13.094L28.8517 13.2027C27.7721 13.7892 26.6401 14.2594 25.5185 14.7344C24.9577 14.9709 24.3988 15.2093 23.8457 15.4582L23.4337 15.6499L23.2286 15.7453L23.0255 15.8464C22.8901 15.9141 22.7537 15.979 22.6192 16.0486L22.2206 16.2622C22.0851 16.3299 21.9611 16.412 21.8324 16.4883L21.6397 16.6036C21.5758 16.6427 21.511 16.6799 21.4509 16.7248C21.2058 16.8974 20.954 17.0595 20.7223 17.2512C20.605 17.3447 20.4839 17.4334 20.3694 17.5307L20.0299 17.8263C19.9736 17.8759 19.9154 17.9245 19.8601 17.9751L19.697 18.1315L19.3709 18.4434C18.5211 19.2969 17.7476 20.2306 17.0257 21.2015C16.3056 22.1762 15.6361 23.189 14.9809 24.2133L14.7358 24.5977L14.6128 24.7903L14.4974 24.983L14.2676 25.3683L14.0596 25.766C14.0253 25.8327 13.9881 25.8976 13.9576 25.9662L13.8641 26.1703C13.8031 26.3067 13.7363 26.4412 13.6801 26.5804C13.5723 26.8589 13.455 27.1355 13.3673 27.4216C12.9781 28.5565 12.7779 29.7506 12.7216 30.9475C12.6853 32.1453 12.7979 33.3518 13.1107 34.5105C13.1822 34.8024 13.2709 35.0894 13.3653 35.3765C13.4598 35.6636 13.5618 35.9497 13.6619 36.2368C13.8632 36.8109 14.0682 37.3898 14.2332 37.9849C14.3982 38.5781 14.5212 39.1933 14.5403 39.8208C14.5613 40.4464 14.4593 41.0854 14.2189 41.6672C14.0997 41.9581 13.95 42.2337 13.784 42.4979C13.6124 42.7573 13.4292 43.0081 13.2309 43.2437C12.837 43.7177 12.4078 44.1535 11.9977 44.5999C11.7908 44.8221 11.5905 45.0491 11.4007 45.2837L11.2605 45.4601L11.1241 45.6423C11.0326 45.7634 10.9448 45.8874 10.8552 46.0104C10.5013 46.5035 10.1685 47.0127 9.84806 47.5297C9.52761 48.0466 9.21956 48.5721 8.91819 49.1014C8.61491 49.6297 8.3164 50.161 8.01788 50.6922C8.29827 50.1505 8.57676 49.6087 8.86192 49.0699C9.14899 48.532 9.44368 47.9989 9.75173 47.4715C10.0598 46.945 10.3802 46.4253 10.7236 45.9188C10.8094 45.792 10.8952 45.6661 10.9839 45.5412L11.1165 45.3542L11.2557 45.1692C11.4427 44.9251 11.6401 44.6895 11.8423 44.4606C12.2457 44.0009 12.6663 43.5603 13.0411 43.0892C13.2309 42.8555 13.4025 42.6095 13.5628 42.3586C13.7163 42.103 13.8527 41.8398 13.9595 41.5642C14.1722 41.0139 14.2609 40.4226 14.2332 39.8313C14.2075 39.24 14.0825 38.6516 13.9137 38.0755C13.579 36.9196 13.0687 35.8057 12.7502 34.6078C12.4183 33.4138 12.2915 32.1701 12.3191 30.9332C12.3678 29.6972 12.5757 28.464 12.9724 27.29C13.063 26.9943 13.1822 26.7082 13.2938 26.4192C13.352 26.2752 13.4207 26.136 13.4827 25.9948L13.579 25.7831C13.6105 25.7125 13.6496 25.6448 13.6839 25.5762L13.8994 25.1632L14.1359 24.7626L14.2542 24.5633L14.3772 24.3697L14.6223 23.9844C15.2833 22.9573 15.9613 21.9387 16.6919 20.9545C17.4272 19.9741 18.2112 19.0232 19.0886 18.1572L19.4252 17.8406L19.594 17.6823C19.6513 17.6298 19.7104 17.5812 19.7686 17.5307L20.1205 17.2293C20.2397 17.1311 20.3646 17.0395 20.4867 16.9441C20.7261 16.7496 20.9884 16.5827 21.243 16.4072C21.3059 16.3614 21.3737 16.3233 21.4404 16.2842L21.6407 16.1649C21.7742 16.0877 21.9058 16.0028 22.0432 15.9351L22.4523 15.7205C22.5887 15.6509 22.7279 15.586 22.8653 15.5183L23.0732 15.4182L23.282 15.3228C23.4213 15.2599 23.5605 15.195 23.7007 15.134C24.2625 14.8889 24.828 14.6581 25.3926 14.4282C26.5208 13.9705 27.6472 13.5136 28.722 12.9576L28.9232 12.8537L29.1216 12.743C29.2523 12.6686 29.3868 12.599 29.5155 12.5208L29.9018 12.2833L29.9981 12.2242L30.0915 12.1613L30.2785 12.0335C30.5322 11.8694 30.7658 11.6787 31.0071 11.4975C31.2427 11.3096 31.4668 11.1084 31.6823 10.8986C32.1144 10.478 32.5054 10.0145 32.8449 9.51567C33.1854 9.01688 33.4763 8.48279 33.7004 7.92105C33.9245 7.35931 34.0866 6.77088 34.162 6.16909C34.2411 5.56825 34.2354 4.95406 34.1362 4.35227Z" fill="#79BBD5"/>
<path d="M22.8547 20.0771C23.0026 20.6503 24.4408 20.7762 26.0668 20.3575C27.6939 19.9388 28.8917 19.1348 28.7439 18.5607C28.597 17.9875 27.1588 17.8616 25.5318 18.2803C23.9057 18.699 22.7069 19.5029 22.8547 20.0771Z" fill="#192C4A"/>
<path d="M30.1707 29.2852C30.2183 29.0448 30.3309 28.815 30.4778 28.6109C30.6265 28.4078 30.8106 28.2256 31.0204 28.0806C31.2302 27.9347 31.462 27.8184 31.7071 27.7373C31.9531 27.6553 32.2145 27.6171 32.4777 27.619C32.7409 27.6238 33.0089 27.6705 33.254 27.7812C33.4972 27.888 33.7061 28.0349 33.8968 28.1913C34.0895 28.3477 34.2726 28.5241 34.4204 28.7301C34.5663 28.9342 34.6798 29.1726 34.6979 29.4187C34.5892 29.1984 34.4366 29.022 34.264 28.8694C34.0914 28.7158 33.9016 28.5851 33.7032 28.4631C33.5029 28.342 33.3046 28.2285 33.1014 28.1541C33.0509 28.1369 33.0003 28.1188 32.9498 28.1054L32.7924 28.073C32.7409 28.0606 32.6865 28.0597 32.6331 28.052C32.5797 28.0434 32.5254 28.0454 32.471 28.0444L32.3899 28.0415C32.3632 28.0434 32.3356 28.0454 32.3089 28.0473C32.2545 28.052 32.1992 28.0511 32.1458 28.0625C32.0914 28.0701 32.0361 28.0768 31.9827 28.0864C31.9283 28.0997 31.8749 28.1121 31.8206 28.1236C31.606 28.1798 31.3962 28.2618 31.1959 28.3648C30.9937 28.4669 30.8058 28.5985 30.6332 28.7501C30.4596 28.9027 30.3042 29.0792 30.1707 29.2852Z" fill="#E57E67"/>
<path d="M39.8642 25.2757C41.6133 23.6306 38.7646 21.8824 37.0193 22.8171C35.8949 23.4198 35.6955 24.9114 36.8428 25.5981C37.2596 25.847 37.7756 25.9328 38.2725 25.9023C38.8618 25.8661 39.4522 25.6629 39.8642 25.2757Z" fill="white"/>
<path d="M39.6134 23.9711C39.6134 24.7522 38.9802 25.3855 38.1991 25.3855C37.417 25.3855 36.7838 24.7522 36.7838 23.9711C36.7838 23.1891 37.417 22.5558 38.1991 22.5558C38.9802 22.5558 39.6134 23.1891 39.6134 23.9711Z" fill="#192C4A"/>
<path d="M38.0159 23.684C38.0159 23.9444 37.8051 24.1552 37.5438 24.1552C37.2834 24.1552 37.0726 23.9444 37.0726 23.684C37.0726 23.4237 37.2834 23.2119 37.5438 23.2119C37.8051 23.2119 38.0159 23.4237 38.0159 23.684Z" fill="white"/>
<path d="M35.5573 24.0722C35.7499 23.5734 36.1381 23.1509 36.6054 22.8543C37.0746 22.5586 37.6335 22.387 38.2028 22.3813C38.7722 22.3746 39.3349 22.5339 39.8108 22.82C40.2838 23.1061 40.6815 23.5209 40.8837 24.0169C40.4593 23.6974 40.0311 23.4551 39.581 23.293C39.1327 23.1299 38.6692 23.046 38.2095 23.0498C37.7508 23.0546 37.2892 23.148 36.8438 23.3207C36.3965 23.4923 35.974 23.7432 35.5573 24.0722Z" fill="#192C4A"/>
<path d="M27.7368 31.3595C28.4693 31.8068 29.2198 32.1463 29.9962 32.3952C30.7696 32.6432 31.565 32.8044 32.349 32.8244C32.4472 32.8311 32.5445 32.8244 32.6427 32.8253C32.74 32.8244 32.8392 32.8139 32.9374 32.8091C33.0356 32.8024 33.1348 32.791 33.2331 32.7824C33.3322 32.77 33.4305 32.7538 33.5297 32.7424C33.9254 32.6823 34.3193 32.5926 34.7094 32.4801C35.0985 32.3666 35.4829 32.2274 35.8586 32.0605C36.2363 31.8945 36.6016 31.6971 36.963 31.4625C36.7227 31.8211 36.4051 32.1282 36.058 32.3943C35.7098 32.6603 35.3264 32.8807 34.9249 33.0628C34.5244 33.244 34.1019 33.3823 33.6689 33.4786C33.5592 33.5015 33.4505 33.5215 33.3399 33.5416C33.2292 33.5568 33.1196 33.574 33.008 33.5864C32.8954 33.595 32.7839 33.6074 32.6713 33.6102L32.5006 33.615C32.4443 33.6179 32.3881 33.6169 32.3318 33.6141C31.4258 33.5902 30.555 33.3489 29.7635 32.9693C29.3686 32.7776 28.9929 32.5488 28.6486 32.2817C28.3052 32.0128 27.9896 31.7095 27.7368 31.3595Z" fill="#EB4447"/>
<path d="M24.9605 25.2758C23.2114 23.6306 26.0602 21.8825 27.8055 22.8171C28.9299 23.4198 29.1292 24.9115 27.9819 25.5981C27.5651 25.848 27.0492 25.9329 26.5523 25.9024C25.9629 25.8661 25.3725 25.663 24.9605 25.2758Z" fill="white"/>
<path d="M25.2104 23.9711C25.2104 24.7522 25.8447 25.3855 26.6258 25.3855C27.4069 25.3855 28.0411 24.7522 28.0411 23.9711C28.0411 23.1891 27.4069 22.5558 26.6258 22.5558C25.8447 22.5558 25.2104 23.1891 25.2104 23.9711Z" fill="#192C4A"/>
<path d="M25.3278 23.684C25.3278 23.9444 25.5395 24.1552 25.7998 24.1552C26.0602 24.1552 26.271 23.9444 26.271 23.684C26.271 23.4237 26.0602 23.2119 25.7998 23.2119C25.5395 23.2119 25.3278 23.4237 25.3278 23.684Z" fill="white"/>
<path d="M29.2675 24.0722C28.8507 23.7432 28.4283 23.4923 27.98 23.3207C27.5356 23.148 27.074 23.0546 26.6143 23.0498C26.1556 23.046 25.6921 23.1299 25.2438 23.293C24.7937 23.4551 24.3645 23.6974 23.941 24.0169C24.1432 23.5209 24.5409 23.1061 25.014 22.82C25.4889 22.5339 26.0526 22.3746 26.6219 22.3813C27.1913 22.387 27.7502 22.5586 28.2194 22.8543C28.6867 23.1509 29.0749 23.5734 29.2675 24.0722Z" fill="#192C4A"/>
<path d="M22.5095 28.1264C22.2339 28.8999 22.8767 29.8364 23.9467 30.2179C25.0158 30.6003 26.1069 30.2837 26.3835 29.5112C26.66 28.7387 26.0163 27.8021 24.9462 27.4197C23.8771 27.0373 22.7861 27.3539 22.5095 28.1264Z" fill="#F37379"/>
<path d="M42.3152 28.1264C42.5909 28.8999 41.9481 29.8364 40.878 30.2179C39.8079 30.6003 38.7169 30.2837 38.4413 29.5112C38.1647 28.7387 38.8084 27.8021 39.8776 27.4197C40.9476 27.0373 42.0387 27.3539 42.3152 28.1264Z" fill="#F37379"/>
<path d="M53.5719 67.0283L53.3201 60.6985C53.3201 60.6985 52.8328 64.1414 52.0364 64.8272C51.241 65.5129 45.7076 66.6363 45.7076 66.6363L53.5719 67.0283Z" fill="#EBF7F9"/>
<path d="M23.364 70.4273C22.5104 69.7359 21.6454 69.0587 20.7813 68.3807C20.0069 67.7741 19.2258 67.1628 18.3437 66.7269C16.7567 65.943 14.9475 65.7751 13.185 65.6187C11.8498 65.5014 10.4755 65.387 9.19374 65.777C9.03733 65.8247 8.86281 65.8991 8.81322 66.0546C8.75122 66.2472 8.91621 66.436 9.08406 66.5476C9.51323 66.8318 10.0378 66.9234 10.5452 67.0054C11.497 67.1599 12.4488 67.3049 13.4034 67.4413C11.1784 67.2143 8.84087 67.0035 6.78562 67.8847C6.61204 67.9591 6.42416 68.0602 6.3679 68.2405C6.19337 68.7984 7.00307 68.9558 7.38456 69.0015C8.40789 69.1236 9.4665 69.1131 10.4288 69.4822C9.64675 69.5327 8.86853 69.6329 8.09888 69.7817C7.56004 69.8856 7.0107 70.0201 6.55864 70.331C6.46994 70.3911 6.38221 70.4626 6.33833 70.5608C6.24487 70.7716 6.39174 71.0186 6.57867 71.1541C6.90198 71.3877 7.32256 71.422 7.72026 71.4487C8.7331 71.5155 9.74213 71.5899 10.754 71.6652C10.2257 71.7263 9.70016 71.8226 9.1842 71.9542C8.75789 72.062 8.31251 72.2098 8.02735 72.5455C7.98444 72.5961 7.94534 72.6514 7.93389 72.7162C7.91482 72.8202 7.97204 72.9232 8.04071 73.0052C8.2963 73.3094 8.70926 73.4372 9.10601 73.462C9.50275 73.4859 9.89949 73.4229 10.2972 73.4182C11.7468 73.4019 12.9275 73.2846 14.3095 73.936C15.3328 74.4196 16.2665 75.0748 17.285 75.5688C18.1415 75.9836 19.0494 76.2812 19.9545 76.5769C22.2396 77.3236 24.5256 78.0704 26.8117 78.8181C27.3362 78.9897 27.8789 79.1633 28.4292 79.1109C29.1597 79.0412 29.9513 78.3097 30.0314 77.562C30.1191 76.7361 29.3686 76.0151 28.8621 75.462C28.0496 74.575 27.1884 73.7338 26.2986 72.9261C25.3477 72.062 24.3635 71.2351 23.364 70.4273Z" fill="#EBF7F9"/>
<path d="M23.1399 68.292C22.2015 67.7207 21.2544 67.1637 20.3074 66.6077C19.4596 66.1089 18.6031 65.6073 17.6704 65.2925C15.9938 64.7279 14.1779 64.8014 12.4107 64.8824C11.0717 64.9425 9.69451 65.0122 8.47566 65.5701C8.32688 65.6387 8.16475 65.7351 8.13519 65.8962C8.0999 66.0946 8.28874 66.2606 8.46994 66.3492C8.93345 66.5734 9.46466 66.5944 9.97967 66.6077C10.9429 66.6344 11.9062 66.6506 12.8694 66.6592C10.6349 66.7307 8.28969 66.8328 6.36987 67.9801C6.20774 68.0764 6.03511 68.2014 6.00364 68.3883C5.90445 68.9643 6.72847 69.012 7.11281 69.0063C8.14282 68.991 9.19095 68.8394 10.1943 69.0778C9.42556 69.2323 8.66736 69.4345 7.92442 69.6853C7.40369 69.8599 6.87819 70.0659 6.47096 70.434C6.39085 70.5065 6.3136 70.5885 6.28308 70.6915C6.21919 70.9128 6.39753 71.1378 6.60067 71.2475C6.95163 71.4364 7.37318 71.4144 7.77087 71.3877C8.78467 71.319 9.7937 71.258 10.8065 71.1979C10.2906 71.3286 9.7832 71.4945 9.28918 71.6931C8.88099 71.8579 8.45945 72.0629 8.22102 72.4339C8.18573 72.4892 8.15426 72.5493 8.1514 72.6151C8.14663 72.721 8.21721 72.8154 8.29542 72.8869C8.58916 73.1549 9.01641 73.2265 9.41316 73.1979C9.80895 73.1692 10.1943 73.0538 10.5872 72.9966C12.0216 72.7878 13.1765 72.5131 14.6328 72.9756C15.7115 73.318 16.7243 73.8435 17.7992 74.1973C18.7033 74.4949 19.6427 74.6675 20.5792 74.8401C22.9435 75.276 25.3087 75.7128 27.6739 76.1486C28.2165 76.2488 28.7783 76.348 29.3152 76.223C30.0315 76.0571 30.7181 75.2264 30.6971 74.4749C30.6743 73.6451 29.835 73.03 29.2589 72.5493C28.3358 71.7787 27.3706 71.0596 26.3806 70.3768C25.323 69.6472 24.2377 68.9596 23.1399 68.292Z" fill="#F89D7D"/>
<path d="M22.8643 77.3923C22.9444 74.4615 23.6148 71.5479 24.8299 68.8795C24.9519 68.6096 25.0931 68.3282 25.343 68.1689C25.6577 67.9677 26.063 68.0097 26.4331 68.0602C29.4887 68.4827 32.5397 68.9357 35.5849 69.4269C40.1798 70.1689 44.7386 71.1054 49.3088 71.9895C49.8533 72.0954 50.4084 72.2012 50.9587 72.1287C53.2724 71.8255 53.2447 68.8528 53.2734 67.1132C53.3353 63.222 53.0664 59.3338 52.7984 55.4512C54.6086 57.0525 56.4063 58.7234 57.6681 60.7843C58.431 62.0299 58.9813 63.3918 59.4916 64.7604C61.6241 70.4693 63.5277 76.74 63.9797 82.8351C64.2439 86.3906 60.1229 88.9017 57.0672 88.8693C52.0717 88.8168 37.0316 85.2719 32.2497 83.91C29.1225 83.0192 26.5523 82.3621 23.5528 81.106C23.3697 81.0297 23.1761 80.943 23.0712 80.7741C22.9854 80.6359 22.9739 80.4651 22.9673 80.303C22.9453 79.7976 22.8509 77.8978 22.8643 77.3923Z" fill="white"/>
<path d="M40.3668 70.2433C41.2985 69.6625 42.2408 69.0959 43.1812 68.5304C46.1587 66.7403 49.8877 66.6096 53.2819 66.8471C53.301 67.3392 53.2962 67.8294 53.3163 68.3225C53.3706 69.7082 53.4145 71.1541 52.8375 72.4149C52.6839 72.7496 52.4856 73.0701 52.2138 73.318C51.9477 73.5612 51.6225 73.7281 51.2934 73.8731C50.3407 74.2956 49.4394 74.5064 48.418 74.534C47.3918 74.5626 46.234 74.844 45.3194 75.3065C44.1416 75.9016 42.897 76.389 41.68 76.8973C39.9147 77.6345 37.7908 77.7795 35.9129 78.1457C35.3712 78.2516 34.8104 78.3565 34.2716 78.2373C33.5544 78.078 32.8592 77.255 32.8725 76.5034C32.8868 75.6727 33.7194 75.049 34.2907 74.5626C35.2062 73.7825 36.1638 73.0539 37.1461 72.3615C38.1971 71.6214 39.2757 70.9223 40.3668 70.2433Z" fill="#EBF7F9"/>
<path d="M42.5222 80.9658C42.3887 78.0379 41.6667 75.1358 40.404 72.4902C40.2762 72.2222 40.1303 71.9437 39.8775 71.7883C39.559 71.5937 39.1546 71.6424 38.7855 71.7001C32.7619 72.6428 16.1015 75.3885 10.5271 77.8586C7.09752 79.3779 1.75578 82.7788 1.51068 87.1488C1.31135 90.708 5.47716 93.1447 8.53095 93.058C13.5255 92.9149 28.4988 89.1 33.255 87.6514C36.366 86.7043 38.9238 86.0014 41.9004 84.691C42.0816 84.6119 42.2742 84.5213 42.3763 84.3515C42.4592 84.2113 42.4678 84.0406 42.4716 83.8775C42.484 83.3721 42.5451 81.4713 42.5222 80.9658Z" fill="#EBF7F9"/>
<path d="M40.3668 69.1742C41.2985 68.5934 42.2408 68.0278 43.1812 67.4613C46.1587 65.6712 49.8877 65.5415 53.2819 65.778C53.301 66.2711 53.2962 66.7603 53.3163 67.2534C53.3706 68.6391 53.4145 70.085 52.8375 71.3458C52.6839 71.6811 52.4856 72.001 52.2138 72.2499C51.9477 72.4921 51.6225 72.659 51.2934 72.804C50.3407 73.2265 49.4394 73.4373 48.418 73.4659C47.3918 73.4935 46.234 73.7749 45.3194 74.2374C44.1416 74.8325 42.897 75.3199 41.68 75.8282C39.9147 76.5654 37.7908 76.7104 35.9129 77.0766C35.3712 77.1825 34.8104 77.2874 34.2716 77.1682C33.5544 77.0089 32.8592 76.1859 32.8725 75.4343C32.8868 74.6037 33.7194 73.9809 34.2907 73.4935C35.2062 72.7134 36.1638 71.9857 37.1461 71.2924C38.1971 70.5523 39.2757 69.8532 40.3668 69.1742Z" fill="#F89D7D"/>
<path d="M57.299 100.458L47.1343 98.6391C47.1343 98.6391 48.4648 117.241 53.9553 116.538C59.4448 115.836 57.299 100.458 57.299 100.458Z" fill="#EBF7F9"/>
<path d="M7.27304 100.458L17.4367 98.6391C17.4367 98.6391 16.1073 117.241 10.6167 116.538C5.12718 115.836 7.27304 100.458 7.27304 100.458Z" fill="#EBF7F9"/>
<path d="M41.5552 79.871C41.4226 76.9431 40.6997 74.0419 39.437 71.3953C39.3092 71.1273 39.1642 70.8489 38.9115 70.6934C38.5929 70.4988 38.1886 70.5475 37.8195 70.6057C31.7958 71.5479 15.1345 74.2946 9.56005 76.7647C6.13146 78.284 0.789719 81.684 0.544615 86.0539C0.344336 89.6141 4.5111 92.0499 7.56488 91.9631C12.5585 91.821 27.5318 88.0052 32.2889 86.5574C35.3999 85.6104 37.9568 84.9066 40.9333 83.5971C41.1155 83.517 41.3082 83.4264 41.4092 83.2567C41.4932 83.1165 41.5018 82.9457 41.5056 82.7836C41.518 82.2772 41.5781 80.3764 41.5552 79.871Z" fill="white"/>
<path d="M38.9114 70.6934C38.7522 70.6028 38.5681 70.5704 38.3888 70.5713C38.2076 70.5713 38.0293 70.6009 37.85 70.6333L36.7751 70.8298L34.6264 71.2227L30.329 72.0143C28.8984 72.2851 27.4669 72.5493 26.0382 72.8307C24.6086 73.1072 23.1809 73.3886 21.7561 73.6862C20.3303 73.978 18.9083 74.2851 17.4911 74.6103C16.072 74.9307 14.6614 75.2827 13.2595 75.6651C12.9085 75.7576 12.5613 75.8635 12.2123 75.9636L11.6925 76.1248L11.4331 76.2059L11.1746 76.2907C11.003 76.3499 10.8294 76.4023 10.6596 76.4653L10.1494 76.6503L9.64585 76.8515C9.478 76.9211 9.31301 76.9946 9.14706 77.068C7.82236 77.6603 6.54534 78.3641 5.33221 79.1709C6.49097 78.2859 7.74797 77.5287 9.05837 76.8792C9.22241 76.7981 9.3874 76.719 9.5543 76.6436L10.0588 76.4233L10.569 76.2202C10.7388 76.1505 10.9114 76.0924 11.0831 76.0275L11.3406 75.9331L11.601 75.8454L12.1207 75.6708C12.4698 75.5621 12.8169 75.4477 13.167 75.3456C13.866 75.132 14.5708 74.9393 15.2766 74.7524C15.6285 74.6589 15.9833 74.5712 16.3361 74.4796L17.3986 74.2183C18.8177 73.8798 20.2435 73.5688 21.6702 73.2703C23.0989 72.9794 24.5304 72.6991 25.9639 72.4358C27.3982 72.1764 28.8336 71.9218 30.2718 71.6889C31.71 71.4516 33.151 71.2303 34.5921 71.0177C35.314 70.9147 36.0351 70.8107 36.757 70.7134L37.8404 70.5694C38.0216 70.5475 38.2057 70.5284 38.3898 70.5389C38.5729 70.5494 38.7579 70.5933 38.9114 70.6934Z" fill="#EBF7F9"/>
<path d="M15.1783 14.928C15.4626 14.1297 15.9137 13.3896 16.4611 12.7335C17.0133 12.0783 17.658 11.5051 18.3513 11.0054C19.0428 10.4999 19.7848 10.0717 20.5401 9.6778C21.2983 9.28869 22.0775 8.94534 22.8595 8.61726C23.6435 8.29777 24.4255 7.98209 25.198 7.64925C25.9734 7.32117 26.7335 6.9645 27.4736 6.57252C27.6577 6.47334 27.8379 6.36746 28.021 6.26542C28.2013 6.15955 28.3768 6.04607 28.557 5.93925C28.7335 5.82672 28.9042 5.70655 29.0787 5.5902C29.2494 5.46908 29.4135 5.33937 29.5823 5.21538C30.2432 4.70038 30.8431 4.10431 31.3562 3.43099C30.9213 4.15772 30.3519 4.80625 29.7167 5.37561C29.5536 5.51199 29.3915 5.65219 29.2256 5.78571C29.0549 5.91351 28.886 6.04606 28.7125 6.17004C28.537 6.29021 28.3615 6.41229 28.1813 6.52769C28 6.63927 27.8198 6.75372 27.6357 6.86149C27.4507 6.96639 27.2657 7.07416 27.0788 7.17621C26.8899 7.2754 26.702 7.37459 26.5123 7.47091L25.9381 7.75036L25.3602 8.01835C24.5858 8.3655 23.8009 8.68499 23.0217 9.01021C22.2425 9.32874 21.4728 9.66635 20.7213 10.0373C19.9669 10.4045 19.2373 10.8156 18.5411 11.2762C17.8478 11.7416 17.1916 12.2643 16.6165 12.8718C16.0386 13.4755 15.5493 14.1669 15.1783 14.928Z" fill="#79BBD5"/>
</svg>
