<?xml version="1.0" standalone="no"?>
<!DOCTYPE svg PUBLIC "-//W3C//DTD SVG 20010904//EN"
 "http://www.w3.org/TR/2001/REC-SVG-20010904/DTD/svg10.dtd">
<svg version="1.0" xmlns="http://www.w3.org/2000/svg"
 width="683.000000pt" height="683.000000pt" viewBox="0 0 683.000000 683.000000"
 preserveAspectRatio="xMidYMid meet">
<metadata>
Created by potrace 1.14, written by Peter Selinger 2001-2017
</metadata>
<g transform="translate(0.000000,683.000000) scale(0.100000,-0.100000)"
fill="#000000" stroke="none">
<path d="M3380 6820 c-14 -4 -65 -19 -115 -33 -49 -14 -130 -37 -180 -51 -49
-14 -344 -98 -655 -186 -311 -89 -594 -169 -630 -180 -36 -10 -186 -53 -335
-95 -148 -42 -300 -85 -338 -95 -156 -46 -410 -119 -437 -126 -32 -8 -197 -54
-240 -67 l-45 -13 0 -1024 c0 -564 3 -1061 8 -1105 7 -74 14 -142 21 -205 4
-29 16 -114 22 -150 2 -14 7 -41 10 -60 3 -19 14 -78 25 -130 12 -52 23 -106
25 -120 5 -23 26 -102 54 -205 178 -642 556 -1305 1028 -1808 58 -61 233 -232
287 -279 22 -20 56 -50 75 -67 272 -239 728 -523 1085 -675 61 -26 119 -51
130 -57 11 -5 68 -27 128 -49 l107 -40 63 21 c200 67 520 213 722 328 198 114
558 362 625 431 3 3 21 18 40 34 97 78 315 289 412 397 414 460 716 966 912
1529 127 363 205 738 233 1125 5 55 8 552 8 1105 l0 1004 -185 54 c-102 29
-194 55 -205 57 -11 3 -99 28 -195 55 -96 28 -183 53 -192 55 -9 2 -41 11 -70
20 -72 21 -629 180 -698 199 -61 16 -416 117 -495 141 -27 8 -75 21 -105 29
-30 8 -237 67 -460 130 -223 64 -407 116 -410 115 -3 0 -16 -4 -30 -9z"/>
</g>
</svg>
