<svg width="48" height="61" viewBox="0 0 48 61" fill="none" xmlns="http://www.w3.org/2000/svg">
<path d="M46.8041 15.1342L32.3033 0.633399C31.899 0.229102 31.3532 0 30.7805 0H2.15625C0.963574 0 0 0.963574 0 2.15625V58.2188C0 59.4114 0.963574 60.375 2.15625 60.375H45.2812C46.4739 60.375 47.4375 59.4114 47.4375 58.2188V16.6638C47.4375 16.091 47.2084 15.5385 46.8041 15.1342ZM42.4646 17.6543H29.7832V4.97285L42.4646 17.6543ZM42.5859 55.5234H4.85156V4.85156H25.2012V19.4062C25.2012 20.1568 25.4993 20.8767 26.0301 21.4074C26.5608 21.9382 27.2807 22.2363 28.0312 22.2363H42.5859V55.5234ZM25.875 27.4922C25.875 27.1957 25.6324 26.9531 25.3359 26.9531H22.1016C21.8051 26.9531 21.5625 27.1957 21.5625 27.4922V34.7695H14.2852C13.9887 34.7695 13.7461 35.0121 13.7461 35.3086V38.543C13.7461 38.8395 13.9887 39.082 14.2852 39.082H21.5625V46.3594C21.5625 46.6559 21.8051 46.8984 22.1016 46.8984H25.3359C25.6324 46.8984 25.875 46.6559 25.875 46.3594V39.082H33.1523C33.4488 39.082 33.6914 38.8395 33.6914 38.543V35.3086C33.6914 35.0121 33.4488 34.7695 33.1523 34.7695H25.875V27.4922Z" fill="#F1F5FA"/>
</svg>
