<svg width="48" height="52" viewBox="0 0 48 52" fill="none" xmlns="http://www.w3.org/2000/svg">
<path d="M34.3938 34.15C35.9063 33.3375 37.6375 32.875 39.4813 32.875H39.4875C39.675 32.875 39.7625 32.65 39.625 32.525C37.7076 30.8042 35.5173 29.4144 33.1438 28.4125C33.1188 28.4 33.0938 28.3937 33.0688 28.3812C36.95 25.5625 39.475 20.9813 39.475 15.8125C39.475 7.25 32.55 0.3125 24.0063 0.3125C15.4625 0.3125 8.54379 7.25 8.54379 15.8125C8.54379 20.9813 11.0688 25.5625 14.9563 28.3812C14.9313 28.3937 14.9063 28.4 14.8813 28.4125C12.0875 29.5937 9.58128 31.2875 7.42503 33.45C5.28124 35.5899 3.57449 38.1267 2.40003 40.9188C1.24449 43.6529 0.620856 46.5823 0.562534 49.55C0.560866 49.6167 0.572566 49.6831 0.596946 49.7452C0.621325 49.8073 0.65789 49.8639 0.704487 49.9117C0.751083 49.9594 0.806768 49.9974 0.86826 50.0233C0.929752 50.0492 0.995808 50.0625 1.06253 50.0625H4.80628C5.07503 50.0625 5.30003 49.8438 5.30628 49.575C5.43128 44.75 7.36253 40.2313 10.7813 36.8063C14.3125 33.2625 19.0125 31.3125 24.0125 31.3125C27.5563 31.3125 30.9563 32.2937 33.8875 34.1312C33.9628 34.1786 34.0493 34.2052 34.1381 34.2085C34.227 34.2118 34.3152 34.1916 34.3938 34.15ZM24.0125 26.5625C21.15 26.5625 18.4563 25.4438 16.425 23.4125C15.4256 22.4157 14.6333 21.231 14.0938 19.9266C13.5542 18.6223 13.2781 17.224 13.2813 15.8125C13.2813 12.9438 14.4 10.2437 16.425 8.2125C18.45 6.18125 21.1438 5.0625 24.0125 5.0625C26.8813 5.0625 29.5688 6.18125 31.6 8.2125C32.5994 9.20932 33.3917 10.394 33.9313 11.6984C34.4708 13.0027 34.747 14.401 34.7438 15.8125C34.7438 18.6812 33.625 21.3813 31.6 23.4125C29.5688 25.4438 26.875 26.5625 24.0125 26.5625ZM47 41.4375H41.75V36.1875C41.75 35.9125 41.525 35.6875 41.25 35.6875H37.75C37.475 35.6875 37.25 35.9125 37.25 36.1875V41.4375H32C31.725 41.4375 31.5 41.6625 31.5 41.9375V45.4375C31.5 45.7125 31.725 45.9375 32 45.9375H37.25V51.1875C37.25 51.4625 37.475 51.6875 37.75 51.6875H41.25C41.525 51.6875 41.75 51.4625 41.75 51.1875V45.9375H47C47.275 45.9375 47.5 45.7125 47.5 45.4375V41.9375C47.5 41.6625 47.275 41.4375 47 41.4375Z" fill="white"/>
</svg>
