<svg width="165" height="179" viewBox="0 0 165 179" fill="none" xmlns="http://www.w3.org/2000/svg">
<path d="M152.103 92.1658C150.035 93.4103 147.626 93.9682 145.222 93.7595C142.818 93.5508 140.541 92.5863 138.719 91.0041C136.896 89.422 135.622 87.3035 135.077 84.9523C134.533 82.6011 134.747 80.1379 135.689 77.9159C136.631 75.6939 138.252 73.8271 140.32 72.5831C142.388 71.3391 144.797 70.7818 147.201 70.9911C149.605 71.2003 151.882 72.1654 153.704 73.748C155.526 75.3306 156.8 77.4495 157.344 79.8008C157.891 82.1512 157.678 84.6146 156.737 86.8366C155.795 89.0585 154.172 90.9244 152.103 92.1658Z" fill="#EBEBEB"/>
<path d="M149.704 81.113C149.695 81.8001 149.483 82.4693 149.094 83.0359C148.705 83.6025 148.157 84.0411 147.519 84.2963C146.881 84.5515 146.182 84.6118 145.51 84.4696C144.837 84.3275 144.222 83.9892 143.742 83.4975C143.262 83.0058 142.938 82.3829 142.812 81.7074C142.686 81.0319 142.763 80.3341 143.033 79.7023C143.304 79.0706 143.755 78.5331 144.331 78.1579C144.907 77.7826 145.581 77.5865 146.268 77.5942C146.724 77.5994 147.176 77.6945 147.596 77.8742C148.016 78.0538 148.396 78.3145 148.715 78.6413C149.034 78.9681 149.286 79.3547 149.455 79.7788C149.625 80.2029 149.709 80.6563 149.704 81.113Z" fill="white"/>
<path d="M152.119 90.7313V92.1656C150.3 93.2587 148.212 93.8237 146.09 93.7973C143.968 93.7708 141.895 93.154 140.104 92.0159L140.124 90.5855C140.134 89.7969 140.298 89.0179 140.609 88.293C140.92 87.5681 141.37 86.9115 141.934 86.3606C142.499 85.8097 143.166 85.3754 143.898 85.0825C144.631 84.7896 145.413 84.6437 146.202 84.6533C146.991 84.6628 147.77 84.8277 148.495 85.1383C149.219 85.4489 149.876 85.8993 150.427 86.4637C150.978 87.0281 151.412 87.6955 151.705 88.4277C151.998 89.1599 152.144 89.9427 152.134 90.7313H152.119Z" fill="white"/>
<path d="M23.6267 58.1561C22.4339 58.8741 21.0645 59.2452 19.6723 59.2278C18.2802 59.2104 16.9205 58.8051 15.746 58.0576C14.3722 57.1832 13.321 55.8848 12.7517 54.3591C12.1823 52.8335 12.1259 51.1638 12.5911 49.6033C13.0562 48.0427 14.0174 46.6763 15.329 45.7112C16.6407 44.7462 18.2312 44.2351 19.8595 44.2555C21.4878 44.2758 23.065 44.8265 24.3521 45.824C25.6393 46.8216 26.566 48.2116 26.992 49.7833C27.418 51.355 27.3199 53.0227 26.7126 54.5337C26.1053 56.0446 25.0219 57.3163 23.6267 58.1561Z" fill="#EBEBEB"/>
<path d="M22.0545 50.9137C22.0498 51.3642 21.9115 51.8033 21.6572 52.1753C21.4029 52.5473 21.0439 52.8355 20.6257 53.0034C20.2076 53.1713 19.749 53.2114 19.3081 53.1186C18.8671 53.0258 18.4636 52.8043 18.1486 52.4821C17.8335 52.1599 17.6212 51.7515 17.5383 51.3086C17.4555 50.8656 17.5059 50.4081 17.6832 49.9938C17.8605 49.5795 18.1567 49.2272 18.5343 48.9813C18.9119 48.7354 19.3539 48.607 19.8045 48.6125C20.1034 48.6156 20.3988 48.6776 20.6737 48.7949C20.9487 48.9123 21.1977 49.0827 21.4067 49.2965C21.6157 49.5102 21.7805 49.7631 21.8916 50.0406C22.0028 50.3181 22.0581 50.6148 22.0545 50.9137Z" fill="white"/>
<path d="M23.6387 57.2145V58.1562C22.4459 58.8742 21.0765 59.2453 19.6843 59.2279C18.2922 59.2105 16.9325 58.8053 15.7579 58.0577V57.1239C15.77 56.0788 16.1966 55.0813 16.9441 54.3508C17.6916 53.6204 18.6986 53.2168 19.7436 53.2288C20.7887 53.2408 21.7862 53.6675 22.5166 54.4149C23.2471 55.1624 23.6507 56.1694 23.6387 57.2145Z" fill="white"/>
<path d="M57.0647 59.2318H7.16357V25.0923H57.0647V59.2318ZM7.55761 58.8378H56.6707V25.4863H7.55761V58.8378Z" fill="#EBEBEB"/>
<path d="M11.0643 27.2911C11.0643 27.4875 11.0061 27.6794 10.897 27.8427C10.7879 28.006 10.6328 28.1333 10.4513 28.2085C10.2699 28.2836 10.0702 28.3033 9.87763 28.265C9.68501 28.2267 9.50808 28.1321 9.36921 27.9932C9.23033 27.8543 9.13576 27.6774 9.09745 27.4848C9.05914 27.2922 9.0788 27.0925 9.15396 26.9111C9.22911 26.7296 9.35638 26.5746 9.51968 26.4654C9.68297 26.3563 9.87496 26.2981 10.0713 26.2981C10.3347 26.2981 10.5873 26.4027 10.7735 26.5889C10.9597 26.7752 11.0643 27.0277 11.0643 27.2911Z" fill="#A6A6A6"/>
<path d="M15.119 27.2911C15.119 27.4875 15.0608 27.6794 14.9517 27.8427C14.8426 28.006 14.6875 28.1333 14.506 28.2085C14.3246 28.2836 14.1249 28.3033 13.9323 28.265C13.7397 28.2267 13.5628 28.1321 13.4239 27.9932C13.285 27.8543 13.1905 27.6774 13.1521 27.4848C13.1138 27.2922 13.1335 27.0925 13.2086 26.9111C13.2838 26.7296 13.4111 26.5746 13.5744 26.4654C13.7377 26.3563 13.9296 26.2981 14.126 26.2981C14.3894 26.2981 14.642 26.4027 14.8282 26.5889C15.0144 26.7752 15.119 27.0277 15.119 27.2911Z" fill="#EBEBEB"/>
<path d="M19.1737 27.2911C19.1737 27.4875 19.1155 27.6794 19.0064 27.8427C18.8972 28.006 18.7422 28.1333 18.5607 28.2085C18.3793 28.2836 18.1796 28.3033 17.987 28.265C17.7944 28.2267 17.6175 28.1321 17.4786 27.9932C17.3397 27.8543 17.2451 27.6774 17.2068 27.4848C17.1685 27.2922 17.1882 27.0925 17.2633 26.9111C17.3385 26.7296 17.4658 26.5746 17.6291 26.4654C17.7923 26.3563 17.9843 26.2981 18.1807 26.2981C18.4441 26.2981 18.6966 26.4027 18.8829 26.5889C19.0691 26.7752 19.1737 27.0277 19.1737 27.2911Z" fill="#0062FF"/>
<path d="M56.8681 29.0405H7.36096V29.4346H56.8681V29.0405Z" fill="#EBEBEB"/>
<path d="M37.8301 68.1899L11.8319 71.7373L14.0816 88.2248L40.0798 84.6774L37.8301 68.1899Z" fill="#EBEBEB"/>
<path d="M37.8277 68.1963C36.9135 69.3429 35.9757 70.4502 35.0694 71.5811C34.1631 72.712 33.1938 73.8074 32.252 74.9107C31.3103 76.014 30.2818 77.204 29.2888 78.3389L29.1982 78.4492C28.3235 79.45 27.4434 80.4522 26.5582 81.4557L26.4281 81.5976L26.2666 81.4951C25.1475 80.7661 24.0363 80.0372 22.9212 79.3003L22.803 79.2254C21.542 78.394 20.2811 77.5587 19.0241 76.7075C17.7671 75.8564 16.6205 75.0841 15.4226 74.2606C14.2247 73.437 13.0308 72.6016 11.8447 71.7387C13.0781 72.448 14.2996 73.2006 15.5211 73.9335C16.7426 74.6664 17.9681 75.4308 19.1896 76.1953C20.5451 77.0385 21.9006 77.8962 23.2561 78.7684C24.2727 79.4146 25.288 80.0713 26.302 80.7386C27.0901 79.8362 27.9058 78.9339 28.7135 78.0433C29.7893 76.8612 30.8611 75.6554 31.9447 74.4733C32.914 73.4226 33.8886 72.3718 34.8684 71.321C35.8535 70.2611 36.8268 69.209 37.8277 68.1963Z" fill="white"/>
<path d="M23.3311 79.1387L23.3035 79.1702C23.1853 79.3042 23.0632 79.4421 22.941 79.5642C22.3657 80.2026 21.7589 80.8212 21.1599 81.428C20.4192 82.1728 19.6547 82.8939 18.8824 83.611C18.1101 84.3282 17.3299 85.0177 16.5182 85.6994C15.7064 86.3811 14.9026 87.0549 14.0554 87.6696C14.7489 86.8815 15.4818 86.1171 16.2226 85.3763C16.9634 84.6355 17.7318 83.9065 18.5002 83.1933C19.2686 82.4801 20.0763 81.7787 20.8644 81.097C21.5028 80.5533 22.1529 80.0134 22.8346 79.5012C22.9883 79.379 23.1459 79.2648 23.3035 79.1466L23.3311 79.1387Z" fill="white"/>
<path d="M39.944 84.1627C38.9589 83.7687 37.9739 83.3549 37.0439 82.9136C36.114 82.4723 35.1486 81.9994 34.2108 81.5266C33.273 81.0537 32.347 80.5533 31.4525 80.0332C30.7078 79.6155 29.967 79.1821 29.2459 78.721L28.7809 78.4255L28.7494 78.4019H28.7888L29.3365 78.6186C30.1246 78.9338 30.8851 79.2806 31.6495 79.6352C32.607 80.0765 33.5449 80.5454 34.4787 81.0222C35.4126 81.499 36.3425 81.9955 37.2567 82.5156C38.1709 83.0358 39.0575 83.5795 39.944 84.1627Z" fill="white"/>
<path d="M151.457 24.5249H119.28V44.9322H151.457V24.5249Z" fill="#EBEBEB"/>
<path d="M151.457 24.5249C150.157 25.7661 148.833 26.9561 147.517 28.1816C146.2 29.407 144.873 30.5734 143.545 31.7595C142.217 32.9455 140.767 34.2183 139.372 35.4319L139.25 35.5501C138.018 36.6245 136.782 37.6976 135.542 38.7694L135.356 38.9192L135.179 38.7694C133.942 37.6976 132.709 36.6232 131.479 35.5462L131.349 35.4319C129.949 34.2183 128.557 32.9915 127.172 31.7516C125.848 30.5695 124.524 29.3873 123.204 28.1816C121.884 26.9758 120.572 25.7661 119.264 24.5249C120.647 25.5888 122.022 26.7079 123.37 27.7994C124.717 28.8909 126.097 30.0217 127.448 31.1526C128.959 32.4004 130.465 33.6679 131.968 34.9551C133.095 35.9087 134.222 36.8675 135.349 37.8316C136.468 36.8702 137.595 35.9048 138.722 34.9551C140.224 33.6784 141.731 32.4109 143.241 31.1526C144.591 30.0283 145.95 28.9132 147.316 27.8072C148.718 26.7079 150.074 25.5888 151.457 24.5249Z" fill="white"/>
<path d="M132.031 35.4202C132.019 35.4316 132.006 35.4422 131.992 35.4517C131.822 35.5975 131.657 35.7433 131.487 35.8812C130.68 36.5629 129.852 37.217 129.013 37.8514C127.988 38.6395 126.94 39.3842 125.884 40.1289C124.828 40.8737 123.764 41.5829 122.677 42.2804C121.589 42.9778 120.494 43.6556 119.359 44.2782C120.332 43.4231 121.329 42.6271 122.373 41.8509C123.417 41.0746 124.45 40.3181 125.498 39.5733C126.546 38.8286 127.626 38.1154 128.713 37.4179C129.576 36.8623 130.455 36.3146 131.357 35.8024C131.562 35.6842 131.771 35.566 131.984 35.4517L132.031 35.4202Z" fill="white"/>
<path d="M151.382 44.2741C150.244 43.6515 149.144 42.9698 148.061 42.2763C146.977 41.5828 145.909 40.8538 144.845 40.1249C143.781 39.3959 142.745 38.6314 141.72 37.8473C140.885 37.2168 140.058 36.5667 139.258 35.8771C139.08 35.7313 138.915 35.5855 138.745 35.4397C138.732 35.4302 138.718 35.4197 138.706 35.4082L138.753 35.4318L139.38 35.7865C140.282 36.2987 141.157 36.8464 142.024 37.402C143.111 38.0995 144.175 38.8245 145.235 39.5574C146.295 40.2903 147.336 41.0508 148.36 41.835C149.385 42.6191 150.405 43.419 151.382 44.2741Z" fill="white"/>
<path d="M77.0189 178.846C108.18 178.846 133.441 176.89 133.441 174.477C133.441 172.063 108.18 170.107 77.0189 170.107C45.8576 170.107 20.5964 172.063 20.5964 174.477C20.5964 176.89 45.8576 178.846 77.0189 178.846Z" fill="#EBEBEB"/>
<path d="M96.1173 0H95.7233V54.204H96.1173V0Z" fill="#C7C7C7"/>
<path d="M79.8359 69.7093L81.1323 72.5543H110.717L112.005 69.7093L99.4118 60.9893H92.4334L79.8359 69.7093Z" fill="#0062FF"/>
<path d="M91.5587 52.5925L92.4335 60.9895H99.4119L100.287 52.5925H91.5587Z" fill="#0062FF"/>
<path opacity="0.1" d="M79.8397 69.7095L81.1322 72.5544H110.721L112.009 69.7095H79.8397Z" fill="black"/>
<path opacity="0.1" d="M92.4333 60.9894L92.3387 60.087L99.5575 59.5669L99.4118 60.9894H92.4333Z" fill="black"/>
<path d="M69.2715 0H68.8774V37.1461H69.2715V0Z" fill="#C7C7C7"/>
<path d="M52.99 52.6514L54.2864 55.4964H83.8708L85.1594 52.6514L72.5659 43.9353H65.5874L52.99 52.6514Z" fill="#0062FF"/>
<path d="M64.7128 35.5344L65.5875 43.9353H72.566L73.4407 35.5344H64.7128Z" fill="#0062FF"/>
<path opacity="0.1" d="M52.9938 52.6555L54.2862 55.4965H83.8707L85.1631 52.6555H52.9938Z" fill="black"/>
<path opacity="0.1" d="M65.5878 43.9353L65.4854 42.9621L72.716 42.4932L72.5662 43.9353H65.5878Z" fill="black"/>
<path d="M136.601 123.61C136.719 121.62 137.001 119.643 137.444 117.7C137.862 115.946 138.453 114.153 139.56 112.699C140.047 112.016 140.665 111.436 141.377 110.992C142.089 110.549 142.882 110.25 143.71 110.114C145.337 109.917 146.862 110.642 148.08 111.663C149.585 112.932 150.739 114.614 151.823 116.242C153.009 118.063 154.088 119.953 155.054 121.9C155.09 121.963 154.991 122.018 154.96 121.955C154.12 120.306 153.153 118.725 152.067 117.227C151.077 115.789 149.963 114.44 148.738 113.196C147.622 112.108 146.204 111.088 144.584 111.036C142.965 110.985 141.491 111.888 140.526 113.129C139.442 114.516 138.891 116.246 138.477 117.932C138.058 119.781 137.787 121.66 137.665 123.551C137.346 127.456 137.271 131.385 137.173 135.297C137.121 137.512 137.094 139.73 137.07 141.945L137.046 145.314C137.086 146.398 137.042 147.483 136.916 148.561C136.877 148.778 136.522 148.758 136.483 148.561C136.352 147.541 136.303 146.511 136.337 145.483C136.321 144.419 136.308 143.356 136.298 142.292C136.277 140.224 136.269 138.156 136.274 136.086C136.266 131.921 136.317 127.756 136.601 123.61Z" fill="#263238"/>
<path d="M142.181 120.667C142.386 119.563 142.76 118.125 143.387 117.27C144.518 115.733 145.751 116.399 144.612 118.102C143.781 119.366 143.243 120.799 143.036 122.298C143.036 122.298 144.935 125.013 147.229 126.349C147.13 125.305 146.835 123.701 147.04 122.152C147.481 118.799 149.51 119 149.01 121.652C148.616 123.788 148.442 126.057 148.553 127.038C149.319 127.535 150.142 127.939 151.004 128.24C150.87 127.846 150.732 127.385 150.578 126.818C149.762 123.811 151.76 122.877 151.831 124.568C151.964 126.01 152.228 127.437 152.619 128.831C153.719 129.202 154.633 129.454 155.188 129.647C156.633 130.182 157.924 131.064 158.948 132.216C159.992 131.273 160.859 130.15 161.509 128.902C160.807 128.299 159.7 127.405 158.163 126.317C155.283 124.284 156.284 121.715 158.557 123.311C160.205 124.465 161.481 126.601 162.064 127.696C162.842 125.786 163.283 123.756 163.369 121.695C161.107 119.571 155.508 116.608 157.194 116.608C158.715 116.608 162.112 118.834 163.357 119.693C163.327 119.11 163.264 118.528 163.168 117.952C161.036 116.553 154.105 114.382 155.212 113.755C156.422 113.07 161.257 115.308 162.718 116.013C162.444 115.063 162.011 114.167 161.438 113.361C158.49 109.421 153.163 108.061 150.862 108.81C149.223 109.342 149.68 113.503 149.349 113.361C142.753 110.725 139.758 112.585 142.181 120.667ZM158.337 120.21C158.806 119.646 160.965 121.309 160.342 122.215C159.72 123.122 157.726 120.935 158.329 120.21H158.337ZM147.04 116.663C147.607 117.026 146.768 119.126 145.889 118.492C145.152 117.948 146.46 116.297 147.032 116.663H147.04Z" fill="#0062FF"/>
<path d="M147.91 117.306C148.206 116.718 148.517 116.123 148.856 115.568C149.167 115.009 149.532 114.481 149.943 113.992C149.853 113.877 149.762 113.759 149.664 113.645C149.624 113.598 149.691 113.535 149.731 113.578C149.841 113.704 149.947 113.834 150.054 113.972C150.065 113.978 150.075 113.985 150.083 113.995C150.091 114.004 150.097 114.015 150.101 114.027C150.508 114.516 150.893 115.016 151.255 115.528C151.904 115.678 152.543 115.863 153.17 116.084C153.817 116.301 154.459 116.525 155.086 116.789C155.152 116.817 155.117 116.927 155.054 116.896C154.431 116.624 153.801 116.356 153.155 116.139C152.508 115.923 151.925 115.773 151.307 115.599C151.508 115.883 151.701 116.167 151.894 116.458C153.057 116.827 154.189 117.288 155.279 117.838C156.421 118.381 157.521 119.02 158.616 119.646C158.679 119.682 158.616 119.78 158.557 119.741C157.48 119.111 156.371 118.538 155.235 118.023C154.175 117.526 153.08 117.12 152.012 116.648C154.703 120.844 156.315 125.691 158.474 130.175C158.506 130.242 158.403 130.293 158.376 130.23C157.718 128.654 156.957 127.125 156.24 125.576C155.598 124.186 154.967 122.791 154.325 121.4C154.136 121.006 153.931 120.588 153.742 120.186C153.86 122.428 153.813 124.71 154.183 126.924C154.183 126.931 154.182 126.939 154.179 126.945C154.176 126.952 154.172 126.958 154.167 126.963C154.162 126.968 154.156 126.972 154.149 126.975C154.142 126.978 154.135 126.979 154.128 126.979C154.121 126.979 154.114 126.978 154.107 126.975C154.1 126.972 154.094 126.968 154.089 126.963C154.084 126.958 154.08 126.952 154.077 126.945C154.074 126.939 154.073 126.931 154.073 126.924C153.915 124.528 153.494 122.168 153.509 119.76C153.509 119.76 153.509 119.741 153.509 119.729C153.052 118.811 152.564 117.908 152.04 117.03C151.149 119.126 150.211 121.258 149.798 123.512C149.798 123.579 149.671 123.551 149.687 123.48C150.294 121.222 150.869 118.961 151.945 116.872C151.374 115.921 150.741 115.009 150.05 114.141C149.75 114.697 149.368 115.225 149.029 115.757C148.69 116.289 148.371 116.801 148.064 117.333C147.401 118.464 146.838 119.651 146.381 120.88C146.354 120.947 146.247 120.911 146.275 120.848C146.787 119.67 147.307 118.468 147.91 117.306Z" fill="#263238"/>
<path d="M126.687 122.412C128.413 120.679 130.419 118.409 133.086 118.413C135.663 118.413 137.559 120.489 138.646 122.629C139.785 124.867 140.195 127.401 140.518 129.864C140.899 132.815 141.13 135.783 141.211 138.757C141.259 140.408 141.251 142.063 141.211 143.714C141.206 145.388 141.075 147.06 140.817 148.714C140.77 148.978 140.341 148.99 140.325 148.714C140.246 147.324 140.301 145.925 140.325 144.534C140.348 143.143 140.325 141.775 140.262 140.424C140.159 137.666 139.958 134.907 139.631 132.149C139.348 129.741 139.123 127.271 138.402 124.946C137.756 122.85 136.538 120.454 134.414 119.532C131.514 118.279 128.681 120.572 126.786 122.511C126.723 122.546 126.632 122.464 126.687 122.412Z" fill="#263238"/>
<path d="M117.881 126.282C117.881 126.636 117.912 126.983 117.936 127.326C118.766 126.703 119.738 126.297 120.765 126.144C123.216 125.884 123.058 127.744 121.423 127.823C120.271 127.837 119.131 128.065 118.062 128.496C118.456 131.731 119.35 134.332 119.484 134.368C121.658 134.255 123.821 133.991 125.958 133.579C125.348 132.279 123.961 130.553 124.67 130.427C125.379 130.301 126.148 131.822 126.542 133.473C128.149 133.166 129.731 132.733 131.27 132.177C130.19 131.243 128.512 130.08 129.162 129.588C129.812 129.095 131.132 130.727 131.92 131.917C132.643 131.622 133.327 131.241 133.957 130.782C132.503 128.646 128.965 128.213 129.426 126.672C129.887 125.131 133.201 127.267 134.686 130.124C136.432 128.311 136.944 125.75 136.759 123.559C135.238 123.382 132.314 123.705 132.527 122.613C132.74 121.522 134.852 121.727 136.582 122.365C136.423 121.498 136.076 120.676 135.565 119.957C133.965 117.901 129.071 120.517 129.071 120.517C129.071 120.517 129.595 115.599 127.732 114.752C126.656 114.264 124.757 114.268 122.853 115.387C123.921 115.477 125.218 115.816 125.73 116.569C126.396 117.51 125.336 118.027 124.682 117.589C124.213 117.282 123.338 116.309 121.758 116.179C121.083 116.753 120.489 117.415 119.993 118.149C119.811 118.405 119.646 118.673 119.476 118.965C120.38 118.557 121.362 118.354 122.353 118.372C123.343 118.39 124.318 118.627 125.206 119.067C127.326 120.119 126.14 122.322 124.315 121.467C122.491 120.612 120.769 119.768 118.818 120.253C118.133 121.984 117.807 123.837 117.861 125.699C118.81 125.007 119.879 124.495 121.013 124.189C123.121 123.638 123.772 124.895 121.443 125.131C120.189 125.267 118.977 125.658 117.881 126.282ZM120.446 122.897C120.3 122.211 121.793 122.018 122.042 122.57C122.251 123.043 120.588 123.579 120.446 122.897ZM133.236 126.68C133.378 126.305 134.379 126.731 134.288 127.196C134.162 127.815 133.098 127.05 133.236 126.68ZM126.175 129.076C126.904 128.784 128.043 130.597 127.247 131.01C126.451 131.424 125.576 129.316 126.175 129.076Z" fill="#0062FF"/>
<path d="M119.768 134.009C120.868 132.173 121.955 130.329 123.11 128.524C123.646 127.685 124.209 126.861 124.792 126.053L124.532 125.99L124.095 125.907C123.756 125.848 123.417 125.801 123.074 125.766C122.732 125.73 122.432 125.714 122.109 125.71C121.765 125.691 121.42 125.71 121.081 125.766C121.073 125.766 121.066 125.763 121.061 125.758C121.056 125.752 121.053 125.745 121.053 125.738C121.053 125.731 121.056 125.724 121.061 125.719C121.066 125.713 121.073 125.71 121.081 125.71C121.423 125.71 121.774 125.679 122.117 125.675C122.46 125.671 122.787 125.675 123.118 125.699C123.43 125.715 123.742 125.748 124.052 125.797C124.225 125.821 124.394 125.852 124.564 125.884C124.669 125.901 124.773 125.923 124.875 125.951C125.47 125.131 126.089 124.331 126.727 123.543C124.827 122.621 122.805 121.974 120.722 121.624C120.686 121.624 120.702 121.565 120.722 121.569C122.84 121.863 124.898 122.488 126.822 123.421L127.882 122.133C128.276 121.656 128.705 121.187 129.064 120.683C129.087 120.647 129.135 120.683 129.111 120.714C128.615 121.257 128.15 121.826 127.716 122.42C128.502 122.966 129.25 123.565 129.954 124.213C130.685 124.862 131.396 125.532 132.09 126.223C132.118 126.246 132.09 126.286 132.051 126.262C131.365 125.58 130.656 124.93 129.915 124.312C129.174 123.693 128.39 123.129 127.645 122.519C127.476 122.747 127.306 122.972 127.133 123.193C127.046 123.303 126.964 123.417 126.877 123.531L126.857 123.555C126.569 123.925 126.286 124.3 126.002 124.674C126.335 125.156 126.62 125.669 126.853 126.207C127.098 126.723 127.314 127.259 127.511 127.783C127.905 128.906 128.21 130.057 128.425 131.227C128.425 131.259 128.382 131.274 128.374 131.227C128.14 130.074 127.805 128.944 127.373 127.85C127.161 127.291 126.916 126.743 126.668 126.195C126.42 125.647 126.16 125.222 125.947 124.717C125.703 125.045 125.454 125.376 125.214 125.707C125.143 125.801 125.076 125.9 125.009 125.998C125.009 126.018 125.009 126.045 124.985 126.049C124.229 127.101 123.512 128.181 122.814 129.273C122.856 129.347 122.887 129.427 122.909 129.509C122.952 129.643 122.996 129.777 123.035 129.903C123.113 130.173 123.178 130.446 123.228 130.723C123.271 130.979 123.311 131.243 123.334 131.511C123.341 131.809 123.363 132.106 123.401 132.401C123.401 132.445 123.338 132.449 123.346 132.401C123.366 132.124 123.346 131.845 123.287 131.574C123.248 131.29 123.193 131.006 123.13 130.727C123.066 130.447 122.999 130.222 122.925 129.974C122.889 129.852 122.85 129.726 122.806 129.604C122.763 129.481 122.751 129.47 122.728 129.403C122.401 129.915 122.077 130.427 121.758 130.947C121.128 131.976 120.501 133.004 119.867 134.033C119.864 134.046 119.856 134.057 119.844 134.064C119.833 134.071 119.819 134.073 119.806 134.07C119.793 134.067 119.781 134.059 119.774 134.047C119.767 134.036 119.765 134.022 119.768 134.009Z" fill="#263238"/>
<path d="M136.716 148.119C136.744 147.079 136.909 146.027 137.023 144.995C137.138 143.962 137.252 142.914 137.362 141.874C137.579 139.868 137.697 137.819 138.15 135.853C138.499 134.143 139.351 132.576 140.597 131.353C141.244 130.707 142.092 130.302 143.001 130.206C143.914 130.181 144.811 130.458 145.55 130.994C146.392 131.617 147.117 132.383 147.694 133.256C148.317 134.12 148.877 135.027 149.369 135.971C149.369 136.007 149.329 136.03 149.31 135.995C148.382 134.419 147.153 133.041 145.692 131.94C145.042 131.406 144.248 131.076 143.411 130.991C143.002 130.983 142.596 131.058 142.217 131.209C141.837 131.361 141.492 131.586 141.2 131.873C139.987 132.929 139.281 134.482 138.864 136.007C138.367 137.811 138.209 139.715 137.961 141.567C137.811 142.666 137.674 143.769 137.528 144.873C137.382 145.976 137.291 147.091 137.059 148.171C137.042 148.206 137.015 148.234 136.98 148.253C136.946 148.271 136.907 148.278 136.869 148.272C136.83 148.266 136.795 148.248 136.767 148.221C136.74 148.193 136.722 148.158 136.716 148.119Z" fill="#263238"/>
<path d="M141.839 140.034C142.16 140.47 142.54 140.858 142.969 141.188C142.8 140.176 142.575 138.367 143.103 137.409C143.891 135.916 144.845 136.661 144.368 137.957C143.893 139.128 143.634 140.375 143.604 141.638C144.687 142.315 145.847 142.863 147.06 143.269C146.932 142.684 146.893 142.084 146.945 141.488C147.107 139.892 148.328 139.912 148.009 141.582C147.891 142.224 147.835 142.876 147.844 143.529C149.607 144.073 151.409 144.48 153.234 144.746C154.166 143.537 154.917 142.199 155.464 140.775C154.164 140.451 151.524 140.381 151.591 139.447C151.666 138.198 154.211 139.159 155.705 140.065C156.045 138.979 156.197 137.842 156.154 136.704C154.985 136.379 153.784 136.181 152.572 136.113C149.897 135.881 150.027 134.364 151.965 134.399C153.396 134.427 155.204 135.301 156.063 135.758C155.504 132.118 152.73 129.789 150.503 129.698C146.764 129.548 148.112 134.202 148.112 134.202C148.112 134.202 145.574 132.421 143.182 132.468C140.79 132.515 139.281 136.476 141.839 140.034ZM151.827 133.304C151.745 132.78 153.404 132.653 153.502 133.327C153.601 134.08 151.91 133.836 151.827 133.304ZM154.515 138.765C154.479 138.422 155.2 138.371 155.362 138.793C155.472 139.096 154.542 139.096 154.515 138.765ZM145.546 139.096C146.11 139.175 146.433 141.192 145.46 141.153C144.707 141.109 145.054 139.017 145.546 139.096Z" fill="#0062FF"/>
<path d="M146.311 141.322C146.405 141.07 146.488 140.818 146.567 140.562C146.496 140.818 146.429 141.078 146.381 141.35C146.38 141.355 146.377 141.359 146.374 141.362C146.37 141.366 146.366 141.369 146.361 141.371C146.357 141.373 146.352 141.374 146.347 141.374C146.342 141.374 146.337 141.373 146.332 141.372C146.328 141.37 146.323 141.367 146.32 141.364C146.316 141.36 146.313 141.356 146.311 141.351C146.309 141.347 146.308 141.342 146.308 141.337C146.308 141.332 146.309 141.327 146.311 141.322Z" fill="#263238"/>
<path d="M147.3 138.083C147.473 137.567 147.67 137.055 147.871 136.546C147.977 136.278 148.092 136.007 148.21 135.758C148.293 135.521 148.404 135.295 148.541 135.085C148.426 134.873 148.325 134.655 148.237 134.43C148.237 134.411 148.257 134.391 148.273 134.411C148.55 134.765 148.794 135.143 149.002 135.542C149.108 135.715 149.207 135.896 149.305 136.074C149.517 136.092 149.728 136.125 149.936 136.172C150.16 136.212 150.385 136.259 150.606 136.31C150.826 136.361 151.051 136.409 151.272 136.464C151.492 136.519 151.713 136.59 151.938 136.621C151.989 136.621 151.965 136.712 151.918 136.692C151.69 136.612 151.455 136.551 151.216 136.511C151.004 136.464 150.787 136.424 150.57 136.397C150.353 136.369 150.137 136.338 149.916 136.314L149.424 136.275C149.51 136.432 149.605 136.586 149.692 136.743C149.703 136.771 149.716 136.797 149.731 136.822C149.912 136.82 150.092 136.841 150.267 136.885C150.46 136.921 150.661 136.956 150.846 137C151.24 137.086 151.634 137.177 152.008 137.283C152.82 137.512 153.616 137.768 154.416 138.028C154.459 138.028 154.416 138.111 154.388 138.095C153.594 137.83 152.787 137.606 151.969 137.425C151.575 137.338 151.205 137.252 150.822 137.173L150.243 137.051C150.093 137.026 149.944 136.992 149.798 136.948C150.192 137.709 150.586 138.485 150.952 139.273C151.741 140.987 152.383 142.757 153.049 144.518C153.049 144.561 152.997 144.589 152.982 144.545C152.339 142.796 151.594 141.085 150.751 139.423C150.602 139.12 150.448 138.82 150.298 138.513C150.298 138.576 150.271 138.639 150.259 138.702C150.22 138.907 150.184 139.116 150.149 139.324C150.078 139.742 150.007 140.16 149.944 140.577C149.766 141.434 149.665 142.304 149.644 143.178C149.644 143.233 149.561 143.229 149.569 143.178C149.636 142.764 149.636 142.331 149.664 141.913C149.692 141.496 149.723 141.035 149.774 140.601C149.825 140.168 149.877 139.762 149.948 139.344C149.983 139.135 150.019 138.926 150.058 138.718C150.067 138.561 150.106 138.407 150.172 138.264C149.956 137.827 149.739 137.386 149.514 136.948C149.29 136.511 149.097 136.125 148.884 135.719C148.793 135.546 148.695 135.372 148.6 135.195C148.531 135.41 148.448 135.621 148.352 135.825L148.064 136.535C147.847 137.055 147.65 137.583 147.449 138.111C147.166 138.859 146.854 139.624 146.622 140.404C146.85 139.616 147.044 138.836 147.3 138.083Z" fill="#263238"/>
<path d="M146.567 140.562C146.567 140.499 146.602 140.44 146.622 140.381C146.602 140.44 146.587 140.499 146.567 140.562Z" fill="#263238"/>
<path d="M130.462 146.094L130.726 151.662L131.4 166.013H146.208L146.886 151.662L147.146 146.094H130.462Z" fill="#37474F"/>
<path d="M130.462 146.094L130.726 151.662H146.886L147.146 146.094H130.462Z" fill="#263238"/>
<path d="M129.406 148.344H148.198V143.84H129.406V148.344Z" fill="#37474F"/>
<path d="M145.011 166.013H142.41V168.369H145.011V166.013Z" fill="#37474F"/>
<path d="M145.011 166.013H142.41V167.191H145.011V166.013Z" fill="#263238"/>
<path d="M135.199 166.013H132.602V168.369H135.199V166.013Z" fill="#37474F"/>
<path d="M135.199 166.013H132.602V167.191H135.199V166.013Z" fill="#263238"/>
<path d="M0 168.428L20.624 168.334L41.248 168.298L82.5 168.231L123.752 168.298L144.376 168.334L165 168.428L144.376 168.527L123.752 168.558L82.5 168.625L41.248 168.558L20.624 168.527L0 168.428Z" fill="#263238"/>
<path d="M82.5908 117.065C82.1573 117.065 81.7042 117.065 81.251 117.038V116.742C81.7081 116.762 82.1692 116.77 82.6065 116.77H82.8193V117.065H82.579H82.5908ZM84.8092 116.994L84.7895 116.699C85.3136 116.663 85.8377 116.616 86.3657 116.553L86.4011 116.849C85.8692 116.908 85.3372 116.959 84.8092 116.994ZM79.2927 116.912C78.7804 116.864 78.2485 116.809 77.7165 116.742L77.752 116.447C78.28 116.514 78.8041 116.573 79.3281 116.616L79.2927 116.912ZM88.3556 116.541L88.2965 116.254C88.8127 116.151 89.3249 116.037 89.8253 115.907L89.9002 116.194C89.384 116.325 88.8639 116.443 88.3438 116.541H88.3556ZM75.7463 116.447C75.2301 116.356 74.7061 116.258 74.1938 116.151L74.2529 115.863C74.7652 115.97 75.2853 116.068 75.7975 116.155L75.7463 116.447ZM72.2551 115.71C71.7389 115.584 71.2267 115.446 70.7263 115.316L70.8051 115.032C71.3016 115.174 71.8138 115.312 72.3261 115.426L72.2551 115.71ZM91.7719 115.615L91.6734 115.335C92.1699 115.162 92.6585 114.969 93.1313 114.764L93.2495 115.032C92.7846 115.241 92.2881 115.454 91.7837 115.615H91.7719ZM68.8349 114.717C67.8931 114.406 67.3454 114.181 67.3375 114.181L67.4518 113.905C67.4518 113.905 67.9956 114.126 68.9294 114.437L68.8349 114.717ZM95.0267 114.153L94.8809 113.893C95.334 113.641 95.7832 113.365 96.2167 113.078L96.3782 113.326C95.9527 113.617 95.5035 113.878 95.0385 114.153H95.0267ZM97.982 112.163L97.8007 111.931C98.2184 111.608 98.6282 111.277 99.0183 110.942L99.2114 111.167C98.8291 111.513 98.4154 111.84 97.9938 112.163H97.982ZM100.669 109.831L100.464 109.618C100.835 109.252 101.201 108.873 101.552 108.491L101.769 108.692C101.414 109.078 101.059 109.46 100.681 109.831H100.669ZM103.053 107.183L102.821 107.002C103.148 106.608 103.463 106.166 103.759 105.745L104.003 105.914C103.711 106.344 103.384 106.785 103.065 107.179L103.053 107.183ZM105.079 104.255L104.826 104.101C105.098 103.652 105.354 103.191 105.595 102.734L105.855 102.872C105.626 103.333 105.354 103.798 105.09 104.255H105.079ZM106.706 101.083L106.438 100.965C106.639 100.496 106.832 100.003 107.017 99.5109L107.297 99.6133C107.124 100.114 106.931 100.606 106.718 101.083H106.706ZM107.908 97.7298L107.624 97.6471C107.77 97.1506 107.9 96.6383 108.018 96.13L108.306 96.197C108.199 96.7092 108.065 97.2254 107.92 97.7219L107.908 97.7298ZM108.672 94.2504L108.381 94.2032C108.459 93.6909 108.523 93.1668 108.574 92.6506L108.865 92.6782C108.83 93.2023 108.763 93.7303 108.684 94.2504H108.672ZM108.987 90.7041H108.692C108.692 90.4755 108.692 90.247 108.692 90.0185C108.692 89.7229 108.692 89.4274 108.692 89.1358H108.987C108.987 89.4313 108.987 89.7269 108.987 90.0263C109.007 90.2352 109.003 90.4677 108.999 90.7001L108.987 90.7041ZM110.473 90.3613C110.26 90.3613 110.051 90.3613 109.839 90.3613V90.0657C110.357 90.0953 110.877 90.0953 111.395 90.0657L111.415 90.3613C111.127 90.3455 110.804 90.3573 110.477 90.3573L110.473 90.3613ZM107.864 90.1249C107.342 90.0302 106.825 89.9079 106.316 89.7584L106.399 89.4747C106.898 89.6211 107.404 89.7408 107.916 89.8333L107.864 90.1249ZM113.401 90.0579L113.342 89.7702C113.851 89.6684 114.353 89.5369 114.847 89.3762L114.937 89.6559C114.437 89.818 113.928 89.9508 113.413 90.0539L113.401 90.0579ZM104.464 89.0531C103.98 88.8342 103.509 88.5882 103.053 88.3162L103.203 88.064C103.65 88.3287 104.112 88.5681 104.586 88.7812L104.464 89.0531ZM116.786 88.8679L116.655 88.6039C117.119 88.3666 117.569 88.1035 118.003 87.8158L118.165 88.0601C117.719 88.358 117.258 88.6303 116.782 88.8757L116.786 88.8679ZM101.418 87.1853C101.158 86.9765 100.898 86.7519 100.65 86.5194C100.508 86.3854 100.37 86.2514 100.256 86.1254L100.464 85.9165C100.594 86.0505 100.728 86.1805 100.858 86.3105C101.103 86.5391 101.355 86.7558 101.611 86.9647L101.418 87.1853ZM108.566 87.1617C108.507 86.6376 108.432 86.1175 108.345 85.6131L108.637 85.5619C108.727 86.0741 108.802 86.6021 108.857 87.138L108.566 87.1617ZM119.749 86.8583L119.552 86.6376C119.942 86.2936 120.313 85.9279 120.663 85.5422L120.88 85.7431C120.522 86.1382 120.144 86.5131 119.745 86.8661L119.749 86.8583ZM98.9868 84.561C98.6917 84.1174 98.4484 83.6415 98.2617 83.1425L98.5376 83.044C98.7149 83.5262 98.9448 83.9873 99.2232 84.4192L98.9868 84.561ZM122.121 84.167L121.876 83.9975C122.101 83.6823 122.314 83.3474 122.515 83.0124C122.582 82.9021 122.649 82.7918 122.712 82.6775L122.968 82.8233C122.901 82.9376 122.838 83.0518 122.771 83.1622C122.562 83.5365 122.341 83.8714 122.117 84.1946L122.121 84.167ZM107.935 83.6823C107.794 83.1622 107.636 82.6617 107.463 82.1928L107.742 82.0904C107.916 82.5672 108.077 83.0755 108.219 83.6035L107.935 83.6823ZM98.2341 81.1723H97.9386C97.957 80.6301 98.0745 80.0959 98.2854 79.5961L98.5573 79.7104C98.3634 80.1746 98.2539 80.6696 98.2341 81.1723ZM123.847 81.0935L123.579 80.9792C123.776 80.5142 123.973 80.0217 124.142 79.5213L124.422 79.6158C124.241 80.1084 124.048 80.6049 123.843 81.0738L123.847 81.0935ZM106.655 80.463C106.411 80.0083 106.126 79.5769 105.804 79.1745L106.032 78.9854C106.367 79.4026 106.662 79.8498 106.915 80.3212L106.655 80.463ZM99.6921 78.1973L99.5108 77.9687C99.9368 77.6254 100.427 77.3709 100.953 77.2201L101.032 77.5038C100.544 77.6378 100.087 77.8668 99.6881 78.1776L99.6921 78.1973ZM104.342 77.953C103.898 77.7025 103.416 77.5256 102.915 77.4289L102.97 77.1373C103.503 77.2423 104.015 77.4312 104.488 77.6968L104.342 77.953ZM124.997 77.7205L124.71 77.6456C124.836 77.1767 124.958 76.6763 125.084 76.1207L125.372 76.1837C125.242 76.7275 125.119 77.2319 124.993 77.7008L124.997 77.7205ZM125.785 74.253L125.494 74.1938L125.797 72.6492L126.085 72.7044L125.785 74.253ZM126.487 70.7815L126.199 70.7145C126.325 70.1471 126.451 69.6427 126.593 69.1777L126.877 69.2565C126.723 69.6979 126.597 70.1983 126.471 70.7618L126.487 70.7815ZM127.472 67.3967L127.196 67.2942C127.372 66.7857 127.579 66.2883 127.815 65.8047L128.079 65.9387C127.845 66.4077 127.637 66.8891 127.456 67.3809L127.472 67.3967ZM129.115 64.3192L128.875 64.1419C129.189 63.7143 129.533 63.3088 129.903 62.9283L130.112 63.1332C129.749 63.4988 129.41 63.8885 129.099 64.2995L129.115 64.3192ZM131.578 61.8644L131.4 61.624C131.83 61.3124 132.276 61.0243 132.736 60.761L132.882 61.0211C132.425 61.2749 131.984 61.5565 131.562 61.8644H131.578ZM134.632 60.166L134.513 59.8942C134.927 59.7208 135.364 59.5553 135.818 59.4016L135.912 59.6814C135.451 59.8114 135.022 59.973 134.616 60.1463L134.632 60.166Z" fill="#263238"/>
<path d="M134.99 53.3687L131.976 61.6514L138.308 56.7062L162.51 47.9309L134.99 53.3687Z" fill="#0062FF"/>
<path opacity="0.1" d="M134.99 53.3687L131.976 61.6514L138.308 56.7062L162.51 47.9309L134.99 53.3687Z" fill="black"/>
<path d="M139.12 58.6371L131.976 61.6515L138.308 56.7063L139.12 58.6371Z" fill="#263238"/>
<path d="M138.308 56.7062L162.51 47.9309L142.658 67.3019L138.308 56.7062Z" fill="#0062FF"/>
<path d="M134.99 53.3688L124.934 46.875L162.51 47.931L134.99 53.3688Z" fill="#0062FF"/>
<path d="M16.8612 168.365L82.5002 168.649C98.4549 156.122 100.102 137.559 88.7182 126.309C81.8343 119.5 73.0866 120.872 64.7685 119.788H64.7448C61.8447 119.394 58.9997 118.736 56.2966 117.309C47.7184 112.786 42.8993 102.111 35.6687 93.1311C34.7703 92.0081 33.8285 90.9127 32.8434 89.8567C26.9092 83.5205 15.1116 83.3156 8.92127 92.2209C-6.78513 114.851 0.402144 148.553 16.8612 168.365Z" fill="#0062FF"/>
<path opacity="0.1" d="M15.4032 116.576C17.1212 143.509 48.2267 153.561 67.6489 145.495C84.5413 138.477 79.013 122.467 64.7684 119.788H64.7448C61.8447 119.394 58.9997 118.736 56.2966 117.309C47.7184 112.786 42.8993 102.111 35.6686 93.131C24.9074 87.5435 14.1423 96.8586 15.4032 116.576Z" fill="black"/>
<path d="M77.2005 172.589C76.1879 172.219 53.3099 153.935 52.8804 152.686C52.7149 152.213 55.1816 148.746 58.2827 144.597C58.9526 143.706 59.65 142.788 60.3632 141.862C64.9853 135.837 70.033 129.556 70.033 129.556L85.3729 141.74L75.2816 153.715L73.0671 156.343C73.0671 156.343 78.6939 167.262 79.021 168.68C79.348 170.099 78.2132 172.983 77.2005 172.589Z" fill="#D3766A"/>
<path d="M77.2002 172.589C76.1875 172.195 53.3135 153.935 52.8801 152.686C52.7422 152.292 54.3498 149.928 56.6274 146.827C59.9531 150.803 71.5496 162.64 74.7177 164.224C76.7273 165.229 76.3293 163.254 75.5767 161.292C77.1214 164.377 78.8433 167.912 79.0206 168.676C79.3477 170.115 78.2129 172.983 77.2002 172.589Z" fill="#263238"/>
<path d="M100.862 118.326C99.8142 126.293 80.1753 149.297 77.9056 151.937L77.3776 152.536L61.1432 140.053L61.3284 139.813L75.636 121.08C75.636 121.08 51.9936 134.872 40.1448 128.618C34.8214 125.805 30.881 120.804 30.881 120.804L46.3273 112.569C46.3273 112.569 50.6026 113.952 53.3333 113.554C62.7509 112.175 83.8517 104.164 88.8599 104.365C95.3261 104.629 101.828 111.012 100.862 118.326Z" fill="#37474F"/>
<path d="M80.7742 114.118C80.2424 114.716 79.7488 115.348 79.2965 116.009C78.7922 116.675 78.276 117.329 77.7716 117.979V117.999C77.8622 117.802 77.9489 117.605 78.0435 117.416C78.3627 116.754 78.6188 116.072 78.9931 115.446C78.9955 115.438 78.9952 115.43 78.9924 115.422C78.9896 115.415 78.9843 115.409 78.9775 115.405C78.9707 115.401 78.9627 115.399 78.9548 115.4C78.9469 115.401 78.9396 115.404 78.934 115.41C78.54 116.037 78.0987 116.632 77.7519 117.29C77.5943 117.601 77.4485 117.916 77.3106 118.235C77.2357 118.409 77.1569 118.586 77.0899 118.763C77.053 118.847 77.0214 118.932 76.9954 119.02C76.7707 119.327 76.5461 119.634 76.3294 119.949C75.8487 120.647 75.4231 121.384 74.9345 122.077C74.9069 122.113 74.966 122.148 74.9936 122.113C75.4862 121.463 76.0418 120.856 76.5422 120.21C77.0426 119.563 77.5391 118.878 78.0159 118.196C78.4927 117.514 78.938 116.86 79.4069 116.194C79.9168 115.539 80.3866 114.853 80.8136 114.141C80.8254 114.126 80.7939 114.098 80.7742 114.118Z" fill="#263238"/>
<path d="M28.3157 91.1371C28.099 95.8892 27.0429 101.559 29.0565 106.059C30.6326 109.582 33.9623 111.97 37.3983 113.483C44.9638 116.828 55.5517 117.266 60.8515 109.755C62.9675 106.757 63.33 100.507 59.8191 98.2219C58.0184 97.0398 55.8787 96.7798 53.8376 96.2281C52.5668 95.9323 51.3792 95.3534 50.3633 94.5347C49.3474 93.716 48.5294 92.6785 47.9703 91.4996C45.5391 86.6254 46.0238 83.0593 45.5628 77.7871C45.5525 77.2632 45.4329 76.7473 45.2117 76.2723C44.9905 75.7973 44.6725 75.3738 44.2782 75.0288C43.4122 74.1765 42.3307 73.5759 41.1495 73.2911C40.1421 72.8519 39.0411 72.6704 37.946 72.7631C35.6133 73.0074 33.3712 75.1588 31.5626 76.4986C29.7539 77.8383 28.8949 79.2568 28.7531 81.5698C28.56 84.7497 28.4615 87.9454 28.3157 91.1371Z" fill="#263238"/>
<path d="M27.729 93.3872C28.2097 89.0528 28.7693 84.7184 29.3052 80.3839C29.3052 80.3603 29.3485 80.3603 29.3446 80.3839C29.0096 83.9618 28.722 87.5436 28.3398 91.1176C27.9457 94.6245 27.3389 98.2103 27.2719 101.729C27.1222 109.645 35.263 112.865 41.9932 112.478C42.3006 112.478 42.2927 112.951 41.9932 112.959C36.0826 113.113 29.0096 111.091 27.2207 104.657C26.2277 101.126 27.335 96.9336 27.729 93.3872Z" fill="#263238"/>
<path d="M45.181 77.3694C45.181 77.2867 45.3071 77.2906 45.311 77.3694C45.5081 81.7039 45.3111 86.8264 47.8093 90.6052C49.0302 92.4729 50.7888 93.9265 52.853 94.7741C54.4882 95.4401 56.222 95.4992 57.9282 95.8341C64.6269 97.1463 64.6781 106.17 59.8196 109.689C59.7171 109.763 59.5871 109.59 59.6856 109.511C63.1059 106.788 64.2328 101.835 61.447 98.2023C59.2088 95.2864 54.9138 96.2321 51.8639 94.6559C45.5435 91.3775 45.0667 83.6898 45.181 77.3694Z" fill="#263238"/>
<path d="M38.3399 96.2755C41.2322 100.429 51.1107 111.84 57.967 113.4C61.7459 114.263 79.9977 116.817 82.4999 114.539C85.4316 111.872 84.0761 101.824 81.7433 101.733C74.6309 101.453 61.474 102.844 58.1877 102.127C56.7022 101.796 48.8214 96.7129 40.4047 92.6464C37.2208 91.1018 36.4722 93.5961 38.3399 96.2755Z" fill="#D3766A"/>
<path d="M45.4013 106.229L48.1596 96.0668C48.1596 96.0668 43.5296 93.4976 40.7674 92.4377C37.1107 91.0349 35.7316 92.0436 37.9737 96.3071C39.4789 99.1482 45.4013 106.229 45.4013 106.229Z" fill="#EBEBEB"/>
<path d="M44.7195 104.936C45.0189 103.431 45.3381 101.93 45.7243 100.444C45.9174 99.7036 46.1183 98.9628 46.339 98.2299C46.5596 97.497 46.8473 96.7799 47.0482 96.043C47.0482 96.0036 47.1271 96.0233 47.1113 96.043C46.8709 96.768 46.7173 97.5325 46.5202 98.2693C46.3232 99.0062 46.1262 99.747 45.9213 100.488C45.5273 101.969 45.1332 103.451 44.7786 104.936C44.7707 105 44.7116 104.98 44.7195 104.936Z" fill="#263238"/>
<path d="M47.73 97.6665L45.4012 106.233C45.4012 106.233 39.4906 99.1402 37.9775 96.3071C37.2879 94.9949 36.9372 93.9901 36.8978 93.2729L47.73 97.6665Z" fill="#263238"/>
<path d="M23.4734 124.402C24.3836 124.698 50.205 117.223 50.205 117.223L47.1552 108.258C47.1552 108.258 48.6643 105.374 47.9432 102.6C47.0094 98.8959 40.1491 92.8041 39.6132 92.4455C37.4697 91.023 35.4404 91.023 33.6396 91.9884C26.1804 95.9564 23.4734 124.402 23.4734 124.402Z" fill="#EBEBEB"/>
<path d="M43.1751 95.6725C43.841 96.4606 44.5542 97.1856 45.2398 97.9422C44.9207 97.3787 44.6015 96.8113 44.2626 96.2557C44.2626 96.2557 44.2626 96.2321 44.2626 96.2557C44.7649 96.9067 45.203 97.6048 45.5708 98.3402C46.0864 98.9135 46.5616 99.5218 46.9933 100.161C47.5282 100.919 47.9281 101.764 48.1754 102.659C48.3895 103.563 48.4163 104.502 48.2542 105.417C48.057 106.471 47.7656 107.505 47.3834 108.506C47.3361 108.64 47.147 108.554 47.1824 108.424C47.6671 106.674 48.2188 104.826 47.8287 102.998C47.4386 101.169 46.3116 99.6641 45.2122 98.2259C44.5654 97.3473 43.864 96.5103 43.112 95.7198C43.0963 95.6843 43.1435 95.641 43.1751 95.6725Z" fill="#263238"/>
<path d="M38.8718 107.612C39.9823 107.398 41.1071 107.266 42.2369 107.218C42.7965 107.218 43.356 107.218 43.9156 107.246C44.1953 107.246 44.4751 107.246 44.7549 107.246C45.0473 107.255 45.3397 107.228 45.6257 107.167C45.6493 107.167 45.6611 107.198 45.6257 107.206C45.3677 107.293 45.1045 107.362 44.8376 107.415C44.5767 107.456 44.3135 107.48 44.0495 107.486C43.4782 107.486 42.9108 107.486 42.3394 107.51C41.1927 107.533 40.0421 107.557 38.8994 107.667C38.8285 107.711 38.8206 107.62 38.8718 107.612Z" fill="#263238"/>
<path d="M36.4647 109.322C37.3303 108.979 38.2143 108.684 39.1126 108.439C39.5658 108.317 40.0189 108.227 40.476 108.144L41.138 108.038C41.3783 108.002 41.6266 107.998 41.8669 107.959C41.8945 107.959 41.9064 107.994 41.8669 107.998C41.6384 108.041 41.4177 108.124 41.1971 108.179L40.5193 108.349C40.0701 108.463 39.6209 108.585 39.1678 108.696C38.2654 108.916 37.367 109.145 36.4725 109.397C36.4643 109.395 36.4568 109.391 36.4511 109.385C36.4454 109.379 36.4419 109.371 36.441 109.362C36.4401 109.354 36.442 109.346 36.4462 109.338C36.4505 109.331 36.4569 109.325 36.4647 109.322Z" fill="#263238"/>
<path d="M35.2585 92.4926C35.3609 92.9615 37.5479 96.039 39.6836 95.9523C40.3771 95.9286 40.4165 92.1301 40.4165 92.1301L40.4835 91.8503L41.4213 87.9296L36.1805 84.4976C36.1805 84.4976 35.2152 92.2917 35.2585 92.4926Z" fill="#D3766A"/>
<path d="M41.4217 87.9258L40.4839 91.8662C39.4281 91.4521 38.4709 90.8212 37.674 90.0142C36.8772 89.2072 36.2585 88.242 35.8579 87.181C36.0195 85.8295 36.1574 84.7065 36.1771 84.541C36.1779 84.5331 36.1779 84.5252 36.1771 84.5173L36.843 84.9114L41.4217 87.9258Z" fill="#263238"/>
<path d="M46.5006 80.7071C48.2461 87.5633 44.3373 89.3759 42.8596 89.77C41.516 90.1088 36.9057 91.0979 34.4626 84.4623C32.0196 77.8266 34.6557 74.8477 37.6819 73.9059C40.7082 72.9642 44.7589 73.8547 46.5006 80.7071Z" fill="#D3766A"/>
<path d="M45.1845 79.8559C45.019 79.8559 44.8614 79.8559 44.6959 79.8559C44.5228 79.875 44.3482 79.8362 44.1994 79.7456C44.1586 79.7077 44.1314 79.6574 44.1222 79.6026C44.1129 79.5477 44.1221 79.4913 44.1482 79.4421C44.2126 79.3523 44.3 79.2814 44.4012 79.237C44.5024 79.1926 44.6138 79.1764 44.7235 79.19C44.952 79.182 45.1753 79.2593 45.35 79.4067C45.3839 79.443 45.4071 79.4879 45.4169 79.5366C45.4267 79.5853 45.4229 79.6357 45.4057 79.6823C45.3885 79.7289 45.3588 79.7698 45.3197 79.8004C45.2807 79.8311 45.2339 79.8503 45.1845 79.8559Z" fill="#263238"/>
<path d="M40.5747 81.298C40.7362 81.2467 40.8742 81.1758 41.0278 81.1128C41.1953 81.0681 41.3443 80.9716 41.4534 80.8369C41.4784 80.7872 41.4865 80.7307 41.4766 80.676C41.4666 80.6213 41.4391 80.5713 41.3982 80.5335C41.3058 80.4719 41.1987 80.4362 41.0878 80.4299C40.977 80.4237 40.8665 80.4472 40.7678 80.4981C40.5517 80.5704 40.3704 80.7207 40.2595 80.9197C40.2357 80.9664 40.2262 81.0191 40.232 81.0711C40.2379 81.1232 40.2589 81.1724 40.2925 81.2127C40.326 81.2529 40.3706 81.2825 40.4208 81.2976C40.4709 81.3128 40.5245 81.3129 40.5747 81.298Z" fill="#263238"/>
<path d="M41.7486 82.1609C41.7486 82.1609 41.7171 82.1885 41.721 82.2082C41.8353 82.6771 41.8826 83.2327 41.4885 83.477C41.4885 83.477 41.4885 83.5085 41.4885 83.5006C42.0047 83.3233 41.9141 82.5865 41.7486 82.1609Z" fill="#263238"/>
<path d="M41.2283 81.7552C40.4402 81.8537 40.7082 83.3865 41.4253 83.2959C42.1425 83.2053 41.8745 81.6724 41.2283 81.7552Z" fill="#263238"/>
<path d="M40.9407 81.8852C40.8185 81.9916 40.7122 82.1689 40.5467 82.2122C40.3812 82.2556 40.196 82.1216 40.0462 81.9876C40.0462 81.9876 40.0226 81.9876 40.0226 82.0113C40.0699 82.3068 40.2314 82.5866 40.5545 82.5787C40.8777 82.5708 41.0116 82.2792 41.0353 81.9719C41.0471 81.9128 40.988 81.8418 40.9407 81.8852Z" fill="#263238"/>
<path d="M44.4754 81.5659C44.4754 81.5659 44.5148 81.5856 44.5187 81.6053C44.5778 82.0821 44.7276 82.618 45.1807 82.7086V82.7362C44.6448 82.7244 44.4557 82.0112 44.4754 81.5659Z" fill="#263238"/>
<path d="M44.8221 80.9828C45.5786 80.8055 45.8781 82.3304 45.1767 82.4959C44.4753 82.6614 44.1877 81.1326 44.8221 80.9828Z" fill="#263238"/>
<path d="M45.1611 81.0223C45.2951 81.0774 45.4448 81.2035 45.5906 81.1838C45.7364 81.1641 45.8507 80.9711 45.9256 80.7898C45.9256 80.7898 45.9492 80.7898 45.9531 80.7898C46.0162 81.0774 45.9807 81.4006 45.7128 81.5109C45.4448 81.6212 45.2281 81.4006 45.102 81.1168C45.0666 81.0893 45.106 80.9986 45.1611 81.0223Z" fill="#263238"/>
<path d="M42.3831 86.3773C42.5092 86.4797 42.6353 86.6216 42.8126 86.6216C42.9909 86.6018 43.1629 86.544 43.317 86.4522C43.317 86.4522 43.3485 86.4522 43.3406 86.4758C43.2803 86.5764 43.1939 86.6589 43.0905 86.7144C42.9872 86.7699 42.8707 86.7963 42.7535 86.791C42.6566 86.7709 42.5677 86.7228 42.4977 86.6528C42.4277 86.5828 42.3796 86.4939 42.3595 86.397C42.3279 86.3733 42.3634 86.3615 42.3831 86.3773Z" fill="#263238"/>
<path d="M44.1328 84.2021C44.2341 84.5417 44.3182 84.8863 44.385 85.2344C44.385 85.266 44.3101 85.2935 44.1998 85.3172C43.9199 85.4124 43.6191 85.4285 43.3306 85.3639C43.0421 85.2992 42.777 85.1563 42.5645 84.9507C42.5587 84.9445 42.5552 84.9365 42.5548 84.928C42.5545 84.9195 42.5571 84.9111 42.5624 84.9045C42.5676 84.8978 42.5751 84.8932 42.5835 84.8916C42.5918 84.8899 42.6005 84.8913 42.6078 84.8956C43.0781 85.126 43.6108 85.1966 44.1249 85.0965C44.1249 85.002 43.7309 83.9144 43.79 83.9144C44.0543 83.9019 44.3191 83.9231 44.578 83.9774C44.184 82.5116 43.5811 81.1207 43.2226 79.643C43.2216 79.6331 43.2239 79.623 43.229 79.6144C43.2341 79.6058 43.2418 79.5991 43.251 79.5951C43.2602 79.5912 43.2704 79.5903 43.2802 79.5925C43.2899 79.5947 43.2987 79.6 43.3053 79.6076C44.0107 81.0769 44.5665 82.6135 44.9642 84.1942C45.0036 84.3912 44.2786 84.2415 44.1328 84.2021Z" fill="#263238"/>
<path d="M44.1639 85.1871C44.0281 85.4982 43.8152 85.7694 43.5452 85.9752C43.3953 86.0841 43.2144 86.1421 43.029 86.1407C42.635 86.1407 42.5286 85.79 42.5247 85.4748C42.5243 85.3077 42.5428 85.1412 42.5798 84.9783C43.0722 85.2145 43.6271 85.2876 44.1639 85.1871Z" fill="#263238"/>
<path d="M43.5452 85.9713C43.3953 86.0802 43.2144 86.1382 43.029 86.1368C42.635 86.1368 42.5286 85.7861 42.5247 85.4708C42.7262 85.4283 42.9362 85.4544 43.1212 85.5451C43.3062 85.6358 43.4555 85.7858 43.5452 85.9713Z" fill="#FF9CBD"/>
<path d="M34.9511 84.9587C35.6919 84.7144 37.0908 82.1295 36.1805 78.4925C36.1805 78.4925 36.7716 81.8143 36.6534 82.3541C36.5352 82.8939 37.4415 80.904 36.744 77.9606C37.8385 78.3724 38.9863 78.6258 40.1524 78.7132C41.634 78.7132 42.4773 78.4925 42.5482 78.3664C42.6191 78.2403 40.4204 78.1418 39.7032 77.6571C39.7032 77.6571 43.8249 78.3782 45.5508 78.0512C45.7517 78.0157 44.9085 73.9335 41.8389 72.9287C38.7694 71.9239 35.1206 74.8713 34.297 76.2465C34.297 76.2465 33.0361 76.7824 32.1337 79.0954C31.2314 81.4084 34.1591 85.2227 34.9511 84.9587Z" fill="#263238"/>
<path d="M35.6846 84.6946C35.6846 84.6946 33.8051 82.7678 32.9264 83.4731C32.0477 84.1784 33.6908 87.1456 34.9202 87.3859C35.0758 87.4299 35.2388 87.4415 35.3991 87.42C35.5594 87.3985 35.7135 87.3443 35.852 87.2609C35.9905 87.1774 36.1104 87.0664 36.2043 86.9347C36.2982 86.8031 36.3641 86.6535 36.3979 86.4954L35.6846 84.6946Z" fill="#D3766A"/>
<path d="M33.4031 84.3242C33.3834 84.3242 33.3834 84.3518 33.4031 84.3558C34.27 84.5489 34.8216 85.2345 35.2511 85.9674C35.189 85.895 35.1119 85.8368 35.0252 85.797C34.9385 85.7571 34.8442 85.7365 34.7487 85.7365C34.6533 85.7365 34.559 85.7571 34.4723 85.797C34.3855 85.8368 34.3085 85.895 34.2463 85.9674C34.2266 85.9674 34.2463 86.0147 34.2778 86.0068C34.413 85.9371 34.5666 85.9113 34.7171 85.9332C34.8676 85.9552 35.0075 86.0236 35.1172 86.1289C35.3009 86.2973 35.466 86.4849 35.6097 86.6885C35.6609 86.7555 35.7831 86.6885 35.7437 86.6136C35.5782 85.5536 34.534 84.2336 33.4031 84.3242Z" fill="#263238"/>
<path d="M29.9509 98.3048C27.8743 110.083 29.8839 118.905 31.8817 120.001C37.2682 122.94 50.2045 116.974 53.8533 115.788C55.3113 115.312 48.6126 104.026 47.0995 104.728C43.5531 106.367 38.5843 109.149 38.3833 109.125C37.9893 109.086 37.5165 106.079 35.4596 97.304C33.7928 90.2349 30.802 93.4897 29.9509 98.3048Z" fill="#D3766A"/>
<path d="M65.6117 99.1441C65.9821 100.626 62.2545 101.225 62.2545 101.225C62.8742 101.447 63.3967 101.879 63.7321 102.446C64.2759 103.471 62.9046 104.767 62.9046 104.767C63.4989 105.131 63.9699 105.665 64.2562 106.3C64.6778 107.332 63.4681 108.841 63.4681 108.841C63.8295 109.477 63.9499 110.221 63.807 110.938C63.3499 112.837 60.4379 113.586 58.7278 114.405C56.8955 115.284 53.8614 115.607 52.4862 116.226L46.5244 105.303C46.5244 105.303 52.2853 99.2032 55.5873 98.2575C57.4117 97.7216 65.0482 96.8823 65.6117 99.1441Z" fill="#D3766A"/>
<path d="M62.2147 101.193C60.142 101.102 58.0497 101.508 56.0361 101.922C56.0292 101.924 56.0231 101.929 56.0189 101.935C56.0146 101.941 56.0123 101.948 56.0123 101.955C56.0123 101.963 56.0146 101.97 56.0189 101.976C56.0231 101.982 56.0292 101.987 56.0361 101.989C58.0339 101.555 60.1972 101.646 62.2068 101.291C62.2178 101.289 62.2279 101.284 62.2354 101.275C62.2429 101.267 62.2474 101.256 62.2483 101.245C62.2492 101.234 62.2464 101.223 62.2403 101.213C62.2343 101.204 62.2252 101.197 62.2147 101.193Z" fill="#263238"/>
<path d="M62.7981 104.633C62.3253 104.658 61.8577 104.744 61.4072 104.889C60.9225 105.015 60.4418 105.149 59.9571 105.283C58.9957 105.567 58.0382 105.87 57.0925 106.201C57.0491 106.201 57.0609 106.284 57.0925 106.272C58.05 105.992 59.0154 105.728 59.9886 105.484C60.4733 105.362 60.9619 105.248 61.4466 105.133C61.9154 105.052 62.3739 104.92 62.8139 104.739C62.8206 104.732 62.8255 104.723 62.8284 104.713C62.8312 104.703 62.8319 104.693 62.8304 104.683C62.8289 104.673 62.8253 104.663 62.8197 104.654C62.8141 104.646 62.8068 104.639 62.7981 104.633Z" fill="#263238"/>
<path d="M63.4444 108.853C63.0164 108.88 62.5964 108.982 62.2032 109.153L60.891 109.547C60.0163 109.815 59.1415 110.079 58.2588 110.315C58.2155 110.315 58.2273 110.398 58.2588 110.386C59.1572 110.15 60.0596 109.929 60.958 109.685C61.3954 109.566 61.8367 109.444 62.2741 109.318C62.6915 109.248 63.0922 109.101 63.4562 108.885C63.4575 108.882 63.4583 108.879 63.4584 108.876C63.4585 108.873 63.458 108.869 63.4569 108.867C63.4558 108.864 63.4541 108.861 63.452 108.859C63.4498 108.856 63.4473 108.855 63.4444 108.853Z" fill="#263238"/>
<path d="M38.3676 109.125C39.7782 108.314 41.2086 107.549 42.6429 106.761L44.814 105.634L45.9055 105.086C46.2767 104.893 46.6596 104.723 47.0522 104.578L46.9813 104.617C47.9427 103.684 48.9081 102.758 49.9287 101.887C50.433 101.449 50.9453 101.016 51.4772 100.61C52.0015 100.19 52.5604 99.8161 53.148 99.491C52.5943 99.8603 52.0676 100.268 51.5718 100.712C51.0674 101.146 50.567 101.587 50.0784 102.044C49.1091 102.959 48.1358 103.873 47.198 104.803L47.1743 104.822L47.127 104.842C46.7921 104.964 46.406 105.165 46.0474 105.331L44.948 105.867L42.769 106.958C41.311 107.703 39.857 108.432 38.3676 109.125Z" fill="#263238"/>
<path d="M27.9497 108.55L37.3633 103.821C37.3633 103.821 36.1812 98.6594 35.1291 95.8933C33.7342 92.2366 32.0517 91.8977 30.4006 96.3977C29.2737 99.4121 27.9497 108.55 27.9497 108.55Z" fill="#EBEBEB"/>
<path d="M28.4574 107.178C29.7774 106.39 31.1092 105.634 32.4726 104.932C33.1543 104.582 33.8439 104.239 34.5334 103.908C35.223 103.577 35.952 103.321 36.6376 102.982C36.6731 102.982 36.7007 103.025 36.6613 103.041C35.9638 103.341 35.2939 103.742 34.6123 104.085C33.9306 104.428 33.241 104.771 32.5593 105.122C31.1959 105.819 29.8286 106.513 28.481 107.241C28.4455 107.257 28.4219 107.198 28.4574 107.178Z" fill="#263238"/>
<path d="M29.0763 107.967C28.7137 108.187 28.3473 108.392 27.9848 108.601L27.8547 108.676L27.8744 108.522C28.0163 107.218 28.2015 105.925 28.43 104.637C28.6586 103.348 28.9226 102.064 29.2733 100.803C29.1945 101.453 29.1078 102.099 29.0093 102.746C28.9108 103.392 28.8201 104.038 28.7137 104.684C28.5088 105.973 28.2764 107.261 28.0242 108.546L27.9138 108.463C28.3 108.313 28.6822 108.14 29.0763 107.967Z" fill="#263238"/>
<path d="M28.7574 102.115C28.7751 102.417 28.7751 102.72 28.7574 103.022C28.7483 103.323 28.7233 103.625 28.6825 103.924C28.6325 103.321 28.6511 102.714 28.7377 102.115H28.7574Z" fill="#263238"/>
<path d="M36.2161 104.42C36.5787 104.201 36.9522 103.999 37.3352 103.817C37.1815 103.211 37.0199 102.612 36.8741 102.005C36.7993 101.701 36.7323 101.398 36.6692 101.095C36.6062 100.791 36.4998 100.378 36.4368 100.082C36.4368 100.035 36.488 100.019 36.4998 100.062C36.622 100.456 36.6968 100.728 36.7993 101.055C36.9017 101.382 36.9727 101.646 37.0515 101.942C37.213 102.568 37.414 103.23 37.548 103.865C37.1234 104.092 36.6837 104.289 36.2319 104.456C36.2274 104.457 36.2226 104.456 36.2185 104.454C36.2143 104.452 36.211 104.449 36.2091 104.445C36.2072 104.44 36.2069 104.436 36.2082 104.431C36.2094 104.427 36.2123 104.423 36.2161 104.42Z" fill="#263238"/>
<path d="M36.9693 100.48C37.0323 100.852 37.0323 101.231 36.9693 101.603C36.901 101.232 36.901 100.851 36.9693 100.48Z" fill="#263238"/>
<path d="M73.9853 115.213H46.5839V116.443H73.9853V115.213Z" fill="#C7C7C7"/>
<path d="M52.4467 115.213L51.5089 116.443H73.9849V115.213H52.4467Z" fill="#A6A6A6"/>
<path d="M53.621 116.438H80.325L82.5474 98.3047H55.8434L53.621 116.438Z" fill="#C7C7C7"/>
<path d="M66.459 107.372C66.452 107.584 66.4883 107.797 66.5657 107.995C66.643 108.194 66.7598 108.374 66.9089 108.526C67.0581 108.679 67.2365 108.799 67.4335 108.88C67.6304 108.961 67.8418 109.002 68.0548 108.999C68.4884 108.997 68.9041 108.826 69.2132 108.522C69.5224 108.218 69.7005 107.805 69.7098 107.372C69.7161 107.161 69.68 106.951 69.6037 106.754C69.5273 106.557 69.4122 106.378 69.2652 106.226C69.1182 106.075 68.9423 105.955 68.7479 105.872C68.5536 105.79 68.3447 105.748 68.1336 105.748C67.697 105.744 67.2763 105.912 66.9628 106.216C66.6493 106.52 66.4683 106.935 66.459 107.372Z" fill="white"/>
<path d="M82.3306 100.058C83.3354 101.611 85.8218 103.427 86.1646 104.759C86.2613 105.085 86.2503 105.433 86.1331 105.752C86.016 106.071 85.799 106.343 85.5144 106.528C85.5144 106.528 86.9527 107.025 87.063 108.286C87.1221 108.932 86.1331 109.594 86.1331 109.594C86.1331 109.594 87.2719 110.039 87.3152 111.17C87.3389 112.069 86.3459 112.597 86.3459 112.597C86.3459 112.597 87.2364 113.534 86.9685 114.457C86.4207 116.328 78.7764 117.337 77.2239 114.677C76.4988 113.44 78.3823 113.294 78.3823 113.294C78.3823 113.294 75.6241 112.849 75.3758 111.277C75.1276 109.704 77.5824 109.665 77.5824 109.665C77.5824 109.665 74.9187 109.212 74.8242 107.557C74.7257 105.835 77.1884 106.217 77.1884 106.217C77.1884 106.217 75.3364 105.287 75.5571 104.003C75.9157 101.887 80.2856 104.137 81.9051 103.518L82.3306 100.058Z" fill="#D3766A"/>
<path d="M86.1887 112.695C86.1939 112.695 86.1989 112.697 86.2026 112.701C86.2063 112.705 86.2084 112.71 86.2084 112.715C86.2084 112.72 86.2063 112.725 86.2026 112.729C86.1989 112.732 86.1939 112.734 86.1887 112.734C83.6627 113.726 80.8948 113.925 78.2528 113.306C78.17 113.282 78.1661 113.14 78.2528 113.144C80.9058 113.382 83.5794 113.231 86.1887 112.695Z" fill="#263238"/>
<path d="M86.173 109.606C86.2045 109.606 86.2124 109.645 86.173 109.657C83.659 110.619 80.3136 110.839 77.4765 109.744C77.378 109.704 77.3307 109.574 77.445 109.61C79.3994 110.205 83.7378 110.142 86.173 109.606Z" fill="#263238"/>
<path d="M76.9838 106.063C79.7421 107.025 82.5398 107.005 85.4044 106.572C85.4399 106.572 85.4438 106.619 85.4044 106.635C84.0608 107.226 82.2048 107.312 80.7548 107.257C79.4093 107.233 78.094 106.855 76.9405 106.162C76.9129 106.134 76.9326 106.044 76.9838 106.063Z" fill="#263238"/>
<path d="M136.504 151.882C136.129 152.895 117.775 175.714 116.526 176.139C116.053 176.305 112.585 173.826 108.452 170.71C107.565 170.036 106.651 169.338 105.725 168.621C99.7161 163.979 93.4509 158.912 93.4509 158.912L105.666 143.615L117.606 153.742L120.226 155.965C120.226 155.965 131.16 150.373 132.583 150.054C134.005 149.735 136.878 150.874 136.504 151.882Z" fill="#D3766A"/>
<path d="M136.507 151.886C136.113 152.895 117.774 175.714 116.525 176.143C116.112 176.289 113.401 174.41 109.969 171.852C113.472 169.303 126.766 157.328 128.551 154.085C129.489 152.379 128.118 152.391 126.439 152.864C129.198 151.512 131.936 150.204 132.602 150.05C134.021 149.735 136.877 150.874 136.507 151.886Z" fill="#263238"/>
<path d="M116.983 151.433L104.251 168.613L61.3011 138.8L57.144 135.943C57.144 135.943 55.9619 136.732 54.2045 137.709C51.7535 139.064 48.1599 140.782 44.98 141.255C39.6447 142.043 30.7394 141.96 26.2434 135.947C22.4567 130.888 24.5136 124.284 24.5136 124.284L30.369 121.758C30.369 121.758 44.2274 110.213 53.2233 109.866C57.0337 109.712 62.5857 112.624 67.7279 115.623C72.8701 118.621 116.983 151.433 116.983 151.433Z" fill="#37474F"/>
<path d="M57.1439 135.943C57.1439 135.943 55.9617 136.732 54.2043 137.709C51.0835 133.973 44.4755 127.184 44.2745 126.944L57.1439 135.943Z" fill="#263238"/>
<path d="M35.4481 117.877C34.6206 118.452 33.8168 119.059 33.0011 119.654C32.1854 120.249 31.3658 120.781 30.6014 121.415C29.837 122.05 29.0883 122.751 28.3554 123.445C28.0047 123.779 27.654 124.118 27.3112 124.465C26.9506 124.799 26.6173 125.162 26.3143 125.549C26.2867 125.584 26.3418 125.627 26.3734 125.608C26.7628 125.33 27.134 125.027 27.4845 124.701C27.8786 124.374 28.2726 124.043 28.643 123.716C29.3878 123.082 30.1483 122.467 30.889 121.833C31.6298 121.198 32.3115 120.513 33.0444 119.863C33.7774 119.213 34.6521 118.539 35.4638 117.892C35.4796 117.892 35.4638 117.865 35.4481 117.877Z" fill="#263238"/>
<path d="M113.996 150.818C113.168 151.709 112.42 152.67 111.632 153.612C110.844 154.554 110.091 155.507 109.327 156.457C107.802 158.368 106.261 160.263 104.76 162.194C103.936 163.254 103.12 164.322 102.356 165.421C102.321 165.473 102.399 165.528 102.439 165.484C104.082 163.676 105.591 161.749 107.108 159.846C108.625 157.943 110.154 156.039 111.659 154.089C112.479 153.033 113.326 151.981 114.079 150.873C114.098 150.83 114.023 150.779 113.996 150.818Z" fill="#263238"/>
<path d="M78.7328 150.996C76.5971 149.309 74.3787 147.717 72.1642 146.137C69.9497 144.557 67.7549 142.985 65.5167 141.464C64.8744 141.027 64.2243 140.597 63.578 140.168C62.9318 139.738 62.258 139.34 61.6276 138.895C61.5882 138.871 61.5566 138.93 61.5921 138.958C62.1753 139.376 62.723 139.841 63.2943 140.274C63.8657 140.707 64.3819 141.105 64.9296 141.511C66.0053 142.299 67.0889 143.087 68.1725 143.876C70.3687 145.452 72.5818 147.015 74.8121 148.565C76.0809 149.431 77.3418 150.306 78.6382 151.134C78.717 151.173 78.8077 151.051 78.7328 150.996Z" fill="#263238"/>
<path d="M92.4733 133.268C90.5031 131.633 88.3832 130.159 86.3106 128.646C84.2379 127.133 82.1337 125.568 80.0296 124.051C77.9254 122.534 75.8606 121.033 73.7722 119.528C71.7508 118.066 69.7373 116.58 67.6016 115.284C66.4195 114.579 65.2373 113.921 64.004 113.314C62.8095 112.702 61.5651 112.193 60.2843 111.793C60.2754 111.789 60.2654 111.789 60.2565 111.793C60.2477 111.797 60.2406 111.804 60.237 111.812C60.2333 111.821 60.2333 111.831 60.237 111.84C60.2407 111.849 60.2478 111.856 60.2567 111.86C61.3127 112.447 62.416 112.939 63.4839 113.507C64.5517 114.074 65.5723 114.657 66.5928 115.276C68.7128 116.565 70.7145 118.034 72.7241 119.469C76.9009 122.471 81.0698 125.49 85.2782 128.453C87.6424 130.108 89.9357 131.857 92.3709 133.382C92.4576 133.445 92.5443 133.327 92.4733 133.268Z" fill="#263238"/>
<path d="M86.7057 91.8022C87.8041 85.1019 83.2628 78.7797 76.5625 77.6813C69.8621 76.5828 63.5399 81.1241 62.4415 87.8245C61.3431 94.5248 65.8844 100.847 72.5847 101.945C79.2851 103.044 85.6072 98.5026 86.7057 91.8022Z" fill="#0062FF"/>
<path d="M80.9235 97.6272H68.2157V81.7041H77.6529L80.9235 84.817V97.6272Z" fill="white"/>
<path d="M77.6532 81.7041L80.9237 84.817H77.6532V81.7041Z" fill="#EBEBEB"/>
<path d="M69.4571 84.8643H76.5222V84.4466H69.4571V84.8643Z" fill="#DBDBDB"/>
<path d="M69.4571 85.9202H76.5222V85.5025H69.4571V85.9202Z" fill="#DBDBDB"/>
<path d="M69.4571 86.9763H76.5222V86.5586H69.4571V86.9763Z" fill="#DBDBDB"/>
<path d="M69.4529 88.0361H79.8082V87.6185H69.4529V88.0361Z" fill="#DBDBDB"/>
<path d="M69.4529 89.0923H79.8082V88.6746H69.4529V89.0923Z" fill="#DBDBDB"/>
<path d="M69.4529 90.1523H79.8082V89.7347H69.4529V90.1523Z" fill="#DBDBDB"/>
<path d="M69.4529 91.2083H79.8082V90.7906H69.4529V91.2083Z" fill="#DBDBDB"/>
<path d="M69.4529 92.2644H79.8082V91.8467H69.4529V92.2644Z" fill="#DBDBDB"/>
<path d="M69.4529 93.3242H79.8082V92.9065H69.4529V93.3242Z" fill="#DBDBDB"/>
<path d="M69.4529 94.3804H79.8082V93.9627H69.4529V94.3804Z" fill="#DBDBDB"/>
<path d="M69.4529 95.4402H79.8082V95.0225H69.4529V95.4402Z" fill="#DBDBDB"/>
<path d="M69.4529 96.4963H79.8082V96.0787H69.4529V96.4963Z" fill="#DBDBDB"/>
</svg>
