<svg width="320" height="270" viewBox="0 0 320 270" fill="none" xmlns="http://www.w3.org/2000/svg">
<rect x="32" y="39" width="238" height="231" rx="17" fill="#E5EEF7"/>
<path d="M107.359 127.14L112.957 133.15C112.957 133.15 136.383 172.436 139.717 174.96C143.051 177.484 148.649 180.384 152.012 179.936C155.375 179.487 164.263 173.427 164.263 173.427L156.496 149.56L147.658 147.195L123.791 119.539L107.359 127.14Z" fill="#FFBE9D"/>
<path d="M111.843 131.877C109.847 129.476 104.72 124.551 104.72 124.551L102.55 122.244C102.456 122.435 102.376 122.633 102.311 122.837C102.222 123.232 102.032 123.598 101.762 123.9C101.448 124.117 101.076 124.233 100.695 124.233C100.314 124.233 99.9415 124.117 99.6281 123.9C98.94 123.517 98.3642 122.961 97.9582 122.286C97.5521 121.611 97.33 120.842 97.3139 120.055C97.2978 119.267 97.4883 118.49 97.8664 117.799C98.2445 117.108 98.7971 116.529 99.469 116.118C99.5856 115.694 99.7873 115.297 100.062 114.954C101.892 112.596 106.195 112.914 106.195 112.914L105.551 111.996C105.551 111.996 102.622 110.173 97.7477 113.261C97.0219 113.736 96.1463 113.927 95.2887 113.796C95.0255 113.768 94.7717 113.682 94.5454 113.545C94.3191 113.407 94.126 113.222 93.9797 113.001C93.2565 111.793 93.9435 110.976 96.9594 109.009C99.9753 107.041 103.534 106.116 105.79 106.969C106.852 107.334 107.886 107.774 108.885 108.285C108.885 108.285 103.562 99.6934 103.244 99.1365C102.333 97.5237 102.29 95.7662 103.309 95.0502C103.96 94.5946 105.117 94.4933 106.238 96.3376C107.2 97.9359 119.199 113.023 119.199 113.023L124.117 120.002L111.843 131.877Z" fill="#FFBE9D"/>
<path d="M122.345 120.248C121.622 121.043 120.262 120.971 119.286 120.443C118.309 119.915 117.535 119.119 116.595 118.548C113.796 116.834 109.963 117.536 107.244 115.691C106.868 115.431 106.484 114.968 106.651 114.57C106.817 114.173 107.323 114.1 107.75 114.086L118.599 113.637" fill="#FFBE9D"/>
<path d="M118.584 113.637C118.196 113.56 117.799 113.535 117.405 113.565C116.646 113.565 115.554 113.565 114.194 113.601L109.442 113.724L108.068 113.775C107.791 113.74 107.509 113.76 107.24 113.835C106.971 113.909 106.719 114.036 106.499 114.209C106.38 114.348 106.306 114.519 106.285 114.701C106.265 114.883 106.299 115.066 106.383 115.228C106.523 115.496 106.727 115.724 106.976 115.894C107.427 116.193 107.913 116.436 108.423 116.617C110.44 117.398 112.451 117.427 114.151 117.861C114.955 118.031 115.728 118.323 116.443 118.729C117.101 119.112 117.658 119.604 118.222 119.995C118.647 120.36 119.147 120.629 119.687 120.781C120.227 120.934 120.793 120.966 121.347 120.877C122.135 120.667 122.374 120.219 122.345 120.219C122.023 120.421 121.668 120.563 121.296 120.638C120.784 120.677 120.27 120.609 119.785 120.439C119.301 120.268 118.857 119.999 118.483 119.647C117.916 119.164 117.324 118.71 116.711 118.288C115.958 117.838 115.141 117.507 114.288 117.304C112.523 116.834 110.513 116.769 108.654 116.046C108.202 115.866 107.77 115.638 107.367 115.366C106.998 115.113 106.802 114.737 106.983 114.578C107.164 114.418 107.656 114.353 108.119 114.339L109.493 114.267L114.245 114.006C115.597 113.927 116.689 113.847 117.441 113.775C117.827 113.782 118.211 113.736 118.584 113.637Z" fill="#EB996E"/>
<path d="M106.347 112.856C105.925 112.306 105.387 111.856 104.77 111.54C104.084 111.253 103.324 111.193 102.6 111.366C101.704 111.591 100.85 111.957 100.069 112.451C99.257 112.956 98.397 113.38 97.5017 113.717C96.7451 113.992 95.9291 114.062 95.1367 113.919C94.8646 113.865 94.6089 113.748 94.3904 113.577C94.1718 113.407 93.9964 113.187 93.8783 112.936C93.7826 112.761 93.7375 112.563 93.7481 112.364C93.7481 112.364 93.8349 112.56 94.0157 112.863C94.1435 113.071 94.3154 113.248 94.5191 113.381C94.7228 113.515 94.9534 113.602 95.1946 113.637C95.9288 113.725 96.6733 113.633 97.3643 113.37C98.2275 113.02 99.0578 112.594 99.8449 112.097C100.667 111.586 101.569 111.217 102.514 111.005C103.306 110.829 104.135 110.928 104.864 111.287C105.347 111.528 105.762 111.886 106.072 112.328C106.203 112.481 106.297 112.661 106.347 112.856Z" fill="#EB996E"/>
<path d="M102.912 98.4783C103.316 99.0159 103.674 99.5869 103.982 100.185L106.448 104.336L108.98 108.459C109.368 109.009 109.707 109.592 109.992 110.202C109.522 109.72 109.105 109.189 108.748 108.618C108.025 107.605 107.085 106.166 106.108 104.546C105.132 102.926 104.3 101.422 103.736 100.315C103.388 99.7387 103.111 99.1218 102.912 98.4783Z" fill="#EB996E"/>
<path d="M105.566 115.988C105.364 116.049 105.155 116.085 104.944 116.096C104.679 116.112 104.42 116.185 104.185 116.31C103.951 116.435 103.746 116.608 103.584 116.819C103.497 116.97 103.45 117.141 103.45 117.315C103.45 117.489 103.497 117.66 103.584 117.81C103.794 118.194 104.048 118.551 104.344 118.873C104.717 119.266 104.938 119.779 104.966 120.32C104.936 120.614 104.839 120.898 104.682 121.148C104.525 121.399 104.313 121.611 104.062 121.766C103.808 121.921 103.526 122.021 103.233 122.062C102.939 122.104 102.64 122.084 102.355 122.005C101.83 121.875 101.354 121.593 100.988 121.195C100.445 120.518 100.003 119.765 99.6787 118.96C99.4444 118.426 99.3002 117.857 99.252 117.275C99.2276 117.061 99.2601 116.844 99.3461 116.646C99.3797 116.849 99.4014 117.055 99.4111 117.261C99.5118 117.813 99.6896 118.349 99.9391 118.852C100.285 119.607 100.73 120.312 101.263 120.949C101.581 121.301 102.006 121.539 102.472 121.627C102.938 121.714 103.42 121.646 103.845 121.434C104.047 121.309 104.217 121.138 104.343 120.936C104.468 120.734 104.545 120.506 104.568 120.269C104.554 119.81 104.372 119.372 104.054 119.04C103.748 118.686 103.488 118.295 103.28 117.875C103.181 117.675 103.136 117.452 103.15 117.228C103.164 117.005 103.237 116.789 103.36 116.603C103.549 116.366 103.791 116.178 104.066 116.052C104.341 115.927 104.642 115.867 104.944 115.879C105.156 115.875 105.367 115.912 105.566 115.988Z" fill="#EB996E"/>
<path d="M102.34 121.745C102.34 121.745 102.514 121.889 102.586 122.258C102.631 122.526 102.613 122.802 102.533 123.062C102.452 123.322 102.312 123.559 102.123 123.755C101.832 124.037 101.471 124.237 101.078 124.336C100.684 124.435 100.272 124.429 99.8814 124.319C98.939 124.045 98.1402 123.415 97.6539 122.562C97.1504 121.738 96.9177 120.777 96.9885 119.814C97.0571 119.034 97.3289 118.286 97.7768 117.644C98.0757 117.217 98.4509 116.85 98.8834 116.559C99.1871 116.357 99.3824 116.291 99.3896 116.313C98.8644 116.743 98.4019 117.245 98.0155 117.803C97.5874 118.486 97.3604 119.275 97.3604 120.081C97.3604 120.887 97.5874 121.677 98.0155 122.359C98.4531 123.124 99.1594 123.699 99.9971 123.972C100.331 124.074 100.685 124.09 101.027 124.018C101.368 123.946 101.686 123.788 101.95 123.56C102.12 123.396 102.253 123.198 102.341 122.978C102.428 122.759 102.467 122.523 102.456 122.287C102.413 121.94 102.311 121.759 102.34 121.745Z" fill="#EB996E"/>
<path d="M111.793 123.9C111.793 123.864 112.046 123.618 112.624 123.408C113.421 123.132 114.287 123.132 115.083 123.408L114.845 123.669C114.646 123.259 114.474 122.836 114.331 122.403C113.767 120.908 113.625 119.287 113.919 117.716C114.022 119.259 114.289 120.786 114.715 122.273C114.859 122.714 115.026 123.133 115.192 123.509L115.373 123.922L114.953 123.77C114.227 123.508 113.44 123.466 112.69 123.647C112.133 123.77 111.822 123.943 111.793 123.9Z" fill="#EB996E"/>
<path d="M102.673 109.305C102.735 109.585 102.731 109.876 102.659 110.154C102.587 110.432 102.451 110.689 102.261 110.904C101.704 111.699 100.915 111.931 100.887 111.829C100.858 111.728 101.451 111.366 101.928 110.672C102.405 109.978 102.579 109.298 102.673 109.305Z" fill="#EB996E"/>
<path d="M93.4011 247.001C93.4011 247.001 83.9991 249.041 75.559 247.775C67.6685 246.596 49.9928 247.818 50 258.218C50 269.79 73.5701 266.955 82.7624 265.118C91.9546 263.281 101.111 261.61 101.111 261.61L93.4011 247.001Z" fill="#455A64"/>
<path d="M72.2393 261.871C71.721 260.569 71.3404 259.216 71.1038 257.835C70.7205 256.485 70.4781 255.098 70.3806 253.698C70.5036 253.698 71.017 255.477 71.5233 257.734C72.0296 259.99 72.3623 261.842 72.2393 261.871Z" fill="#263238"/>
<path d="M75.458 262.023C75.335 262.023 74.9806 260.186 74.6624 257.886C74.3442 255.586 74.1923 253.698 74.3153 253.684C74.4382 253.669 74.7926 255.521 75.1108 257.821C75.429 260.121 75.5809 262.008 75.458 262.023Z" fill="#263238"/>
<path d="M78.5604 260.808C78.4375 260.808 78.141 259.209 77.9023 257.191C77.6636 255.174 77.5624 253.575 77.6853 253.525C77.8083 253.474 78.1048 255.13 78.3507 257.141C78.5966 259.151 78.6906 260.793 78.5604 260.808Z" fill="#263238"/>
<path d="M83.4421 259.592C83.3336 259.643 82.661 258.291 82.2271 256.49C81.8925 255.417 81.7745 254.289 81.8799 253.17C82.0101 253.17 82.2343 254.617 82.6683 256.381C82.9942 257.434 83.2527 258.507 83.4421 259.592Z" fill="#263238"/>
<path d="M84.4835 255.354C84.8888 255.262 85.3064 255.235 85.7203 255.275C86.8494 255.31 87.9655 255.528 89.0254 255.919C89.3921 256.047 89.7362 256.233 90.0452 256.468C90.2309 256.6 90.3849 256.772 90.4962 256.971C90.6075 257.17 90.6733 257.391 90.6889 257.618C90.6669 257.871 90.5906 258.116 90.4651 258.336C90.3396 258.556 90.1679 258.747 89.9617 258.895C89.7556 259.042 89.5199 259.144 89.2709 259.192C89.0219 259.24 88.7655 259.234 88.5192 259.173C87.5192 258.893 86.6491 258.271 86.0602 257.416C85.0849 256.152 84.5269 254.616 84.4634 253.021C84.3999 251.425 84.8341 249.85 85.7058 248.513C85.8893 248.29 86.1453 248.139 86.429 248.086C86.5693 248.067 86.7119 248.08 86.8468 248.122C86.9818 248.165 87.1058 248.236 87.2101 248.332C87.5452 248.675 87.7543 249.121 87.8032 249.598C87.9074 250.384 87.8657 251.184 87.6802 251.955C87.4172 253.07 86.8689 254.096 86.0891 254.935C85.8768 255.156 85.647 255.359 85.402 255.542C85.2285 255.665 85.1345 255.723 85.12 255.709C85.1055 255.694 85.4527 255.412 85.9589 254.819C86.6674 253.972 87.1633 252.968 87.4054 251.89C87.5589 251.155 87.581 250.398 87.4705 249.655C87.4255 249.271 87.2552 248.913 86.9859 248.636C86.9192 248.578 86.8406 248.536 86.7557 248.512C86.6708 248.488 86.5816 248.483 86.4946 248.498C86.4076 248.512 86.3249 248.546 86.2523 248.596C86.1797 248.646 86.119 248.711 86.0746 248.788C85.5407 249.611 85.184 250.536 85.0271 251.505C84.8702 252.474 84.9166 253.464 85.1634 254.414C85.4018 255.406 85.8452 256.338 86.4652 257.148C86.9815 257.919 87.7477 258.489 88.6349 258.761C88.8208 258.807 89.0143 258.814 89.203 258.781C89.3917 258.748 89.5714 258.675 89.7303 258.568C89.8892 258.461 90.0238 258.322 90.1254 258.16C90.227 257.997 90.2933 257.815 90.32 257.625C90.3094 257.451 90.2605 257.28 90.1768 257.127C90.0931 256.973 89.9765 256.839 89.8354 256.736C89.5564 256.518 89.2469 256.343 88.9169 256.215C87.8912 255.807 86.8122 255.549 85.713 255.448C84.9247 255.376 84.4835 255.391 84.4835 255.354Z" fill="#263238"/>
<path d="M100.178 260.084C100.101 260.116 100.021 260.14 99.939 260.157L99.2158 260.337L96.482 260.959C94.1026 261.48 90.6528 262.211 86.3568 263.042C82.0608 263.874 76.9548 264.807 71.2123 265.588C68.2058 266.077 65.154 266.227 62.1141 266.036C60.4934 265.934 58.8921 265.628 57.348 265.125C56.5539 264.866 55.7882 264.527 55.0626 264.113C54.2992 263.7 53.6178 263.151 53.052 262.493L53.0881 262.529C52.7685 262.241 52.4909 261.91 52.2636 261.545C51.8266 260.785 51.5579 259.939 51.4756 259.066C51.3932 258.192 51.4992 257.311 51.7863 256.483C52.3524 254.878 53.4104 253.494 54.8094 252.527C56.1213 251.597 57.571 250.88 59.1054 250.4C59.8287 250.183 60.588 249.93 61.333 249.757C62.0779 249.583 62.8156 249.409 63.5533 249.308C69.4621 248.375 74.8357 248.852 79.3053 248.852C81.54 248.896 83.5651 248.852 85.337 248.722C86.8512 248.62 88.358 248.429 89.85 248.151L91.4772 247.811L92.6489 247.478L93.3721 247.276C93.4536 247.247 93.5388 247.23 93.6252 247.225L93.3866 247.319L92.6633 247.565L91.5062 247.941L89.8789 248.325C88.3844 248.633 86.8724 248.851 85.3515 248.975C83.5723 249.106 81.5328 249.192 79.2908 249.171C74.8212 249.207 69.4476 248.773 63.6184 249.72C62.8951 249.822 62.1719 250.024 61.4487 250.169C60.7255 250.313 60.0022 250.595 59.279 250.805C57.7895 251.278 56.3819 251.978 55.106 252.881C53.7749 253.795 52.7633 255.102 52.213 256.62C51.945 257.388 51.845 258.204 51.9198 259.014C51.9947 259.824 52.2427 260.608 52.647 261.314C52.847 261.641 53.0903 261.941 53.3702 262.203C53.8988 262.807 54.5306 263.311 55.2361 263.693C55.9395 264.088 56.6779 264.418 57.442 264.677C58.9519 265.166 60.5162 265.467 62.0996 265.574C65.1099 265.766 68.1324 265.623 71.111 265.147C76.839 264.387 81.9595 263.483 86.2483 262.702C90.537 261.921 94.0013 261.256 96.3735 260.757L99.1218 260.214L99.845 260.084C99.9549 260.064 100.068 260.064 100.178 260.084Z" fill="#263238"/>
<path d="M65.7013 265.668C65.5666 264.872 65.4917 264.067 65.4771 263.259C65.3686 261.769 65.1878 259.723 64.8912 257.473C64.5947 255.224 64.2186 253.199 63.9293 251.738C63.7278 250.955 63.5899 250.157 63.5171 249.352C63.843 250.094 64.0855 250.87 64.2403 251.666C64.7137 253.56 65.0807 255.48 65.3396 257.416C65.5991 259.351 65.7512 261.3 65.7953 263.252C65.8508 264.058 65.8193 264.868 65.7013 265.668Z" fill="#263238"/>
<g opacity="0.4">
<path opacity="0.4" d="M90.501 247.515L96.4748 262.478L101.111 261.618L92.2295 247.008L90.501 247.515Z" fill="black"/>
</g>
<path d="M151.129 212.597L165.16 181.288L157.024 154.428C154.559 146.282 155.135 137.519 158.644 129.765L172.342 103.216L184.572 98.8762L213.269 95.0503C213.776 95.2166 215.222 95.3034 223.72 98.1313C230.864 100.505 236.914 105.369 240.767 111.836L217.58 179.466C217.58 179.466 233.31 213.877 231.321 229.651L151.129 212.597Z" fill="#8C8BC7"/>
<path d="M174.642 102.507C174.642 102.507 158.586 106.065 152.728 127.972L145.495 151.296L158.665 152.106L174.642 102.507Z" fill="#8C8BC7"/>
<path d="M157.508 152.865C157.449 152.762 157.401 152.653 157.364 152.54C157.284 152.323 157.147 152.005 157.016 151.578C156.659 150.374 156.431 149.135 156.337 147.882C156.131 143.719 156.981 139.572 158.81 135.826C159.331 134.766 159.906 133.733 160.531 132.73C161.11 131.754 161.667 130.807 162.159 129.888C163.05 128.272 163.791 126.577 164.372 124.826C164.863 123.328 165.218 122.099 165.478 121.253L165.782 120.276C165.818 120.163 165.862 120.052 165.912 119.944C165.91 120.065 165.888 120.184 165.847 120.298C165.782 120.558 165.702 120.884 165.608 121.289C165.384 122.142 165.059 123.386 164.596 124.905C164.04 126.685 163.313 128.407 162.426 130.047C161.934 130.973 161.385 131.928 160.806 132.94C160.228 133.953 159.649 134.936 159.128 136.021C157.329 139.724 156.46 143.811 156.597 147.926C156.669 149.165 156.857 150.395 157.161 151.6C157.299 152.015 157.415 152.437 157.508 152.865Z" fill="#263238"/>
<path d="M117.665 225.442C117.586 225.543 110.057 220.054 100.843 213.147C91.629 206.24 84.2086 200.628 84.2954 200.526C84.3822 200.425 91.8966 205.914 101.118 212.821C110.339 219.728 117.738 225.34 117.665 225.442Z" fill="#455A64"/>
<path d="M230.034 226.476L207.252 207.744C205.987 200.823 202.181 194.625 196.581 190.366C190.982 186.107 183.992 184.095 176.985 184.724C171.368 185.235 166.034 187.422 161.674 191.001L148.468 201.351C127.936 195.753 96.7281 187.002 80.6941 182.496C77.4544 181.58 74.0569 181.364 70.7274 181.863C67.3979 182.362 64.2127 183.564 61.3838 185.389L61.0801 185.584C56.9785 188.238 53.7964 192.094 51.9686 196.625C50.1408 201.156 49.7565 206.14 50.868 210.897C51.5804 213.959 52.8942 216.848 54.733 219.397C56.5717 221.946 58.8989 224.104 61.5791 225.745C69.6793 230.707 82.2273 238.366 93.0107 244.817L91.5643 245.938L101.096 261.618L120.754 255.564C134.018 253.676 162.029 250.031 162.029 250.031L154.022 245.309L155.852 244.745C171.112 257.763 189.765 263.722 212.857 253.64C224.241 248.303 231.358 235.429 230.034 226.476Z" fill="#263238"/>
<path d="M191.001 224.386C191.001 224.386 190.943 224.451 190.813 224.559L190.242 225.029C189.706 225.456 188.962 226.056 188.007 226.808C187.522 227.199 186.98 227.626 186.387 228.089C185.794 228.551 185.099 228.993 184.383 229.535L182.055 231.126C181.635 231.408 181.223 231.705 180.775 231.994L179.386 232.833C177.484 233.968 175.423 235.27 173.094 236.449C171.937 237.049 170.758 237.715 169.478 238.33L165.601 240.167C160.271 242.597 154.29 245.041 147.882 247.218C135.081 251.63 123.242 254.812 114.765 257.379C112.639 258.001 110.722 258.587 109.044 259.122C107.367 259.658 105.92 260.084 104.748 260.489L102.029 261.364L101.306 261.589C101.3 261.621 101.283 261.65 101.257 261.67C101.232 261.69 101.199 261.699 101.167 261.697C101.134 261.694 101.104 261.679 101.082 261.655C101.06 261.631 101.047 261.6 101.047 261.567C101.047 261.534 101.06 261.503 101.082 261.479C101.104 261.455 101.134 261.44 101.167 261.437C101.199 261.434 101.232 261.444 101.257 261.464C101.283 261.484 101.3 261.513 101.306 261.545L102.029 261.285L104.72 260.323C105.884 259.896 107.323 259.419 109.001 258.877C110.679 258.334 112.581 257.719 114.7 257.076C123.162 254.421 134.987 251.196 147.766 246.791C154.16 244.622 160.126 242.192 165.457 239.783L169.333 237.968C170.577 237.36 171.756 236.709 172.949 236.116C175.278 234.959 177.339 233.672 179.249 232.558L180.644 231.734C181.086 231.459 181.505 231.162 181.924 230.887L184.268 229.325C184.991 228.826 185.714 228.407 186.293 227.944L187.935 226.7L190.213 224.986L190.813 224.552C190.869 224.489 190.932 224.433 191.001 224.386Z" fill="#455A64"/>
<path d="M192.701 231.719C192.48 231.879 192.236 232.004 191.977 232.088C191.514 232.298 190.827 232.58 189.967 232.898C187.727 233.725 185.431 234.389 183.096 234.887C180.76 235.389 178.392 235.727 176.008 235.899C175.097 235.957 174.352 235.986 173.839 235.986C173.57 236.013 173.299 235.996 173.036 235.936C174.008 235.767 174.988 235.649 175.972 235.581C177.78 235.379 180.312 235.024 182.995 234.446C185.678 233.867 188.122 233.158 189.858 232.594C190.788 232.248 191.737 231.956 192.701 231.719Z" fill="#455A64"/>
<path d="M158.868 193.634C158.948 193.735 143.941 205.524 125.368 219.967C106.795 234.41 91.6582 246.003 91.5787 245.938C91.4991 245.873 106.506 234.048 125.093 219.605C143.68 205.162 158.796 193.54 158.868 193.634Z" fill="#455A64"/>
<path d="M212.821 244.224C212.778 244.066 212.761 243.902 212.77 243.739C212.77 243.363 212.77 242.9 212.734 242.343C212.734 241.128 212.669 239.371 212.561 237.208C212.019 225.911 209.929 214.741 206.348 204.012C205.625 201.951 205.075 200.295 204.649 199.159C204.461 198.638 204.301 198.197 204.178 197.843C204.115 197.692 204.069 197.534 204.041 197.373C204.041 197.373 204.135 197.517 204.272 197.807L204.829 199.087C205.314 200.208 205.95 201.85 206.681 203.896C210.469 214.596 212.572 225.82 212.915 237.165C212.98 239.335 212.98 241.099 212.915 242.314C212.915 242.871 212.872 243.334 212.857 243.71C212.864 243.882 212.852 244.054 212.821 244.224Z" fill="#455A64"/>
<path d="M154.955 243.985C155.025 244.027 155.09 244.075 155.151 244.13L155.693 244.593C156.163 244.99 156.821 245.62 157.733 246.365C160.306 248.456 163.063 250.31 165.97 251.905C170.296 254.24 174.918 255.977 179.712 257.068C180.384 257.249 181.071 257.372 181.773 257.488C182.474 257.604 183.176 257.748 183.892 257.857C185.338 258.009 186.785 258.255 188.304 258.291C191.408 258.493 194.525 258.401 197.612 258.016L199.969 257.683L202.276 257.213C203.775 256.901 205.255 256.505 206.71 256.027C209.474 255.139 212.14 253.968 214.665 252.534C218.961 250.135 222.642 246.773 225.42 242.712C227.281 239.97 228.626 236.911 229.39 233.686C229.643 232.544 229.781 231.64 229.853 231.025L229.94 230.302C229.945 230.221 229.96 230.141 229.983 230.063C229.997 230.142 229.997 230.223 229.983 230.302C229.983 230.49 229.983 230.721 229.983 231.025C229.914 231.929 229.788 232.827 229.607 233.715C228.913 236.992 227.603 240.106 225.745 242.893C222.965 247.039 219.249 250.473 214.897 252.917C212.355 254.377 209.67 255.572 206.883 256.483C205.414 256.967 203.92 257.371 202.407 257.69L200.078 258.168L197.698 258.5C194.58 258.891 191.432 258.98 188.296 258.768C186.778 258.725 185.295 258.479 183.841 258.32C183.118 258.211 182.395 258.066 181.671 257.936C180.973 257.827 180.28 257.682 179.596 257.502C174.767 256.386 170.118 254.601 165.782 252.201C162.889 250.573 160.162 248.667 157.639 246.509C156.742 245.743 156.105 245.063 155.65 244.665L155.143 244.166C155.073 244.114 155.01 244.053 154.955 243.985Z" fill="#455A64"/>
<path d="M165.731 248.628C161.775 246.524 157.335 247.768 153.552 249.041C151.035 249.894 148.417 251.21 145.864 250.487C144.013 249.966 142.639 248.469 141.221 247.167C138.359 244.537 134.999 242.507 131.34 241.195C127.681 239.883 123.796 239.317 119.915 239.53C117.698 239.632 115.604 240.579 114.064 242.177C110.18 246.379 113.109 251.854 116.581 255.39C122.778 261.67 130.953 265.619 139.724 266.572C146.956 267.295 156.901 266.326 164.234 263.187C168.755 261.249 171.076 255.918 168.704 251.615C168.023 250.353 166.99 249.316 165.731 248.628Z" fill="#455A64"/>
<g opacity="0.4">
<path opacity="0.4" d="M165.724 251.999C161.768 249.887 157.328 251.131 153.545 252.411C151.028 253.257 148.41 254.581 145.85 253.857C144.006 253.337 142.624 251.84 141.214 250.538C138.351 247.908 134.991 245.878 131.332 244.566C127.673 243.255 123.789 242.688 119.908 242.9C117.691 243.002 115.597 243.949 114.057 245.547C113.272 246.378 112.71 247.393 112.422 248.498C113.167 251.127 114.6 253.509 116.573 255.398C122.771 261.677 130.945 265.627 139.717 266.579C146.949 267.302 156.894 266.333 164.227 263.194C165.525 262.643 166.675 261.791 167.581 260.71C168.487 259.629 169.125 258.349 169.442 256.975C169.295 256.279 169.052 255.607 168.718 254.978C168.029 253.717 166.989 252.682 165.724 251.999Z" fill="black"/>
</g>
<path d="M169.471 256.996C169.296 256.162 168.967 255.367 168.502 254.653C167.935 253.833 167.216 253.131 166.382 252.585C165.302 251.847 164.063 251.371 162.766 251.196C159.83 250.849 156.431 252.085 152.641 253.105C150.775 253.604 148.736 254.356 146.501 254.082C145.383 253.937 144.307 253.563 143.34 252.982C142.38 252.381 141.473 251.698 140.628 250.943C136.159 246.764 130.499 244.082 124.435 243.269C122.847 243.038 121.235 243.038 119.647 243.269C118.343 243.463 117.087 243.9 115.944 244.557C115.094 245.077 114.331 245.726 113.681 246.48C113.16 247.155 112.677 247.857 112.234 248.585C112.545 247.775 112.984 247.02 113.536 246.35C114.175 245.547 114.942 244.856 115.807 244.303C116.967 243.581 118.257 243.09 119.604 242.857C121.228 242.624 122.876 242.624 124.5 242.857C126.363 243.084 128.199 243.494 129.982 244.079C131.95 244.73 133.852 245.568 135.66 246.582C136.62 247.12 137.543 247.721 138.422 248.383C139.297 249.07 140.129 249.829 140.99 250.552C141.81 251.29 142.691 251.957 143.622 252.548C144.527 253.091 145.534 253.441 146.58 253.575C148.649 253.85 150.63 253.141 152.525 252.65C156.286 251.666 159.758 250.436 162.817 250.834C164.005 251.004 165.143 251.424 166.156 252.066C167.17 252.708 168.036 253.558 168.697 254.559C169.044 255.106 169.289 255.711 169.42 256.345C169.465 256.559 169.482 256.778 169.471 256.996Z" fill="#263238"/>
<path d="M169.471 256.996C169.296 256.162 168.967 255.367 168.502 254.653C167.935 253.833 167.216 253.131 166.382 252.585C165.302 251.847 164.063 251.371 162.766 251.196C159.83 250.849 156.431 252.085 152.641 253.105C150.775 253.604 148.736 254.356 146.501 254.082C145.383 253.937 144.307 253.563 143.34 252.982C142.38 252.381 141.473 251.698 140.628 250.943C136.159 246.764 130.499 244.082 124.435 243.269C122.847 243.038 121.235 243.038 119.647 243.269C118.343 243.463 117.087 243.9 115.944 244.557C115.094 245.077 114.331 245.726 113.681 246.48C113.16 247.155 112.677 247.857 112.234 248.585C112.545 247.775 112.984 247.02 113.536 246.35C114.175 245.547 114.942 244.856 115.807 244.303C116.967 243.581 118.257 243.09 119.604 242.857C121.228 242.624 122.876 242.624 124.5 242.857C126.363 243.084 128.199 243.494 129.982 244.079C131.95 244.73 133.852 245.568 135.66 246.582C136.62 247.12 137.543 247.721 138.422 248.383C139.297 249.07 140.129 249.829 140.99 250.552C141.81 251.29 142.691 251.957 143.622 252.548C144.527 253.091 145.534 253.441 146.58 253.575C148.649 253.85 150.63 253.141 152.525 252.65C156.286 251.666 159.758 250.436 162.817 250.834C164.005 251.004 165.143 251.424 166.156 252.066C167.17 252.708 168.036 253.558 168.697 254.559C169.044 255.106 169.289 255.711 169.42 256.345C169.465 256.559 169.482 256.778 169.471 256.996Z" fill="#263238"/>
<path d="M120.428 256.049C121.042 255.498 121.722 255.027 122.453 254.646C125.852 252.597 129.45 250.901 133.193 249.583C133.953 249.263 134.75 249.04 135.565 248.918C134.852 249.325 134.101 249.664 133.323 249.93C131.928 250.516 130.011 251.333 127.921 252.31C125.831 253.286 123.979 254.248 122.641 254.957C121.94 255.39 121.199 255.755 120.428 256.049Z" fill="#263238"/>
<path d="M121.788 260.019C121.723 259.889 125.187 258.088 129.512 255.991C133.837 253.893 137.403 252.31 137.468 252.44C137.533 252.57 134.076 254.378 129.744 256.475C125.411 258.573 121.853 260.135 121.788 260.019Z" fill="#263238"/>
<path d="M138.169 261.719C138.089 261.842 133.88 259.325 128.767 256.099C123.654 252.874 119.56 250.162 119.64 250.039C119.719 249.916 123.929 252.425 129.042 255.651C134.155 258.877 138.249 261.589 138.169 261.719Z" fill="#263238"/>
<path d="M140.541 257.611C139.811 257.22 139.121 256.76 138.48 256.237C137.236 255.34 135.529 254.103 133.613 252.78C131.696 251.456 129.946 250.284 128.673 249.438C127.956 249.022 127.28 248.537 126.655 247.992C127.435 248.283 128.177 248.664 128.868 249.127C130.199 249.894 131.993 251.015 133.931 252.346C135.869 253.676 137.547 254.971 138.719 255.962C139.385 256.443 139.996 256.996 140.541 257.611Z" fill="#263238"/>
<path d="M170.765 95.0214C170.96 94.3773 171.012 93.6986 170.917 93.0325C170.773 92.2534 170.465 91.5139 170.013 90.8628C169.374 90.0228 168.647 89.2541 167.843 88.5702C166.839 87.7006 165.968 86.6867 165.262 85.5615C164.474 84.2313 163.965 82.755 163.764 81.2221C163.542 79.5311 163.71 77.8116 164.256 76.1957C164.864 74.5138 165.617 72.8876 166.505 71.3356C167.368 69.8276 168.061 68.2293 168.574 66.5695C169.032 65.0479 169.067 63.4302 168.675 61.8902C167.872 58.9394 166.115 56.6106 165.218 54.3686C164.378 52.6223 164.124 50.6512 164.495 48.7491C164.603 48.2384 164.796 47.7495 165.066 47.3026C165.144 47.1353 165.258 46.9872 165.399 46.8687C165.142 47.4965 164.939 48.1449 164.791 48.8069C164.559 50.6402 164.886 52.501 165.732 54.1444C166.65 56.314 168.465 58.5633 169.348 61.7021C169.794 63.3625 169.777 65.1136 169.297 66.7647C168.776 68.4825 168.065 70.1368 167.178 71.6972C166.309 73.2091 165.569 74.7913 164.965 76.4271C164.441 77.9327 164.268 79.5382 164.459 81.1209C164.629 82.5561 165.083 83.9429 165.797 85.1999C166.452 86.289 167.26 87.2779 168.198 88.1362C169.014 88.8685 169.743 89.6938 170.368 90.5952C170.819 91.3009 171.106 92.0994 171.206 92.9312C171.271 93.4589 171.209 93.9944 171.026 94.4934C170.99 94.6902 170.899 94.873 170.765 95.0214Z" fill="#263238"/>
<path d="M212.004 80.7087C212.552 81.9933 213.465 83.0889 214.63 83.8601C215.795 84.6314 217.16 85.0444 218.556 85.0481C219.948 85.0122 221.31 84.6403 222.526 83.964C223.743 83.2878 224.778 82.3272 225.543 81.1643C227.043 78.8023 227.581 75.9554 227.047 73.2088C226.698 72.001 226.527 70.7486 226.541 69.4914C226.751 67.7195 228.038 66.2585 228.479 64.53C229.275 61.4273 226.997 58.1439 224.046 56.8999C221.095 55.656 217.696 56.0393 214.6 56.8999" fill="#263238"/>
<path d="M166.968 44.764C164.119 47.6569 165.203 51.3888 166.534 53.9345C167.865 56.4803 169.463 59.0622 169.492 61.9335C169.521 64.8047 167.908 67.5457 167.106 70.3663C166.086 73.9678 166.386 77.8151 167.952 81.2148C169.123 83.7461 170.953 85.9303 172.139 88.4471C173.325 90.964 173.767 94.1534 172.139 96.4027C172.903 96.2393 173.617 95.8999 174.226 95.4114C174.835 94.923 175.322 94.299 175.647 93.5893C176.282 92.1582 176.564 90.5958 176.471 89.0329C176.348 83.1169 173.513 77.3744 174.222 71.5018C174.634 68.0882 176.24 64.8047 176.016 61.3766C175.792 57.9485 173.767 54.9181 172.306 51.7865C170.845 48.6549 169.984 44.764 171.93 41.9144" fill="#263238"/>
<path d="M173.969 33.5466C170.476 34.0023 167.019 35.8248 165.334 38.913C163.649 42.0012 164.227 46.3695 167.106 48.3873C169.825 50.2894 173.68 49.6674 176.471 47.8738C178.581 46.583 180.181 44.603 180.999 42.2688C181.391 41.1049 181.497 39.8638 181.308 38.6503C181.119 37.4368 180.641 36.2866 179.914 35.2968C179.158 34.3281 178.122 33.616 176.947 33.2575C175.772 32.899 174.515 32.9116 173.347 33.2935" fill="#263238"/>
<path d="M171.119 33.1923C172.66 28.9469 176.435 25.7358 180.688 24.2242C184.94 22.7127 189.62 22.7344 194.06 23.5661C198.501 24.3978 202.739 26.0106 206.97 27.609C210.044 28.7734 213.19 29.9812 215.649 32.1147C218.071 34.3127 219.891 37.0936 220.936 40.1932C223.047 45.9284 223.105 50.1304 220.661 55.721C219.583 58.151 220.458 60.8776 219.496 63.3583C218.534 65.839 214.058 68.7897 215.446 71.0534" fill="#263238"/>
<path d="M213.269 95.0213L211.425 40.5909C211.385 39.4153 210.905 38.2976 210.08 37.4592C209.255 36.6207 208.145 36.1226 206.97 36.0635L181.729 31.1166C173.709 30.7043 168.935 40.8079 168.87 48.843C168.791 57.7604 169.044 68.6595 170.454 75.2337C173.296 88.4616 183.61 89.6043 183.61 89.6043C183.61 89.6043 183.899 94.7681 184.174 99.4258L183.74 119.922L213.269 95.0213Z" fill="#FFBE9D"/>
<path d="M172.305 58.4332C172.328 58.8789 172.522 59.2987 172.847 59.6047C173.171 59.9107 173.602 60.0792 174.048 60.0749C174.267 60.0797 174.485 60.0408 174.689 59.9606C174.893 59.8803 175.078 59.7603 175.235 59.6074C175.392 59.4546 175.517 59.2721 175.603 59.0704C175.688 58.8688 175.733 58.6522 175.734 58.4332C175.711 57.9881 175.517 57.5691 175.192 57.2642C174.867 56.9594 174.436 56.7925 173.991 56.7987C173.772 56.7929 173.554 56.8308 173.351 56.9103C173.147 56.9898 172.961 57.1091 172.804 57.2614C172.647 57.4136 172.522 57.5957 172.436 57.797C172.351 57.9982 172.306 58.2145 172.305 58.4332Z" fill="#263238"/>
<path d="M171.481 53.5078C171.705 53.7175 172.928 52.6906 174.794 52.5965C176.659 52.5025 178.034 53.3198 178.222 53.11C178.316 53.0088 178.077 52.6182 177.462 52.2204C176.641 51.6993 175.678 51.4465 174.707 51.4972C173.749 51.5458 172.832 51.8979 172.089 52.5025C171.546 53.0015 171.38 53.4138 171.481 53.5078Z" fill="#263238"/>
<path d="M189.352 58.1727C189.371 58.6191 189.564 59.0402 189.89 59.3458C190.216 59.6514 190.649 59.8171 191.095 59.8072C191.314 59.812 191.531 59.7731 191.735 59.6928C191.938 59.6124 192.123 59.4923 192.28 59.3393C192.436 59.1864 192.56 59.0038 192.645 58.8022C192.73 58.6006 192.773 58.3841 192.773 58.1655C192.754 57.7191 192.561 57.2979 192.235 56.9923C191.91 56.6868 191.477 56.5211 191.03 56.531C190.811 56.5252 190.594 56.5634 190.39 56.6434C190.186 56.7234 190 56.8435 189.844 56.9966C189.687 57.1497 189.563 57.3328 189.479 57.5348C189.394 57.7368 189.351 57.9538 189.352 58.1727Z" fill="#263238"/>
<path d="M189.649 53.7319C189.873 53.9489 191.095 52.9146 192.961 52.8206C194.827 52.7266 196.201 53.5439 196.382 53.3414C196.476 53.2329 196.245 52.8423 195.659 52.4446C194.834 51.9259 193.869 51.6734 192.896 51.7213C191.939 51.7694 191.022 52.1215 190.278 52.7266C189.707 53.2256 189.54 53.6379 189.649 53.7319Z" fill="#263238"/>
<path d="M183.675 67.7484C183.675 67.6471 182.525 67.5097 180.659 67.3723C180.182 67.3723 179.733 67.2783 179.639 66.9601C179.571 66.4766 179.654 65.9838 179.878 65.5498C180.254 64.3926 180.652 63.1703 181.071 61.8974C182.727 56.6974 183.899 52.4303 183.689 52.3653C183.479 52.3002 181.968 56.466 180.312 61.666L179.176 65.34C178.907 65.9224 178.856 66.5818 179.032 67.1987C179.11 67.3599 179.223 67.5015 179.363 67.6129C179.503 67.7243 179.667 67.8028 179.842 67.8424C180.105 67.8972 180.375 67.919 180.644 67.9075C182.546 67.9075 183.675 67.8569 183.675 67.7484Z" fill="#263238"/>
<path d="M183.61 89.6044C189.898 89.3595 195.994 87.3741 201.22 83.8691C201.22 83.8691 197.206 93.2711 183.79 92.7649L183.61 89.6044Z" fill="#EB996E"/>
<path d="M188.535 48.3873C188.745 48.8791 190.574 48.5464 192.744 48.691C194.914 48.8357 196.7 49.3275 196.961 48.8646C197.076 48.6404 196.744 48.1848 196.013 47.7364C195.041 47.1933 193.958 46.8791 192.847 46.8177C191.735 46.7563 190.624 46.9493 189.598 47.382C188.824 47.7436 188.448 48.1559 188.535 48.3873Z" fill="#263238"/>
<path d="M171.922 49.0093C172.27 49.4071 173.514 48.9008 175.04 48.7996C176.566 48.6983 177.867 48.9298 178.142 48.4741C178.258 48.2572 178.034 47.8522 177.419 47.4833C176.636 47.049 175.741 46.8576 174.848 46.9336C173.956 47.0096 173.106 47.3495 172.407 47.91C171.922 48.3729 171.771 48.8358 171.922 49.0093Z" fill="#263238"/>
<path d="M184.724 71.9791C185.028 71.5494 185.436 71.2044 185.911 70.9766C186.385 70.7488 186.91 70.6458 187.436 70.6773C187.816 70.6905 188.189 70.7806 188.534 70.9422C188.878 71.1038 189.186 71.3335 189.439 71.6175C189.685 71.8906 189.841 72.2326 189.887 72.5974C189.932 72.9622 189.864 73.3321 189.692 73.657C189.433 73.98 189.083 74.218 188.687 74.3405C188.292 74.4629 187.868 74.4642 187.472 74.3441C186.644 74.1015 185.873 73.6985 185.201 73.158C185 73.0315 184.825 72.8669 184.687 72.6734C184.624 72.5793 184.591 72.4685 184.591 72.3552C184.591 72.2419 184.624 72.1311 184.687 72.037" fill="#EB996E"/>
<path d="M188.889 68.7535C188.614 68.7535 188.708 70.6195 187.182 72.0298C185.656 73.4401 183.667 73.3388 183.667 73.5992C183.667 73.7149 184.13 73.9391 184.969 73.9174C186.061 73.8704 187.103 73.4431 187.913 72.7096C188.687 71.9994 189.156 71.0171 189.222 69.9685C189.251 69.1875 189.019 68.739 188.889 68.7535Z" fill="#263238"/>
<path d="M170.895 36.7723C171.763 40.9526 178.475 41.2708 182.619 40.2221C184.121 41.9364 186.031 43.2451 188.172 44.0275C190.313 44.8098 192.617 45.0407 194.87 44.6989C195.471 44.5474 196.1 44.5474 196.7 44.6989C197.286 44.9955 197.784 45.4391 198.147 45.9862C200.055 48.2446 202.732 49.7158 205.661 50.1159C206.103 52.2065 207.159 54.1175 208.693 55.6044C210.228 57.0913 212.171 58.0863 214.275 58.462C214.275 58.462 215.605 57.7388 214.824 52.3435C214.043 46.9481 213.993 35.7091 213.993 35.7091L199.014 29.9233L181.368 27.6523C181.368 27.6523 169.42 29.6846 170.895 36.7723Z" fill="#263238"/>
<path d="M220.487 56.3357C220.285 55.0581 219.908 53.8145 219.366 52.64C218.709 51.3197 217.75 50.1726 216.567 49.2914C215.036 48.1488 213.197 47.4913 211.288 47.4038H211.056L210.984 47.1724C210.35 44.8579 209.025 42.7916 207.187 41.2491C205.249 39.7159 202.197 39.0794 199.817 40.4319L199.419 40.6561L199.246 40.2221L199.051 39.7448C198.262 37.9952 197.009 36.4952 195.428 35.4075C193.847 34.3199 191.998 33.6863 190.082 33.5756C189.217 33.5508 188.351 33.6211 187.501 33.7854C186.631 33.9808 185.73 33.9808 184.861 33.7854C184.066 33.5072 183.356 33.029 182.8 32.3968C182.327 31.8769 181.798 31.4112 181.223 31.0082C180.327 30.4415 179.319 30.0746 178.268 29.9324C177.217 29.7901 176.148 29.8758 175.133 30.1837C174.381 30.4488 173.655 30.7829 172.964 31.1817C172.964 31.1817 173.101 31.0154 173.419 30.7478C173.909 30.3926 174.444 30.1055 175.01 29.8944C176.074 29.5057 177.211 29.3618 178.338 29.4732C179.465 29.5847 180.553 29.9486 181.519 30.5381C182.8 31.2613 183.617 32.7656 185.034 33.1562C186.452 33.5467 188.195 32.6933 190.097 32.8162C192.165 32.9131 194.165 33.5833 195.874 34.752C197.583 35.9206 198.933 37.5417 199.774 39.4338L199.991 39.9545L199.419 39.7448C202.182 38.1898 205.531 38.9637 207.65 40.6561C209.6 42.3016 210.991 44.5132 211.628 46.9843L211.324 46.7457C213.355 46.8661 215.301 47.6056 216.9 48.8647C218.118 49.8232 219.084 51.0645 219.713 52.4809C220.122 53.3758 220.383 54.3306 220.487 55.3087C220.548 55.6483 220.548 55.9961 220.487 56.3357Z" fill="#455A64"/>
<path d="M196.642 43.5272C196.316 43.7407 195.949 43.8859 195.565 43.954C194.536 44.2206 193.474 44.3399 192.411 44.3083C190.626 44.2637 188.87 43.8508 187.252 43.0953C185.634 42.3399 184.19 41.2583 183.009 39.9183L183.501 40.0123L183.074 40.2293C181.229 41.1233 179.156 41.436 177.129 41.1261C175.488 40.8588 173.942 40.1767 172.638 39.1445C171.771 38.458 171.036 37.6199 170.469 36.671C170.228 36.3429 170.065 35.9646 169.991 35.5645C170.114 35.4777 170.816 37.1122 172.978 38.6961C174.376 39.7039 176.021 40.3129 177.739 40.4581C179.456 40.6033 181.18 40.2793 182.727 39.5205L183.118 39.318L183.407 39.1734L183.61 39.4048C185.863 41.9424 189.019 43.4994 192.404 43.7442C195.037 43.9467 196.606 43.3754 196.642 43.5272Z" fill="#455A64"/>
<path d="M188.687 36.0633C188.687 36.2947 186.734 36.2369 184.492 36.9022C182.25 37.5676 180.637 38.6163 180.5 38.4283C180.362 38.2402 181.852 36.8299 184.275 36.1429C186.698 35.4558 188.737 35.8608 188.687 36.0633Z" fill="#455A64"/>
<path d="M183.61 35.9116C183.443 36.0635 182.735 35.5356 181.838 34.9642C180.941 34.3929 180.174 33.9589 180.239 33.7419C180.305 33.525 181.274 33.6624 182.264 34.2988C183.255 34.9353 183.769 35.7742 183.61 35.9116Z" fill="#455A64"/>
<path d="M204.779 42.5004C204.706 42.7173 202.985 42.2689 200.866 42.457C198.747 42.645 197.12 43.3466 197.018 43.1441C196.917 42.9415 198.465 41.8567 200.801 41.6976C203.137 41.5385 204.865 42.3268 204.779 42.5004Z" fill="#455A64"/>
<path d="M208.872 49.4288C208.872 49.6313 206.37 49.8845 203.419 49.0166C200.468 48.1487 198.458 46.6155 198.581 46.4563C198.703 46.2972 200.808 47.4544 203.643 48.2572C206.478 49.06 208.879 49.1974 208.872 49.4288Z" fill="#455A64"/>
<path d="M218.274 54.0214C218.101 54.1877 216.791 52.8715 214.658 52.2784C212.524 51.6854 210.745 52.0325 210.695 51.8083C210.644 51.5841 212.524 50.8103 214.882 51.519C217.24 52.2278 218.455 53.8984 218.274 54.0214Z" fill="#455A64"/>
<path d="M216.943 34.8772C216.878 34.8772 216.705 34.4433 216.22 33.7562C215.456 32.8293 214.492 32.0875 213.4 31.5865C210.651 30.2558 206.319 29.4168 201.611 29.6266C197.565 29.8781 193.568 30.6412 189.714 31.8975C186.727 32.8233 184.912 33.5031 184.868 33.3946C185.231 33.1133 185.64 32.8957 186.076 32.7509C186.879 32.3893 188.05 31.8975 189.533 31.3623C193.4 29.9307 197.458 29.0801 201.575 28.8383C206.413 28.6285 210.832 29.5615 213.66 31.0947C214.797 31.6801 215.765 32.5465 216.473 33.6116C216.736 33.9862 216.898 34.422 216.943 34.8772Z" fill="#455A64"/>
<path d="M218.39 42.0446C218.245 42.1097 217.833 40.4318 216.126 38.4285C213.835 35.8401 210.781 34.0469 207.404 33.308C203.997 32.6426 200.5 32.5717 197.069 33.0982C194.415 33.4454 192.773 33.7636 192.73 33.6407C192.686 33.5177 194.306 33.0404 196.968 32.5486C200.465 31.8463 204.066 31.8463 207.563 32.5486C211.105 33.3069 214.278 35.2635 216.546 38.0885C217.211 38.9461 217.738 39.9027 218.108 40.9236C218.276 41.2745 218.372 41.6558 218.39 42.0446Z" fill="#455A64"/>
<path d="M168.769 50.4341C168.769 50.5064 167.532 50.1737 166.202 48.7345C165.315 47.8007 164.667 46.6654 164.316 45.4263C163.964 44.1871 163.919 42.8812 164.184 41.6206C164.448 40.3601 165.015 39.1826 165.835 38.1894C166.655 37.1963 167.704 36.4171 168.892 35.9189C170.693 35.1305 171.944 35.3186 171.93 35.3909C171.915 35.4632 170.751 35.5572 169.131 36.4179C168.073 36.9356 167.147 37.6881 166.423 38.618C165.7 39.5479 165.199 40.6306 164.957 41.7837C164.716 42.9368 164.741 44.1297 165.031 45.2716C165.32 46.4135 165.867 47.4742 166.628 48.3729C167.764 49.8049 168.849 50.2822 168.769 50.4341Z" fill="#455A64"/>
<path d="M224.385 68.3124C224.306 68.1894 225.658 67.4807 227.568 66.0487C228.672 65.2238 229.589 64.1737 230.258 62.9677C230.653 62.2552 230.88 61.4615 230.92 60.6478C230.96 59.834 230.813 59.0219 230.489 58.274C229.831 56.7515 228.596 55.5525 227.054 54.9399C225.769 54.4791 224.38 54.3913 223.047 54.6867C220.733 55.2075 219.605 56.3212 219.525 56.191C219.446 56.0609 219.728 55.8584 220.248 55.4678C221.038 54.873 221.934 54.436 222.888 54.1805C224.329 53.7729 225.861 53.8133 227.278 54.2962C228.147 54.6158 228.941 55.109 229.612 55.7457C230.284 56.3823 230.818 57.149 231.184 57.9991C231.554 58.8535 231.718 59.7826 231.664 60.712C231.61 61.6414 231.339 62.5453 230.873 63.351C230.126 64.625 229.099 65.713 227.871 66.5333C227.07 67.0818 226.226 67.5655 225.347 67.9797C224.761 68.2256 224.407 68.363 224.385 68.3124Z" fill="#263238"/>
<path d="M225.007 68.363C225.271 68.7122 225.478 69.1001 225.622 69.513C226.107 70.5954 226.524 71.7064 226.873 72.8398C227.417 74.535 227.7 76.303 227.712 78.0833C227.748 80.3127 227.121 82.5025 225.911 84.3754C225.284 85.3116 224.469 86.1071 223.518 86.711C222.567 87.3149 221.5 87.7141 220.386 87.883C219.466 88.0173 218.527 87.9313 217.647 87.632C216.767 87.3328 215.971 86.8289 215.323 86.1618C214.441 85.2909 213.889 84.1404 213.761 82.9072C213.693 82.4639 213.75 82.0103 213.927 81.5982C214 81.5982 213.927 82.0755 214.065 82.871C214.362 84.24 215.168 85.4448 216.32 86.2412C217.473 87.0376 218.885 87.366 220.27 87.1598C221.274 86.9838 222.231 86.6075 223.086 86.0533C223.941 85.4991 224.676 84.7784 225.246 83.9342C226.369 82.1865 226.966 80.1533 226.967 78.076C226.983 76.3671 226.767 74.664 226.324 73.0134C225.571 70.1639 224.899 68.4354 225.007 68.363Z" fill="#263238"/>
<path d="M204.345 43.426C202.681 46.7384 203.954 50.7524 205.661 54.0503C207.368 57.3482 209.545 60.61 209.682 64.3129C209.928 70.5255 204.374 76.0148 205.14 82.1767C205.403 84.0143 206.21 85.731 207.458 87.1053C208.706 88.4795 210.337 89.4482 212.141 89.8864C209.205 87.9047 208.937 83.587 210.058 80.2313C211.179 76.8755 216.611 68.0303 217.399 64.5733C220.046 53.0016 218.918 51.6347 214.868 47.5629" fill="#263238"/>
<path d="M215.497 51.6853C215.497 51.7793 214.68 51.9746 213.327 51.7793C211.571 51.5095 209.935 50.722 208.628 49.5174C207.322 48.3128 206.405 46.7459 205.994 45.0171C205.697 43.6936 205.82 42.8474 205.914 42.8474C206.008 42.8474 206.131 43.643 206.55 44.8363C207.073 46.3905 207.978 47.7883 209.182 48.9006C210.387 50.0129 211.852 50.8039 213.443 51.2007C214.708 51.5407 215.497 51.5623 215.497 51.6853Z" fill="#455A64"/>
<path d="M210.695 86.1979C210.695 86.1979 210.535 86.1256 210.282 85.9303C209.917 85.6337 209.589 85.2937 209.306 84.9178C208.257 83.5064 207.705 81.7871 207.737 80.0287C207.745 78.8006 208.055 77.5935 208.641 76.5138C209.36 75.3434 210.227 74.2712 211.223 73.3244C212.261 72.3236 213.109 71.1424 213.725 69.8384C214.34 68.4292 214.625 66.8978 214.557 65.3616C214.486 63.834 214.05 62.3458 213.284 61.0222C212.527 59.7717 211.66 58.5906 210.695 57.4928C208.99 55.602 207.574 53.4695 206.493 51.1646C205.771 49.5953 205.347 47.9056 205.241 46.1815C205.173 45.5544 205.217 44.92 205.372 44.3083C205.545 44.3083 205.14 47.0711 207.013 50.9187C208.142 53.1381 209.573 55.19 211.266 57.0155C212.281 58.1337 213.189 59.3444 213.978 60.6317C214.817 62.0702 215.293 63.6909 215.367 65.3544C215.441 67.016 215.129 68.6722 214.455 70.1928C213.791 71.5756 212.876 72.8237 211.758 73.874C210.794 74.7668 209.944 75.7748 209.226 76.8754C208.672 77.8536 208.358 78.949 208.308 80.0721C208.231 81.7294 208.67 83.3697 209.566 84.7659C210.217 85.7206 210.745 86.14 210.695 86.1979Z" fill="#455A64"/>
<path d="M216.878 51.2513C216.878 51.2152 217.233 51.4466 217.725 51.9746C218.413 52.73 218.975 53.5922 219.388 54.5276C220.7 57.6707 220.849 61.1785 219.807 64.4214C218.734 67.5947 217.021 70.514 214.774 72.9989C213.11 74.9155 211.939 75.9569 211.881 75.8918C211.823 75.8267 212.814 74.6262 214.347 72.6373C216.388 70.1109 217.972 67.2472 219.026 64.1755C219.997 61.1062 219.933 57.8032 218.846 54.7735C217.963 52.4519 216.755 51.3526 216.878 51.2513Z" fill="#455A64"/>
<path d="M161.407 150.377L153.936 136.636C153.692 136.186 153.332 135.81 152.893 135.548C152.454 135.286 151.952 135.147 151.44 135.146H98.2685C97.7523 135.146 97.2461 135.288 96.8049 135.555C96.3636 135.823 96.0043 136.207 95.7661 136.665L148.468 172.103L171.792 174.786C172.038 174.317 172.17 173.796 172.177 173.266C172.185 172.735 172.068 172.211 171.836 171.734L161.407 150.377Z" fill="#263238"/>
<g opacity="0.3">
<path opacity="0.3" d="M217.667 181.91C208.33 177.838 197.59 177.245 188.81 172.074C185.454 170.1 182.482 167.503 179.046 165.666C175.611 163.829 171.445 162.774 167.822 164.22C164.198 165.666 161.45 171.091 163.331 174.504C164.054 176.327 167.489 178.026 169.435 177.86C171.38 177.694 173.224 176.891 175.17 176.645C179.336 176.117 183.335 178.171 187.089 180.052C195.187 184.093 203.553 187.575 212.127 190.473C214.123 191.146 216.228 191.797 218.318 191.486C220.408 191.175 222.462 189.598 222.607 187.486C222.729 184.847 220.068 182.973 217.667 181.91Z" fill="black"/>
</g>
<path d="M171.792 174.729L153.147 138.213C152.904 137.734 152.532 137.332 152.074 137.052C151.615 136.772 151.088 136.626 150.551 136.629H95.5056L116.016 173.564L171.792 174.729Z" fill="#455A64"/>
<path d="M128.644 149.763C128.92 149.984 129.255 150.119 129.607 150.15C129.959 150.181 130.312 150.107 130.622 149.937C130.932 149.767 131.184 149.509 131.348 149.196C131.511 148.882 131.577 148.527 131.539 148.176C131.501 147.825 131.359 147.493 131.132 147.222C130.904 146.951 130.602 146.754 130.263 146.655C129.923 146.556 129.562 146.56 129.225 146.667C128.888 146.773 128.59 146.977 128.369 147.253C128.222 147.436 128.112 147.646 128.046 147.871C127.98 148.096 127.959 148.332 127.984 148.565C128.01 148.798 128.081 149.024 128.195 149.23C128.308 149.435 128.461 149.616 128.644 149.763Z" fill="#EBEBEB"/>
<path d="M177.079 155.679L171.539 151.397C170.416 150.004 168.995 148.88 167.38 148.108C165.766 147.336 163.999 146.935 162.209 146.935H159.193L157.132 149.249C157.132 149.249 142.364 149.893 141.821 151.715V152.301V152.648L154.456 153.495C154.456 153.495 143.709 153.495 143.065 153.495C142.422 153.495 140.064 153.314 140.107 154.579C140.151 155.614 141.373 156.431 143.232 156.698C143.998 156.814 153.306 157.624 153.306 157.624L143.058 157.53C141.908 157.53 142.06 159.36 142.74 159.591C143.275 159.779 156.402 163.605 156.402 163.605C156.402 163.605 154.232 165.088 152.395 164.958C150.558 164.828 147.506 162.513 146.862 163.605C146.219 164.697 146.349 165.341 146.732 165.601C148.675 166.691 150.696 167.636 152.778 168.429C154.225 168.82 165.753 170.65 165.753 170.65L175.336 169.42L177.079 155.679Z" fill="#FFBE9D"/>
<path d="M152.106 149.43C153.829 149.261 155.561 149.198 157.291 149.242C159.021 149.181 160.753 149.225 162.477 149.372C160.754 149.546 159.022 149.611 157.291 149.567C155.562 149.628 153.83 149.582 152.106 149.43Z" fill="#EB996E"/>
<path d="M177.079 155.679L217.746 163.417L221.825 112.292C221.825 112.292 232.789 103.071 238.59 109.363C240.728 111.703 242.354 114.464 243.363 117.47C244.372 120.475 244.741 123.658 244.448 126.814C244.072 130.525 240.383 174.215 237.317 181.606C233.028 191.941 222.049 191.392 218.983 190.64C215.916 189.887 172.183 169.203 172.183 169.203L177.079 155.679Z" fill="#FFBE9D"/>
<path d="M220.321 112.024C218.874 123.596 216.075 141.236 215.916 152.865C215.916 153.343 243.884 155.679 243.884 155.679C243.884 155.679 245.33 129.339 244.289 121.332C243.095 112.241 236.29 105.971 236.29 105.971H227.517L220.321 112.024Z" fill="#8C8BC7"/>
<path d="M243.884 155.679C243.696 155.688 243.508 155.688 243.32 155.679L241.692 155.548L235.719 155.013L215.902 153.075H215.721V152.887C215.721 152.533 215.772 152.164 215.801 151.759C216.365 143.716 216.878 136.441 217.247 131.125C217.45 128.514 217.616 126.395 217.732 124.876C217.797 124.153 217.84 123.603 217.884 123.184C217.896 122.985 217.92 122.787 217.956 122.591C217.975 122.788 217.975 122.987 217.956 123.184C217.956 123.611 217.913 124.175 217.876 124.891C217.79 126.402 217.667 128.507 217.515 131.147C217.168 136.462 216.698 143.738 216.177 151.78C216.177 152.171 216.126 152.554 216.097 152.916L215.931 152.713L235.747 154.731L241.707 155.389L243.327 155.585C243.515 155.599 243.701 155.631 243.884 155.679Z" fill="#263238"/>
<path d="M254.332 194.521C258.446 192.392 263.296 192.12 267.867 192.876C270.322 193.281 272.883 194.017 274.549 195.862C276.214 197.706 276.539 200.951 274.622 202.537C273.48 203.479 271.888 203.618 270.402 203.605C266.826 203.558 262.858 202.941 259.998 205.084C258.366 206.312 257.284 208.355 255.354 208.959C253.423 209.563 251.293 208.422 250.278 206.703C249.351 204.908 249.147 202.826 249.707 200.884C249.937 199.54 250.474 198.266 251.276 197.162C252.078 196.059 253.124 195.155 254.332 194.521Z" fill="#90CF7A"/>
<path d="M244.897 176.309C247.418 179.905 252.308 178.717 254.577 176.521C256.847 174.325 257.802 171.147 258.678 168.115C260.668 161.181 262.659 153.916 261.199 146.883C260.84 144.744 259.902 142.745 258.485 141.104C256.999 139.538 254.723 138.609 252.64 139.16C250.172 139.823 248.659 142.225 247.531 144.527C244.268 151.304 242.555 158.722 242.515 166.243C242.515 169.747 242.913 173.422 244.89 176.309" fill="#90CF7A"/>
<path d="M237.983 181.471C240.717 178.226 241.241 173.509 240.02 169.435C238.8 165.361 236.039 161.911 232.895 159.091C229.166 155.774 224.828 153.214 220.122 151.554C218.302 150.818 216.344 150.485 214.383 150.579C213.402 150.635 212.449 150.93 211.609 151.439C210.768 151.948 210.064 152.655 209.559 153.498C208.232 156.059 209.506 159.164 210.886 161.705C213.349 166.174 216.16 170.443 219.293 174.471C221.808 177.715 224.687 180.913 228.515 182.373C232.344 183.833 236.325 183.667 238.355 181.013" fill="#90CF7A"/>
<path d="M244.731 230.542C244.862 230.008 244.937 229.461 244.957 228.91C245.07 227.723 245.216 226.256 245.388 224.452C245.613 222.257 245.95 220.076 246.397 217.916C246.978 215.282 247.772 212.699 248.772 210.193C249.749 207.698 251.076 205.355 252.713 203.233C254.045 201.497 255.747 200.08 257.696 199.086C259.015 198.426 260.43 197.979 261.889 197.759C262.438 197.738 262.982 197.661 263.515 197.527C262.966 197.468 262.412 197.468 261.863 197.527C260.346 197.642 258.863 198.029 257.484 198.668C255.433 199.638 253.635 201.069 252.229 202.848C250.521 205.006 249.144 207.405 248.142 209.968C247.131 212.511 246.343 215.137 245.786 217.817C245.36 220.008 245.07 222.224 244.917 224.452C244.771 226.343 244.718 227.875 244.691 228.937C244.648 229.472 244.661 230.01 244.731 230.542Z" fill="#263238"/>
<path d="M245.036 227.119C245.081 226.869 245.096 226.616 245.083 226.363C245.083 225.792 245.083 225.075 245.083 224.193C245.083 222.315 245.083 219.595 245.176 216.231C245.342 209.51 245.926 202.298 247.04 192.067C248.102 182.479 249.522 171.312 251.021 164.054C251.34 162.402 251.685 160.916 251.97 159.615C252.255 158.315 252.507 157.187 252.753 156.298L253.257 154.194C253.328 153.95 253.372 153.698 253.39 153.445C253.275 153.663 253.189 153.895 253.131 154.135C252.965 154.679 252.76 155.369 252.468 156.211C252.176 157.054 251.904 158.202 251.579 159.529C251.253 160.856 250.915 162.309 250.53 163.954C248.676 172.543 247.285 181.225 246.363 189.963C245.242 200.188 244.738 209.497 244.691 216.238C244.652 219.602 244.691 222.335 244.811 224.2C244.864 225.082 244.91 225.799 244.944 226.369C244.943 226.622 244.974 226.874 245.036 227.119Z" fill="#263238"/>
<path d="M245.083 209.165C245.144 208.41 245.144 207.651 245.083 206.896C244.965 204.842 244.744 202.796 244.419 200.765C243.925 197.749 243.26 194.763 242.429 191.821C241.455 188.206 240.206 184.67 238.693 181.245C235.588 173.893 231.395 167.882 227.713 164.153C226.906 163.299 226.044 162.499 225.132 161.758C224.734 161.42 224.389 161.095 224.03 160.823L223.028 160.159C222.427 159.703 221.79 159.295 221.124 158.938C221.011 159.084 223.825 160.736 227.368 164.512C231.879 169.538 235.499 175.298 238.07 181.544C239.556 184.948 240.813 188.448 241.832 192.02C242.688 194.933 243.397 197.887 243.955 200.871C244.419 203.419 244.691 205.516 244.857 206.949C244.875 207.692 244.95 208.433 245.083 209.165Z" fill="#263238"/>
<path d="M227.726 240.833L233.08 268.136H258.353L262.991 240.833H227.726Z" fill="#FF725E"/>
<path d="M266.759 231.12H224.667V240.833H266.759V231.12Z" fill="#FF725E"/>
<path d="M261.697 248.888C261.659 248.97 261.61 249.046 261.551 249.114L261.1 249.737L259.328 252.1L259.249 252.206L259.176 252.093L254.823 245.83H255.075L250.789 252.146L250.656 252.345L250.504 252.159L245.428 245.863H245.72L245.441 246.228C243.862 248.284 242.343 250.282 240.896 252.159L240.75 252.358L240.605 252.153L236.325 245.836H236.57L231.263 252.1L231.17 252.212L231.097 252.086L229.445 249.193L229.02 248.424C228.968 248.337 228.923 248.246 228.887 248.152C228.887 248.152 228.96 248.225 229.066 248.391L229.537 249.134L231.269 251.973H231.103L236.298 245.637L236.431 245.471L236.551 245.644L240.87 251.934H240.578L245.11 245.962C245.209 245.843 245.302 245.717 245.388 245.597L245.534 245.411L245.687 245.597C247.458 247.807 249.17 249.943 250.749 251.9H250.464L254.79 245.617L254.916 245.431L255.042 245.617L259.302 251.954H259.143L260.987 249.651L261.478 249.061C261.624 248.948 261.69 248.882 261.697 248.888Z" fill="white"/>
<path d="M263.429 240.667C263.429 240.78 255.467 240.866 245.713 240.866C235.96 240.866 227.991 240.78 227.991 240.667C227.991 240.555 235.953 240.468 245.713 240.468C255.473 240.468 263.429 240.561 263.429 240.667Z" fill="#263238"/>
<path d="M42.9157 72.5843C62.8445 72.3547 78.8139 56.0131 78.5843 36.0843C78.3547 16.1554 62.0131 0.186045 42.0843 0.415619C22.1555 0.645193 6.18611 16.9868 6.41568 36.9156C6.64525 56.8444 22.9869 72.8138 42.9157 72.5843Z" fill="#40BF91"/>
<path d="M66.5153 30.5562C66.2351 29.7561 65.6549 29.0962 64.8974 28.7156C64.1398 28.3351 63.2641 28.2638 62.4549 28.5168H62.3618C62.7645 28.3994 63.1399 28.2033 63.4662 27.9396C63.7924 27.676 64.0631 27.3502 64.2624 26.9811C64.4617 26.612 64.5856 26.2069 64.6271 25.7895C64.6685 25.3721 64.6266 24.9506 64.5037 24.5495C64.2235 23.7494 63.6434 23.0895 62.8858 22.709C62.1283 22.3284 61.2525 22.2571 60.4434 22.5101L59.0837 22.9012L47.5266 25.0804C47.3771 25.1112 47.2229 25.1113 47.0733 25.0807C46.9237 25.0501 46.7819 24.9894 46.6565 24.9023C46.531 24.8152 46.4246 24.7035 46.3437 24.574C46.2628 24.4446 46.209 24.3 46.1856 24.1491C45.936 22.3102 45.5909 20.4856 45.1519 18.6825C44.2207 15.0785 40.598 11.3348 37.7576 13.8679C36.6122 14.8923 38.6889 19.1016 38.5492 21.0387C38.4095 22.9757 30.1678 30.3514 31.3691 34.5886L36.0255 50.9045C36.3677 52.085 37.1629 53.0824 38.2375 53.679C39.3122 54.2757 40.5791 54.4232 41.7621 54.0894L64.0101 47.7102C64.7378 47.5218 65.3793 47.0903 65.8281 46.4873C66.277 45.8843 66.5063 45.1461 66.478 44.3949C66.4434 43.9286 66.3054 43.4758 66.074 43.0695C65.8425 42.6632 65.5234 42.3135 65.14 42.046C64.7565 41.7784 64.3182 41.5997 63.857 41.5227C63.3957 41.4458 62.9231 41.4725 62.4736 41.6011L64.513 41.0144C65.2407 40.8259 65.8821 40.3945 66.331 39.7915C66.7798 39.1885 67.0091 38.4502 66.9809 37.6991C66.9467 37.2317 66.8085 36.7779 66.5765 36.3707C66.3445 35.9635 66.0245 35.6133 65.6398 35.3456C65.2552 35.0779 64.8157 34.8994 64.3533 34.8232C63.8909 34.747 63.4173 34.7751 62.9671 34.9053L64.3547 34.5048C64.7577 34.3904 65.1339 34.197 65.4614 33.9357C65.7889 33.6745 66.0611 33.3507 66.2622 32.9832C66.4633 32.6157 66.5892 32.2118 66.6327 31.7951C66.6761 31.3785 66.6362 30.9573 66.5153 30.5562Z" fill="white"/>
<path d="M26.2579 33.9021L21.6563 35.2207C20.4202 35.5749 19.7054 36.8641 20.0596 38.1002L25.3032 56.3988C25.6574 57.6349 26.9465 58.3498 28.1826 57.9956L32.7841 56.677C34.0202 56.3228 34.7351 55.0336 34.3809 53.7976L29.1373 35.4989C28.7831 34.2628 27.4939 33.5479 26.2579 33.9021Z" fill="white"/>
<path d="M289.61 158.215C294.799 163.854 303.576 164.218 309.215 159.029C314.854 153.84 315.218 145.062 310.029 139.424C304.84 133.785 296.062 133.42 290.424 138.61C284.785 143.799 284.42 152.576 289.61 158.215Z" fill="#40BF91"/>
<path d="M307.693 154.157C307.85 153.872 307.889 153.536 307.803 153.222C307.717 152.907 307.512 152.638 307.232 152.472L307.208 152.445C307.345 152.53 307.498 152.587 307.657 152.613C307.816 152.638 307.979 152.632 308.136 152.594C308.293 152.556 308.44 152.487 308.57 152.392C308.7 152.297 308.81 152.176 308.893 152.038C309.05 151.752 309.089 151.417 309.003 151.102C308.917 150.788 308.713 150.519 308.432 150.353L307.971 150.065L304.377 147.321C304.329 147.286 304.29 147.242 304.26 147.191C304.23 147.14 304.211 147.084 304.204 147.026C304.196 146.968 304.201 146.909 304.217 146.852C304.233 146.796 304.261 146.743 304.298 146.698C304.76 146.154 305.193 145.586 305.595 144.997C306.386 143.804 306.525 141.806 305.071 141.645C304.483 141.581 303.814 143.257 303.224 143.715C302.634 144.173 298.407 143.713 297.504 145.146L294.036 150.672C293.787 151.073 293.706 151.557 293.812 152.017C293.918 152.478 294.201 152.878 294.601 153.13L302.144 157.851C302.385 158.011 302.674 158.083 302.961 158.057C303.249 158.03 303.519 157.906 303.727 157.704C303.851 157.575 303.945 157.419 304.002 157.248C304.058 157.078 304.076 156.896 304.054 156.718C304.032 156.54 303.971 156.368 303.874 156.217C303.777 156.065 303.648 155.937 303.496 155.841L304.188 156.274C304.429 156.433 304.717 156.506 305.005 156.479C305.293 156.452 305.563 156.328 305.77 156.127C305.895 155.997 305.989 155.841 306.046 155.67C306.103 155.499 306.121 155.317 306.098 155.138C306.076 154.96 306.014 154.788 305.917 154.636C305.82 154.484 305.69 154.356 305.537 154.261L306.008 154.555C306.145 154.641 306.297 154.698 306.456 154.725C306.615 154.751 306.777 154.746 306.934 154.709C307.091 154.672 307.238 154.604 307.369 154.509C307.499 154.415 307.609 154.295 307.693 154.157Z" fill="white"/>
<path d="M296.386 143.508L294.826 142.531C294.407 142.269 293.855 142.396 293.593 142.815L289.709 149.019C289.447 149.438 289.574 149.99 289.993 150.252L291.553 151.229C291.972 151.491 292.524 151.364 292.787 150.945L296.67 144.742C296.932 144.322 296.805 143.77 296.386 143.508Z" fill="white"/>
<path d="M16.9599 186.183C22.7285 184.404 25.9625 178.285 24.1832 172.517C22.4039 166.748 16.2851 163.514 10.5165 165.293C4.74792 167.073 1.51392 173.191 3.2932 178.96C5.07248 184.728 11.1913 187.962 16.9599 186.183Z" fill="#40BF91"/>
<path d="M20.2023 171.948C20.0521 171.74 19.8269 171.598 19.5742 171.552C19.3214 171.507 19.0609 171.562 18.8477 171.705L18.8206 171.713C18.9275 171.644 19.0197 171.555 19.0918 171.45C19.1639 171.345 19.2145 171.227 19.2407 171.103C19.2668 170.979 19.268 170.851 19.2442 170.726C19.2204 170.601 19.172 170.482 19.1018 170.376C18.9517 170.168 18.7265 170.026 18.4737 169.981C18.221 169.935 17.9605 169.99 17.7472 170.133L17.3859 170.363L14.2164 171.989C14.1756 172.011 14.1308 172.024 14.0848 172.028C14.0387 172.032 13.9923 172.027 13.9484 172.012C13.9045 171.998 13.864 171.975 13.8293 171.944C13.7947 171.913 13.7666 171.876 13.7469 171.834C13.5164 171.321 13.2593 170.821 12.9769 170.335C12.3967 169.368 11.0228 168.592 10.4155 169.572C10.1708 169.968 11.1357 171.012 11.2616 171.587C11.3875 172.161 9.62749 175.012 10.3406 176.139L13.0951 180.478C13.296 180.792 13.6126 181.013 13.976 181.094C14.3394 181.175 14.7201 181.109 15.035 180.91L20.9488 177.146C21.1439 177.028 21.2932 176.848 21.3717 176.634C21.4503 176.42 21.4534 176.186 21.3807 175.971C21.3306 175.838 21.2516 175.718 21.1494 175.62C21.0473 175.522 20.9246 175.448 20.7902 175.403C20.6558 175.359 20.5131 175.344 20.3726 175.362C20.232 175.379 20.097 175.427 19.9775 175.503L20.5194 175.158C20.7146 175.04 20.8638 174.86 20.9424 174.646C21.0209 174.432 21.0241 174.198 20.9513 173.983C20.9012 173.85 20.8221 173.73 20.7197 173.631C20.6173 173.533 20.4943 173.459 20.3596 173.414C20.2248 173.37 20.0818 173.355 19.941 173.373C19.8001 173.391 19.665 173.44 19.5454 173.516L19.914 173.28C20.0213 173.213 20.1139 173.124 20.1866 173.02C20.2593 172.916 20.3105 172.799 20.3373 172.675C20.3641 172.551 20.366 172.422 20.3428 172.298C20.3196 172.173 20.2719 172.054 20.2023 171.948Z" fill="white"/>
<path d="M8.79715 176.379L7.57395 177.158C7.24537 177.367 7.14851 177.803 7.35761 178.131L10.4531 182.995C10.6622 183.324 11.0981 183.421 11.4267 183.212L12.6499 182.433C12.9785 182.224 13.0753 181.788 12.8662 181.46L9.77071 176.596C9.5616 176.267 9.12573 176.17 8.79715 176.379Z" fill="white"/>
</svg>
