<svg width="244" height="247" viewBox="0 0 244 247" fill="none" xmlns="http://www.w3.org/2000/svg">
<rect y="16" width="238" height="231" rx="17" fill="#E5EEF7"/>
<path d="M75.3594 104.14L80.9572 110.15C80.9572 110.15 104.383 149.436 107.717 151.96C111.051 154.484 116.649 157.384 120.012 156.936C123.375 156.488 132.263 150.427 132.263 150.427L124.496 126.56L115.658 124.195L91.7912 96.5391L75.3594 104.14Z" fill="#FFBE9D"/>
<path d="M79.8435 108.878C77.8474 106.476 72.7196 101.551 72.7196 101.551L70.55 99.2441C70.4556 99.4355 70.3758 99.6337 70.3113 99.8372C70.2217 100.233 70.0324 100.599 69.7616 100.9C69.4483 101.117 69.0761 101.234 68.6949 101.234C68.3136 101.234 67.9415 101.117 67.6281 100.9C66.94 100.517 66.3642 99.961 65.9582 99.2863C65.5521 98.6116 65.33 97.8423 65.3139 97.055C65.2978 96.2677 65.4883 95.49 65.8664 94.7993C66.2445 94.1085 66.7971 93.529 67.469 93.1183C67.5856 92.6939 67.7873 92.2978 68.0621 91.9539C69.8918 89.5962 74.195 89.9144 74.195 89.9144L73.5514 88.9959C73.5514 88.9959 70.6223 87.1734 65.7477 90.2616C65.0219 90.7367 64.1463 90.9273 63.2887 90.7968C63.0255 90.7685 62.7717 90.6826 62.5454 90.5451C62.3191 90.4076 62.126 90.2219 61.9797 90.0012C61.2565 88.7934 61.9435 87.9762 64.9594 86.009C67.9753 84.0418 71.5336 83.116 73.79 83.9695C74.8518 84.334 75.8863 84.7739 76.8855 85.2857C76.8855 85.2857 71.5625 76.6938 71.2443 76.1369C70.333 74.5241 70.2896 72.7666 71.3094 72.0506C71.9603 71.595 73.1174 71.4937 74.2384 73.338C75.2003 74.9363 87.1987 90.0229 87.1987 90.0229L92.1167 97.0021L79.8435 108.878Z" fill="#FFBE9D"/>
<path d="M90.3449 97.248C89.6217 98.0436 88.262 97.9713 87.2856 97.4433C86.3093 96.9153 85.5354 96.1198 84.5952 95.5484C81.7963 93.8344 77.9632 94.5359 75.2438 92.6917C74.8678 92.4313 74.4844 91.9684 74.6508 91.5707C74.8171 91.1729 75.3234 91.1006 75.7501 91.0861L86.5986 90.6377" fill="#FFBE9D"/>
<path d="M86.5839 90.6373C86.1961 90.5596 85.7995 90.5353 85.4051 90.565C84.6457 90.565 83.5536 90.565 82.1939 90.6012L77.4423 90.7241L76.0681 90.7748C75.7909 90.74 75.5094 90.7605 75.2401 90.835C74.9707 90.9094 74.7188 91.0365 74.4987 91.2087C74.3801 91.3479 74.3058 91.5192 74.2852 91.7009C74.2645 91.8826 74.2986 92.0662 74.383 92.2284C74.5231 92.4955 74.7268 92.7241 74.9761 92.8938C75.4271 93.1927 75.9128 93.4356 76.4225 93.617C78.4403 94.3981 80.4509 94.4271 82.1505 94.861C82.9548 95.0307 83.7281 95.3234 84.4432 95.7289C85.1013 96.1122 85.6582 96.604 86.2223 96.9945C86.6473 97.3604 87.1472 97.629 87.6869 97.7814C88.2266 97.9338 88.7931 97.9664 89.3467 97.8769C90.135 97.6671 90.3737 97.2187 90.3447 97.2187C90.0234 97.4208 89.6681 97.5629 89.296 97.6382C88.784 97.6771 88.2695 97.6092 87.7852 97.4386C87.3008 97.268 86.8573 96.9986 86.4827 96.6474C85.9159 96.1638 85.3245 95.71 84.7108 95.2877C83.958 94.8384 83.1409 94.5067 82.2879 94.3041C80.5232 93.834 78.5127 93.7689 76.654 93.0457C76.2018 92.8658 75.7702 92.6378 75.3666 92.3658C74.9978 92.1127 74.8025 91.7366 74.9833 91.5775C75.1641 91.4184 75.6559 91.3533 76.1188 91.3389L77.4929 91.2665L82.2445 91.0062C83.597 90.9266 84.6891 90.8471 85.4412 90.7748C85.8266 90.7819 86.2112 90.7357 86.5839 90.6373Z" fill="#EB996E"/>
<path d="M74.3468 89.8561C73.9252 89.306 73.3867 88.8565 72.7701 88.5399C72.0836 88.2534 71.3238 88.1926 70.6004 88.3663C69.7043 88.5909 68.8498 88.9571 68.0691 89.4511C67.257 89.9565 66.397 90.3804 65.5017 90.7168C64.7451 90.9921 63.9291 91.0619 63.1367 90.9193C62.8646 90.8653 62.6089 90.7482 62.3904 90.5773C62.1718 90.4065 61.9964 90.1867 61.8783 89.9357C61.7826 89.7611 61.7375 89.5632 61.7481 89.3644C61.7481 89.3644 61.8349 89.5596 62.0157 89.8634C62.1435 90.0708 62.3154 90.2477 62.5191 90.3814C62.7228 90.5151 62.9534 90.6025 63.1946 90.6372C63.9288 90.7249 64.6733 90.633 65.3643 90.3697C66.2275 90.0204 67.0578 89.5944 67.8449 89.0968C68.6674 88.5865 69.5694 88.2174 70.5137 88.0047C71.3064 87.8289 72.1355 87.9283 72.8642 88.2867C73.3469 88.5284 73.762 88.8862 74.072 89.3282C74.2027 89.4809 74.2967 89.6615 74.3468 89.8561Z" fill="#EB996E"/>
<path d="M70.9116 75.4785C71.3161 76.0161 71.6741 76.5871 71.982 77.1853L74.4482 81.3367L76.9795 85.4591C77.3681 86.0089 77.7069 86.5922 77.9921 87.2021C77.5216 86.7204 77.1046 86.1894 76.7481 85.6182C76.0249 84.6057 75.0847 83.1665 74.1083 81.5464C73.132 79.9264 72.3002 78.4221 71.7361 77.3155C71.3878 76.7389 71.1109 76.122 70.9116 75.4785Z" fill="#EB996E"/>
<path d="M73.5658 92.9879C73.3637 93.0492 73.1548 93.0856 72.9439 93.0964C72.6786 93.1123 72.4199 93.1851 72.1853 93.3099C71.9507 93.4347 71.7457 93.6086 71.5842 93.8196C71.4965 93.97 71.4503 94.141 71.4503 94.315C71.4503 94.4891 71.4965 94.6601 71.5842 94.8104C71.7935 95.1942 72.0485 95.5511 72.3436 95.8736C72.7173 96.2658 72.938 96.779 72.9656 97.3201C72.9357 97.6143 72.8387 97.8977 72.6819 98.1485C72.5252 98.3993 72.3129 98.6107 72.0615 98.7665C71.8084 98.9208 71.5264 99.0216 71.2328 99.0626C70.9393 99.1036 70.6404 99.0841 70.3547 99.0052C69.8296 98.8749 69.3543 98.5932 68.9878 98.1952C68.4445 97.5183 68.0034 96.7653 67.6787 95.9604C67.4444 95.4261 67.3002 94.8567 67.252 94.2753C67.2276 94.0609 67.2601 93.8439 67.3461 93.646C67.3797 93.8495 67.4014 94.0548 67.4111 94.2608C67.5118 94.8132 67.6896 95.3488 67.9391 95.8519C68.285 96.6068 68.7301 97.3122 69.2626 97.9493C69.5808 98.3012 70.0056 98.5392 70.4719 98.6267C70.9383 98.7142 71.4204 98.6465 71.8446 98.4338C72.0468 98.3087 72.2173 98.1385 72.3428 97.9365C72.4683 97.7345 72.5453 97.5062 72.5678 97.2694C72.5544 96.8102 72.3715 96.3722 72.0543 96.0399C71.7481 95.6861 71.488 95.2949 71.2804 94.8755C71.1813 94.6749 71.1365 94.4518 71.1504 94.2285C71.1644 94.0051 71.2366 93.7894 71.36 93.6027C71.5489 93.3665 71.7907 93.178 72.0658 93.0524C72.3409 92.9268 72.6417 92.8675 72.9439 92.8794C73.1563 92.8752 73.3674 92.912 73.5658 92.9879Z" fill="#EB996E"/>
<path d="M70.3404 98.745C70.3404 98.745 70.514 98.8897 70.5863 99.2585C70.6314 99.5269 70.613 99.802 70.5326 100.062C70.4522 100.322 70.3121 100.56 70.1234 100.756C69.8316 101.037 69.471 101.238 69.0777 101.337C68.6843 101.436 68.2719 101.43 67.8814 101.32C66.939 101.045 66.1402 100.415 65.6539 99.5623C65.1504 98.7382 64.9177 97.7771 64.9885 96.814C65.0571 96.0343 65.3289 95.2862 65.7768 94.6443C66.0757 94.2177 66.4509 93.8499 66.8834 93.5595C67.1871 93.357 67.3824 93.2918 67.3896 93.3135C66.8644 93.7437 66.4019 94.2452 66.0155 94.8034C65.5874 95.4862 65.3604 96.2757 65.3604 97.0816C65.3604 97.8875 65.5874 98.677 66.0155 99.3598C66.4531 100.125 67.1594 100.699 67.9971 100.973C68.3309 101.075 68.6852 101.091 69.0267 101.019C69.3683 100.946 69.6859 100.789 69.9499 100.56C70.1202 100.397 70.2535 100.198 70.3408 99.9787C70.4281 99.7591 70.4674 99.5234 70.4561 99.2874C70.4127 98.9403 70.3115 98.7595 70.3404 98.745Z" fill="#EB996E"/>
<path d="M79.793 100.9C79.793 100.864 80.0461 100.618 80.6247 100.409C81.4211 100.133 82.2873 100.133 83.0837 100.409L82.845 100.669C82.6459 100.259 82.4743 99.8362 82.3315 99.4033C81.7674 97.9084 81.6248 96.2872 81.9193 94.7168C82.0224 96.2595 82.2891 97.7868 82.7148 99.2732C82.8595 99.7143 83.0258 100.134 83.1922 100.51L83.373 100.922L82.9535 100.77C82.2272 100.509 81.4402 100.466 80.6898 100.647C80.1329 100.77 79.8219 100.944 79.793 100.9Z" fill="#EB996E"/>
<path d="M70.6731 86.3047C70.7356 86.5848 70.7309 86.8756 70.6592 87.1535C70.5875 87.4313 70.451 87.6882 70.2609 87.9031C69.704 88.6986 68.9157 88.9301 68.8868 88.8288C68.8578 88.7276 69.4509 88.366 69.9282 87.6717C70.4055 86.9773 70.5791 86.2975 70.6731 86.3047Z" fill="#EB996E"/>
<path d="M61.4011 224.002C61.4011 224.002 51.9991 226.041 43.559 224.776C35.6685 223.597 17.9928 224.819 18 235.219C18 246.791 41.5701 243.956 50.7624 242.119C59.9546 240.282 69.1107 238.611 69.1107 238.611L61.4011 224.002Z" fill="#455A64"/>
<path d="M40.2396 238.87C39.7212 237.568 39.3407 236.215 39.1041 234.834C38.7207 233.484 38.4784 232.098 38.3809 230.697C38.5038 230.697 39.0173 232.476 39.5236 234.733C40.0298 236.989 40.3625 238.841 40.2396 238.87Z" fill="#263238"/>
<path d="M43.4577 239.023C43.3348 239.023 42.9804 237.186 42.6622 234.886C42.3439 232.586 42.1921 230.698 42.315 230.684C42.438 230.669 42.7924 232.521 43.1106 234.821C43.4288 237.12 43.5807 239.008 43.4577 239.023Z" fill="#263238"/>
<path d="M46.5604 237.808C46.4375 237.808 46.141 236.209 45.9023 234.191C45.6636 232.174 45.5624 230.575 45.6853 230.525C45.8083 230.474 46.1048 232.13 46.3507 234.141C46.5966 236.151 46.6906 237.793 46.5604 237.808Z" fill="#263238"/>
<path d="M51.4424 236.592C51.3339 236.643 50.6613 235.29 50.2273 233.49C49.8928 232.417 49.7747 231.289 49.8802 230.17C50.0104 230.17 50.2346 231.616 50.6685 233.381C50.9945 234.434 51.2529 235.506 51.4424 236.592Z" fill="#263238"/>
<path d="M52.4838 232.355C52.8891 232.262 53.3067 232.235 53.7205 232.275C54.8497 232.311 55.9657 232.528 57.0257 232.919C57.3923 233.048 57.7365 233.233 58.0454 233.469C58.2311 233.601 58.3851 233.773 58.4964 233.971C58.6077 234.17 58.6735 234.391 58.6891 234.619C58.6672 234.871 58.5909 235.116 58.4653 235.337C58.3398 235.557 58.1681 235.748 57.962 235.895C57.7558 236.043 57.5202 236.144 57.2712 236.192C57.0222 236.24 56.7657 236.234 56.5194 236.174C55.5195 235.893 54.6494 235.271 54.0604 234.416C53.0852 233.152 52.5271 231.616 52.4636 230.021C52.4001 228.426 52.8343 226.851 53.706 225.513C53.8896 225.29 54.1456 225.139 54.4293 225.086C54.5695 225.068 54.7121 225.08 54.8471 225.123C54.982 225.165 55.106 225.237 55.2104 225.332C55.5455 225.675 55.7546 226.121 55.8034 226.598C55.9076 227.385 55.866 228.184 55.6805 228.956C55.4174 230.07 54.8691 231.097 54.0894 231.935C53.877 232.156 53.6472 232.359 53.4023 232.543C53.2287 232.666 53.1347 232.724 53.1202 232.709C53.1058 232.695 53.4529 232.413 53.9592 231.82C54.6677 230.972 55.1636 229.968 55.4056 228.891C55.5592 228.155 55.5812 227.399 55.4707 226.656C55.4258 226.272 55.2554 225.913 54.9862 225.636C54.9194 225.578 54.8408 225.536 54.7559 225.512C54.671 225.488 54.5819 225.484 54.4949 225.498C54.4079 225.513 54.3251 225.546 54.2525 225.596C54.1799 225.646 54.1193 225.712 54.0749 225.788C53.541 226.611 53.1842 227.537 53.0274 228.505C52.8705 229.474 52.9169 230.465 53.1636 231.415C53.4021 232.407 53.8455 233.338 54.4654 234.149C54.9817 234.92 55.748 235.489 56.6351 235.761C56.821 235.808 57.0146 235.815 57.2033 235.782C57.392 235.748 57.5716 235.676 57.7305 235.569C57.8894 235.462 58.024 235.322 58.1256 235.16C58.2272 234.998 58.2935 234.816 58.3203 234.626C58.3097 234.451 58.2608 234.281 58.177 234.127C58.0933 233.973 57.9768 233.84 57.8357 233.736C57.5566 233.519 57.2472 233.343 56.9172 233.216C55.8914 232.808 54.8124 232.55 53.7133 232.449C52.9249 232.377 52.4838 232.391 52.4838 232.355Z" fill="#263238"/>
<path d="M68.1779 237.084C68.1008 237.115 68.0209 237.139 67.9393 237.156L67.2161 237.337L64.4822 237.959C62.1028 238.479 58.653 239.21 54.357 240.042C50.061 240.873 44.955 241.806 39.2125 242.587C36.2061 243.076 33.1543 243.227 30.1143 243.036C28.4936 242.933 26.8923 242.627 25.3482 242.125C24.5541 241.865 23.7884 241.526 23.0628 241.112C22.2994 240.699 21.618 240.15 21.0522 239.492L21.0884 239.528C20.7687 239.241 20.4912 238.91 20.2639 238.545C19.8269 237.784 19.5582 236.938 19.4758 236.065C19.3935 235.192 19.4994 234.311 19.7866 233.482C20.3526 231.878 21.4106 230.493 22.8097 229.526C24.1216 228.597 25.5712 227.879 27.1057 227.4C27.8289 227.183 28.5883 226.929 29.3332 226.756C30.0781 226.582 30.8158 226.409 31.5535 226.308C37.4623 225.375 42.8359 225.852 47.3055 225.852C49.5403 225.895 51.5653 225.852 53.3372 225.722C54.8514 225.619 56.3583 225.428 57.8502 225.15L59.4775 224.81L60.6491 224.478L61.3724 224.275C61.4538 224.246 61.5391 224.229 61.6255 224.225L61.3868 224.319L60.6636 224.565L59.5064 224.941L57.8791 225.324C56.3846 225.633 54.8727 225.85 53.3517 225.975C51.5726 226.105 49.5331 226.192 47.291 226.17C42.8215 226.206 37.4479 225.772 31.6186 226.72C30.8954 226.821 30.1722 227.024 29.4489 227.168C28.7257 227.313 28.0025 227.595 27.2792 227.805C25.7897 228.278 24.3821 228.978 23.1062 229.88C21.7751 230.794 20.7635 232.102 20.2133 233.619C19.9452 234.387 19.8452 235.204 19.9201 236.013C19.9949 236.823 20.2429 237.608 20.6472 238.313C20.8472 238.641 21.0905 238.94 21.3704 239.203C21.899 239.806 22.5309 240.311 23.2364 240.693C23.9397 241.088 24.6782 241.417 25.4422 241.676C26.9521 242.165 28.5164 242.466 30.0998 242.573C33.1102 242.766 36.1326 242.623 39.1113 242.146C44.8393 241.387 49.9598 240.483 54.2485 239.702C58.5373 238.921 62.0016 238.255 64.3738 237.756L67.122 237.214L67.8453 237.084C67.9552 237.063 68.068 237.063 68.1779 237.084Z" fill="#263238"/>
<path d="M33.7013 242.668C33.5666 241.872 33.4917 241.067 33.4771 240.259C33.3686 238.769 33.1878 236.723 32.8912 234.473C32.5947 232.224 32.2186 230.199 31.9293 228.738C31.7278 227.955 31.5899 227.157 31.5171 226.352C31.843 227.094 32.0855 227.87 32.2403 228.666C32.7137 230.56 33.0807 232.48 33.3396 234.416C33.5991 236.351 33.7512 238.3 33.7953 240.252C33.8508 241.058 33.8193 241.868 33.7013 242.668Z" fill="#263238"/>
<g opacity="0.4">
<path opacity="0.4" d="M58.501 224.514L64.4748 239.478L69.1108 238.617L60.2295 224.008L58.501 224.514Z" fill="black"/>
</g>
<path d="M119.129 189.597L133.16 158.288L125.024 131.427C122.559 123.281 123.135 114.518 126.644 106.765L140.342 80.2151L152.572 75.8757L181.269 72.0498C181.776 72.2161 183.222 72.3029 191.72 75.1308C198.864 77.5041 204.914 82.3689 208.767 88.836L185.58 156.465C185.58 156.465 201.31 190.877 199.321 206.65L119.129 189.597Z" fill="#8C8BC7"/>
<path d="M142.642 79.5068C142.642 79.5068 126.586 83.0651 120.728 104.972L113.496 128.296L126.666 129.106L142.642 79.5068Z" fill="#8C8BC7"/>
<path d="M125.508 129.865C125.449 129.762 125.4 129.653 125.363 129.539C125.284 129.322 125.146 129.004 125.016 128.577C124.658 127.373 124.43 126.134 124.336 124.882C124.13 120.719 124.981 116.571 126.81 112.826C127.331 111.765 127.905 110.732 128.531 109.73C129.11 108.754 129.667 107.806 130.158 106.888C131.049 105.272 131.79 103.577 132.371 101.825C132.863 100.328 133.218 99.0986 133.478 98.2524L133.782 97.276C133.818 97.1625 133.861 97.0514 133.912 96.9434C133.91 97.0643 133.888 97.1841 133.847 97.2977C133.782 97.5581 133.702 97.8835 133.608 98.2886C133.384 99.142 133.059 100.386 132.596 101.905C132.04 103.685 131.313 105.407 130.426 107.047C129.934 107.973 129.385 108.927 128.806 109.94C128.227 110.952 127.649 111.936 127.128 113.021C125.329 116.724 124.46 120.81 124.597 124.925C124.668 126.165 124.857 127.395 125.161 128.599C125.299 129.015 125.415 129.437 125.508 129.865Z" fill="#263238"/>
<path d="M85.6656 202.442C85.586 202.543 78.0572 197.054 68.8432 190.147C59.6292 183.24 52.2089 177.628 52.2957 177.527C52.3825 177.426 59.8968 182.915 69.118 189.822C78.3392 196.729 85.7379 202.341 85.6656 202.442Z" fill="#455A64"/>
<path d="M198.034 203.476L175.252 184.744C173.987 177.824 170.181 171.626 164.581 167.367C158.981 163.108 151.992 161.095 144.985 161.724C139.368 162.236 134.034 164.423 129.674 168.002L116.468 178.351C95.9353 172.753 64.7279 164.002 48.6938 159.496C45.4542 158.58 42.0567 158.364 38.7272 158.863C35.3976 159.362 32.2125 160.564 29.3836 162.389L29.0798 162.585C24.9782 165.239 21.7962 169.095 19.9684 173.625C18.1406 178.156 17.7562 183.14 18.8678 187.898C19.5801 190.959 20.8939 193.848 22.7327 196.397C24.5715 198.946 26.8986 201.104 29.5788 202.746C37.679 207.707 50.2271 215.366 61.0105 221.817L59.564 222.938L69.0962 238.618L88.7536 232.564C102.018 230.677 130.028 227.032 130.028 227.032L122.022 222.309L123.852 221.745C139.112 234.763 157.764 240.723 180.857 230.641C192.241 225.303 199.357 212.43 198.034 203.476Z" fill="#263238"/>
<path d="M159.001 201.385C159.001 201.385 158.943 201.45 158.813 201.558L158.242 202.028C157.706 202.455 156.962 203.055 156.007 203.808C155.522 204.198 154.98 204.625 154.387 205.088C153.794 205.551 153.099 205.992 152.383 206.534L150.055 208.125C149.635 208.407 149.223 208.704 148.775 208.993L147.386 209.832C145.484 210.968 143.423 212.269 141.094 213.448C139.937 214.049 138.758 214.714 137.478 215.329L133.601 217.166C128.271 219.596 122.29 222.04 115.882 224.217C103.081 228.629 91.2415 231.811 82.7652 234.379C80.6389 235.001 78.7224 235.586 77.0445 236.122C75.3666 236.657 73.9201 237.083 72.7485 237.488L70.0291 238.364L69.3059 238.588C69.3005 238.62 69.2831 238.649 69.2573 238.669C69.2316 238.689 69.1992 238.699 69.1667 238.696C69.1341 238.693 69.1038 238.678 69.0817 238.654C69.0596 238.63 69.0474 238.599 69.0474 238.566C69.0474 238.533 69.0596 238.502 69.0817 238.478C69.1038 238.454 69.1341 238.439 69.1667 238.436C69.1992 238.434 69.2316 238.443 69.2573 238.463C69.2831 238.483 69.3005 238.512 69.3059 238.544L70.0291 238.284L72.7196 237.322C73.884 236.895 75.3232 236.418 77.0011 235.876C78.679 235.333 80.5811 234.718 82.7002 234.075C91.162 231.421 102.987 228.195 115.766 223.79C122.16 221.621 128.126 219.191 133.457 216.782L137.333 214.967C138.577 214.36 139.756 213.709 140.949 213.116C143.278 211.958 145.339 210.671 147.249 209.557L148.644 208.733C149.086 208.458 149.505 208.161 149.924 207.887L152.268 206.324C152.991 205.825 153.714 205.406 154.293 204.943L155.935 203.699L158.213 201.985L158.813 201.551C158.869 201.488 158.932 201.433 159.001 201.385Z" fill="#455A64"/>
<path d="M160.701 208.719C160.48 208.879 160.236 209.003 159.978 209.088C159.515 209.297 158.828 209.579 157.967 209.898C155.727 210.724 153.431 211.389 151.096 211.887C148.76 212.388 146.392 212.727 144.009 212.899C143.097 212.957 142.352 212.986 141.839 212.986C141.57 213.012 141.299 212.995 141.036 212.935C142.008 212.767 142.988 212.648 143.972 212.581C145.781 212.378 148.312 212.024 150.995 211.445C153.678 210.867 156.123 210.158 157.858 209.594C158.788 209.248 159.737 208.956 160.701 208.719Z" fill="#455A64"/>
<path d="M126.868 170.633C126.947 170.735 111.94 182.523 93.3678 196.966C74.7952 211.409 59.658 223.003 59.5784 222.937C59.4989 222.872 74.5059 211.048 93.093 196.605C111.68 182.162 126.796 170.539 126.868 170.633Z" fill="#455A64"/>
<path d="M180.821 221.224C180.778 221.066 180.761 220.903 180.77 220.739C180.77 220.363 180.77 219.9 180.734 219.344C180.734 218.129 180.669 216.371 180.561 214.209C180.019 202.911 177.929 191.741 174.348 181.012C173.625 178.951 173.075 177.295 172.649 176.159C172.461 175.639 172.301 175.198 172.178 174.843C172.115 174.692 172.069 174.534 172.041 174.373C172.041 174.373 172.135 174.518 172.272 174.807L172.829 176.087C173.314 177.208 173.95 178.85 174.681 180.897C178.469 191.597 180.572 202.82 180.915 214.165C180.98 216.335 180.98 218.1 180.915 219.315C180.915 219.872 180.872 220.334 180.857 220.71C180.864 220.882 180.852 221.055 180.821 221.224Z" fill="#455A64"/>
<path d="M122.956 220.985C123.025 221.026 123.091 221.075 123.151 221.129L123.693 221.592C124.163 221.99 124.822 222.619 125.733 223.364C128.306 225.455 131.063 227.31 133.97 228.904C138.296 231.24 142.919 232.977 147.712 234.068C148.384 234.249 149.071 234.372 149.773 234.487C150.475 234.603 151.176 234.748 151.892 234.856C153.339 235.008 154.785 235.254 156.304 235.29C159.408 235.493 162.525 235.401 165.612 235.015L167.97 234.683L170.277 234.213C171.775 233.9 173.255 233.504 174.71 233.027C177.475 232.138 180.141 230.968 182.666 229.533C186.961 227.135 190.643 223.773 193.42 219.712C195.281 216.97 196.627 213.911 197.391 210.686C197.644 209.543 197.781 208.639 197.853 208.024L197.94 207.301C197.945 207.22 197.96 207.14 197.984 207.062C197.997 207.142 197.997 207.222 197.984 207.301C197.984 207.489 197.984 207.721 197.984 208.024C197.914 208.928 197.789 209.827 197.608 210.715C196.914 213.991 195.603 217.106 193.745 219.893C190.966 224.039 187.249 227.472 182.897 229.917C180.355 231.377 177.67 232.571 174.884 233.482C173.415 233.967 171.92 234.37 170.407 234.69L168.078 235.167L165.699 235.5C162.58 235.89 159.432 235.98 156.297 235.768C154.778 235.724 153.295 235.478 151.841 235.319C151.118 235.211 150.395 235.066 149.672 234.936C148.973 234.826 148.28 234.681 147.596 234.502C142.768 233.385 138.118 231.601 133.782 229.201C130.889 227.572 128.162 225.666 125.639 223.509C124.742 222.742 124.106 222.062 123.65 221.665L123.144 221.166C123.074 221.113 123.01 221.053 122.956 220.985Z" fill="#455A64"/>
<path d="M133.732 225.628C129.776 223.524 125.335 224.768 121.552 226.041C119.036 226.894 116.417 228.21 113.864 227.487C112.013 226.966 110.639 225.469 109.221 224.167C106.359 221.537 102.999 219.507 99.3402 218.195C95.681 216.883 91.7963 216.317 87.915 216.53C85.6979 216.632 83.6041 217.579 82.064 219.177C78.1803 223.379 81.1094 228.854 84.5809 232.39C90.7786 238.67 98.9529 242.619 107.724 243.572C114.957 244.295 124.901 243.326 132.235 240.187C136.755 238.249 139.076 232.918 136.704 228.615C136.023 227.353 134.99 226.316 133.732 225.628Z" fill="#455A64"/>
<g opacity="0.4">
<path opacity="0.4" d="M133.724 228.999C129.768 226.887 125.328 228.131 121.545 229.411C119.028 230.258 116.41 231.581 113.85 230.858C112.006 230.337 110.624 228.84 109.214 227.538C106.351 224.909 102.992 222.878 99.3326 221.567C95.6735 220.255 91.7891 219.689 87.9078 219.901C85.6908 220.003 83.597 220.95 82.0569 222.548C81.272 223.378 80.7098 224.393 80.4224 225.499C81.1671 228.127 82.6002 230.509 84.5737 232.398C90.7714 238.678 98.9457 242.627 107.717 243.579C114.949 244.303 124.894 243.334 132.227 240.195C133.526 239.643 134.675 238.792 135.581 237.711C136.488 236.63 137.125 235.35 137.442 233.975C137.295 233.279 137.052 232.607 136.719 231.979C136.029 230.717 134.989 229.683 133.724 228.999Z" fill="black"/>
</g>
<path d="M137.47 233.995C137.296 233.161 136.967 232.366 136.501 231.652C135.935 230.832 135.215 230.13 134.382 229.584C133.301 228.846 132.063 228.37 130.766 228.195C127.83 227.848 124.431 229.085 120.641 230.104C118.775 230.603 116.735 231.356 114.501 231.081C113.383 230.936 112.306 230.562 111.34 229.981C110.38 229.38 109.473 228.697 108.628 227.942C104.159 223.763 98.4988 221.081 92.4348 220.268C90.8472 220.038 89.2346 220.038 87.647 220.268C86.343 220.462 85.087 220.899 83.9441 221.556C83.0942 222.076 82.3305 222.725 81.6803 223.48C81.1595 224.154 80.6766 224.856 80.2339 225.584C80.5443 224.774 80.9839 224.019 81.5357 223.349C82.1746 222.547 82.942 221.855 83.8066 221.303C84.9672 220.58 86.2565 220.089 87.6036 219.856C89.2274 219.623 90.8761 219.623 92.4999 219.856C94.3628 220.083 96.199 220.493 97.982 221.078C99.9502 221.729 101.851 222.567 103.659 223.581C104.619 224.119 105.542 224.72 106.422 225.382C107.297 226.069 108.129 226.828 108.99 227.551C109.81 228.289 110.691 228.956 111.622 229.547C112.527 230.09 113.534 230.44 114.58 230.574C116.649 230.849 118.63 230.141 120.525 229.649C124.286 228.665 127.757 227.436 130.817 227.833C132.004 228.003 133.143 228.423 134.156 229.065C135.17 229.707 136.036 230.557 136.697 231.558C137.044 232.105 137.289 232.71 137.42 233.344C137.464 233.558 137.481 233.777 137.47 233.995Z" fill="#263238"/>
<path d="M137.47 233.995C137.296 233.161 136.967 232.366 136.501 231.652C135.935 230.832 135.215 230.13 134.382 229.584C133.301 228.846 132.063 228.37 130.766 228.195C127.83 227.848 124.431 229.085 120.641 230.104C118.775 230.603 116.735 231.356 114.501 231.081C113.383 230.936 112.306 230.562 111.34 229.981C110.38 229.38 109.473 228.697 108.628 227.942C104.159 223.763 98.4988 221.081 92.4348 220.268C90.8472 220.038 89.2346 220.038 87.647 220.268C86.343 220.462 85.087 220.899 83.9441 221.556C83.0942 222.076 82.3305 222.725 81.6803 223.48C81.1595 224.154 80.6766 224.856 80.2339 225.584C80.5443 224.774 80.9839 224.019 81.5357 223.349C82.1746 222.547 82.942 221.855 83.8066 221.303C84.9672 220.58 86.2565 220.089 87.6036 219.856C89.2274 219.623 90.8761 219.623 92.4999 219.856C94.3628 220.083 96.199 220.493 97.982 221.078C99.9502 221.729 101.851 222.567 103.659 223.581C104.619 224.119 105.542 224.72 106.422 225.382C107.297 226.069 108.129 226.828 108.99 227.551C109.81 228.289 110.691 228.956 111.622 229.547C112.527 230.09 113.534 230.44 114.58 230.574C116.649 230.849 118.63 230.141 120.525 229.649C124.286 228.665 127.757 227.436 130.817 227.833C132.004 228.003 133.143 228.423 134.156 229.065C135.17 229.707 136.036 230.557 136.697 231.558C137.044 232.105 137.289 232.71 137.42 233.344C137.464 233.558 137.481 233.777 137.47 233.995Z" fill="#263238"/>
<path d="M88.4282 233.049C89.0417 232.498 89.7221 232.027 90.4533 231.646C93.8518 229.598 97.4504 227.901 101.193 226.583C101.953 226.263 102.75 226.04 103.565 225.918C102.852 226.325 102.101 226.664 101.323 226.93C99.9276 227.516 98.011 228.334 95.9209 229.31C93.8307 230.286 91.9793 231.248 90.6413 231.957C89.9397 232.39 89.1987 232.756 88.4282 233.049Z" fill="#263238"/>
<path d="M89.788 237.019C89.7229 236.888 93.1872 235.088 97.5121 232.99C101.837 230.893 105.403 229.309 105.468 229.439C105.533 229.569 102.076 231.377 97.7436 233.475C93.4114 235.572 89.8531 237.134 89.788 237.019Z" fill="#263238"/>
<path d="M106.169 238.72C106.089 238.843 101.88 236.326 96.767 233.1C91.6538 229.875 87.5603 227.162 87.6398 227.039C87.7194 226.917 91.9286 229.426 97.0418 232.652C102.155 235.877 106.249 238.589 106.169 238.72Z" fill="#263238"/>
<path d="M108.541 234.611C107.811 234.221 107.121 233.761 106.48 233.237C105.236 232.34 103.529 231.103 101.613 229.78C99.6962 228.456 97.946 227.285 96.6731 226.439C95.956 226.022 95.2803 225.538 94.6553 224.992C95.4345 225.284 96.1772 225.665 96.8684 226.128C98.1991 226.894 99.9927 228.015 101.931 229.346C103.869 230.677 105.547 231.971 106.719 232.962C107.385 233.443 107.996 233.996 108.541 234.611Z" fill="#263238"/>
<path d="M138.765 72.0209C138.96 71.3768 139.011 70.6981 138.917 70.032C138.773 69.2529 138.464 68.5134 138.013 67.8623C137.374 67.0223 136.647 66.2536 135.843 65.5697C134.838 64.7001 133.968 63.6862 133.261 62.561C132.474 61.2308 131.964 59.7545 131.764 58.2216C131.542 56.5306 131.71 54.8111 132.256 53.1952C132.864 51.5133 133.617 49.8872 134.505 48.3351C135.368 46.8271 136.061 45.2288 136.574 43.569C137.032 42.0474 137.067 40.4297 136.675 38.8897C135.872 35.9389 134.115 33.6101 133.218 31.3681C132.377 29.6218 132.124 27.6507 132.495 25.7486C132.603 25.2379 132.796 24.749 133.066 24.3021C133.144 24.1348 133.257 23.9867 133.399 23.8682C133.142 24.496 132.939 25.1444 132.791 25.8064C132.558 27.6397 132.886 29.5005 133.731 31.1439C134.65 33.3136 136.465 35.5628 137.348 38.7016C137.794 40.3621 137.776 42.1131 137.297 43.7642C136.776 45.482 136.065 47.1364 135.178 48.6967C134.309 50.2086 133.569 51.7908 132.965 53.4266C132.44 54.9322 132.267 56.5377 132.458 58.1204C132.628 59.5556 133.083 60.9424 133.796 62.1994C134.452 63.2885 135.26 64.2775 136.198 65.1357C137.014 65.868 137.742 66.6933 138.367 67.5947C138.819 68.3004 139.106 69.0989 139.206 69.9308C139.271 70.4585 139.209 70.9939 139.025 71.4929C138.989 71.6897 138.899 71.8725 138.765 72.0209Z" fill="#263238"/>
<path d="M180.004 57.7089C180.552 58.9935 181.465 60.0891 182.63 60.8604C183.795 61.6316 185.16 62.0446 186.556 62.0483C187.948 62.0125 189.31 61.6406 190.526 60.9643C191.743 60.288 192.778 59.3274 193.543 58.1646C195.043 55.8026 195.581 52.9557 195.047 50.209C194.698 49.0013 194.527 47.7488 194.541 46.4916C194.751 44.7197 196.038 43.2588 196.479 41.5302C197.275 38.4276 194.997 35.1441 192.046 33.9002C189.095 32.6562 185.696 33.0395 182.6 33.9002" fill="#263238"/>
<path d="M134.968 21.7636C132.119 24.6565 133.203 28.3884 134.534 30.9342C135.865 33.4799 137.463 36.0619 137.492 38.9331C137.521 41.8043 135.908 44.5454 135.106 47.366C134.086 50.9674 134.386 54.8148 135.952 58.2144C137.123 60.7458 138.953 62.9299 140.139 65.4468C141.325 67.9636 141.767 71.153 140.139 73.4023C140.903 73.2389 141.617 72.8995 142.226 72.411C142.835 71.9226 143.322 71.2987 143.647 70.5889C144.282 69.1578 144.564 67.5954 144.471 66.0326C144.348 60.1165 141.513 54.3741 142.222 48.5014C142.634 45.0878 144.24 41.8043 144.016 38.3762C143.792 34.9481 141.767 31.9178 140.306 28.7862C138.845 25.6546 137.984 21.7636 139.93 18.9141" fill="#263238"/>
<path d="M141.969 10.5471C138.476 11.0027 135.019 12.8253 133.333 15.9135C131.648 19.0017 132.227 23.37 135.105 25.3878C137.825 27.2899 141.68 26.6679 144.471 24.8743C146.581 23.5835 148.18 21.6035 148.999 19.2693C149.391 18.1054 149.497 16.8643 149.308 15.6508C149.119 14.4373 148.641 13.2871 147.914 12.2973C147.158 11.3286 146.122 10.6165 144.947 10.258C143.772 9.89952 142.515 9.91207 141.347 10.294" fill="#263238"/>
<path d="M139.12 10.1923C140.66 5.94693 144.435 2.73579 148.688 1.22424C152.941 -0.287316 157.62 -0.265622 162.06 0.566094C166.501 1.39781 170.739 3.01061 174.97 4.60895C178.044 5.77335 181.19 6.98116 183.649 9.11469C186.071 11.3127 187.891 14.0936 188.936 17.1932C191.048 22.9284 191.105 27.1304 188.661 32.721C187.583 35.151 188.458 37.8776 187.497 40.3583C186.535 42.839 182.058 45.7897 183.446 48.0534" fill="#263238"/>
<path d="M181.27 72.0214L179.425 17.591C179.385 16.4154 178.905 15.2977 178.08 14.4593C177.255 13.6208 176.145 13.1227 174.97 13.0636L149.73 8.11671C141.709 7.70447 136.936 17.808 136.871 25.8431C136.791 34.7605 137.044 45.6596 138.454 52.2338C141.297 65.4617 151.61 66.6044 151.61 66.6044C151.61 66.6044 151.899 71.7683 152.174 76.4259L151.74 96.9222L181.27 72.0214Z" fill="#FFBE9D"/>
<path d="M140.306 35.4329C140.328 35.8787 140.522 36.2985 140.847 36.6045C141.172 36.9105 141.602 37.079 142.049 37.0747C142.268 37.0795 142.485 37.0406 142.689 36.9603C142.893 36.8801 143.079 36.76 143.235 36.6072C143.392 36.4544 143.517 36.2718 143.603 36.0702C143.688 35.8686 143.733 35.6519 143.734 35.4329C143.711 34.9879 143.517 34.5688 143.192 34.264C142.867 33.9591 142.436 33.7922 141.991 33.7984C141.772 33.7926 141.555 33.8306 141.351 33.9101C141.147 33.9895 140.961 34.1089 140.804 34.2611C140.647 34.4134 140.522 34.5955 140.437 34.7967C140.351 34.9979 140.307 35.2142 140.306 35.4329Z" fill="#263238"/>
<path d="M139.481 30.5082C139.705 30.7179 140.928 29.6909 142.794 29.5969C144.659 29.5029 146.034 30.3201 146.222 30.1104C146.316 30.0091 146.077 29.6186 145.462 29.2208C144.641 28.6996 143.678 28.4469 142.707 28.4976C141.749 28.5461 140.832 28.8983 140.089 29.5029C139.546 30.0019 139.38 30.4142 139.481 30.5082Z" fill="#263238"/>
<path d="M157.352 35.1726C157.371 35.6189 157.564 36.0401 157.89 36.3457C158.216 36.6513 158.648 36.8169 159.095 36.8071C159.314 36.8119 159.531 36.773 159.734 36.6926C159.938 36.6123 160.123 36.4921 160.279 36.3392C160.436 36.1863 160.56 36.0037 160.645 35.8021C160.729 35.6005 160.773 35.384 160.773 35.1653C160.754 34.719 160.561 34.2978 160.235 33.9922C159.909 33.6866 159.477 33.521 159.03 33.5309C158.811 33.525 158.593 33.5633 158.389 33.6432C158.186 33.7232 158 33.8434 157.843 33.9965C157.687 34.1496 157.563 34.3326 157.478 34.5347C157.394 34.7367 157.351 34.9536 157.352 35.1726Z" fill="#263238"/>
<path d="M157.649 30.7322C157.873 30.9491 159.095 29.9149 160.961 29.8209C162.827 29.7269 164.201 30.5441 164.382 30.3416C164.476 30.2331 164.245 29.8426 163.659 29.4448C162.834 28.9261 161.869 28.6737 160.896 28.7216C159.939 28.7696 159.022 29.1218 158.278 29.7269C157.707 30.2259 157.54 30.6381 157.649 30.7322Z" fill="#263238"/>
<path d="M151.675 44.7481C151.675 44.6469 150.525 44.5095 148.659 44.3721C148.182 44.3721 147.733 44.278 147.639 43.9598C147.571 43.4763 147.654 42.9836 147.878 42.5495C148.254 41.3923 148.652 40.1701 149.071 38.8972C150.727 33.6972 151.899 29.4301 151.689 29.365C151.479 29.2999 149.968 33.4657 148.312 38.6658L147.176 42.3398C146.907 42.9221 146.856 43.5815 147.032 44.1985C147.11 44.3597 147.223 44.5012 147.363 44.6127C147.503 44.7241 147.667 44.8025 147.842 44.8421C148.105 44.8969 148.375 44.9188 148.644 44.9072C150.546 44.9072 151.675 44.8566 151.675 44.7481Z" fill="#263238"/>
<path d="M151.61 66.6044C157.898 66.3595 163.994 64.3741 169.221 60.8691C169.221 60.8691 165.207 70.2711 151.791 69.7649L151.61 66.6044Z" fill="#EB996E"/>
<path d="M156.535 25.3874C156.744 25.8792 158.574 25.5465 160.744 25.6912C162.914 25.8358 164.7 26.3276 164.96 25.8647C165.076 25.6405 164.743 25.1849 164.013 24.7365C163.041 24.1934 161.958 23.8792 160.846 23.8178C159.735 23.7564 158.624 23.9494 157.598 24.3821C156.824 24.7437 156.448 25.156 156.535 25.3874Z" fill="#263238"/>
<path d="M139.922 26.009C140.269 26.4067 141.513 25.9005 143.039 25.7992C144.565 25.698 145.867 25.9294 146.142 25.4738C146.258 25.2568 146.034 24.8518 145.419 24.4829C144.635 24.0486 143.74 23.8573 142.848 23.9333C141.955 24.0093 141.106 24.3491 140.407 24.9097C139.922 25.3725 139.77 25.8354 139.922 26.009Z" fill="#263238"/>
<path d="M152.723 48.9792C153.027 48.5496 153.436 48.2045 153.911 47.9767C154.385 47.7489 154.91 47.6459 155.435 47.6774C155.816 47.6906 156.189 47.7807 156.533 47.9423C156.878 48.1039 157.186 48.3336 157.439 48.6176C157.685 48.8907 157.841 49.2328 157.886 49.5975C157.932 49.9623 157.864 50.3322 157.692 50.6571C157.433 50.9801 157.083 51.2181 156.687 51.3406C156.291 51.463 155.868 51.4643 155.472 51.3442C154.644 51.1016 153.873 50.6986 153.201 50.1581C153 50.0316 152.825 49.867 152.687 49.6736C152.624 49.5794 152.59 49.4687 152.59 49.3553C152.59 49.242 152.624 49.1312 152.687 49.0371" fill="#EB996E"/>
<path d="M156.889 45.7533C156.614 45.7533 156.708 47.6192 155.182 49.0295C153.656 50.4398 151.667 50.3386 151.667 50.5989C151.667 50.7146 152.13 50.9388 152.969 50.9171C154.061 50.8701 155.103 50.4429 155.913 49.7093C156.687 48.9992 157.156 48.0168 157.222 46.9683C157.251 46.1872 157.019 45.7388 156.889 45.7533Z" fill="#263238"/>
<path d="M138.895 13.7723C139.763 17.9526 146.475 18.2708 150.619 17.2221C152.121 18.9364 154.031 20.2451 156.172 21.0275C158.313 21.8098 160.617 22.0407 162.87 21.6989C163.471 21.5474 164.1 21.5474 164.7 21.6989C165.286 21.9955 165.784 22.4391 166.147 22.9862C168.055 25.2446 170.732 26.7158 173.661 27.1159C174.103 29.2065 175.159 31.1175 176.693 32.6044C178.228 34.0913 180.171 35.0863 182.275 35.462C182.275 35.462 183.605 34.7388 182.824 29.3435C182.043 23.9481 181.993 12.7091 181.993 12.7091L167.014 6.92329L149.368 4.65234C149.368 4.65234 137.42 6.68462 138.895 13.7723Z" fill="#263238"/>
<path d="M188.487 33.3356C188.285 32.058 187.908 30.8143 187.366 29.6399C186.708 28.3196 185.75 27.1725 184.567 26.2913C183.035 25.1486 181.196 24.4911 179.287 24.4037H179.056L178.984 24.1722C178.35 21.8577 177.025 19.7915 175.187 18.249C173.248 16.7157 170.196 16.0793 167.817 17.4317L167.419 17.6559L167.246 17.222L167.05 16.7447C166.262 14.9951 165.009 13.495 163.428 12.4074C161.847 11.3198 159.998 10.6862 158.082 10.5755C157.217 10.5506 156.351 10.621 155.5 10.7852C154.631 10.9806 153.73 10.9806 152.861 10.7852C152.066 10.5071 151.356 10.0288 150.799 9.39664C150.327 8.8768 149.798 8.41107 149.223 8.00804C148.326 7.44143 147.319 7.0745 146.268 6.93223C145.217 6.78996 144.148 6.87568 143.133 7.18356C142.381 7.44864 141.654 7.78274 140.963 8.18161C140.963 8.18161 141.101 8.01527 141.419 7.74767C141.908 7.39246 142.444 7.10536 143.01 6.89426C144.074 6.50562 145.211 6.36167 146.338 6.4731C147.465 6.58454 148.552 6.9485 149.519 7.53793C150.799 8.26116 151.617 9.76549 153.034 10.156C154.452 10.5466 156.195 9.69317 158.097 9.81612C160.165 9.91295 162.165 10.5832 163.874 11.7519C165.583 12.9205 166.933 14.5416 167.774 16.4337L167.991 16.9544L167.419 16.7447C170.182 15.1897 173.53 15.9636 175.65 17.6559C177.6 19.3014 178.99 21.5131 179.627 23.9842L179.324 23.7455C181.355 23.866 183.301 24.6055 184.9 25.8646C186.118 26.8231 187.083 28.0644 187.713 29.4808C188.121 30.3756 188.383 31.3305 188.487 32.3086C188.548 32.6482 188.548 32.996 188.487 33.3356Z" fill="#455A64"/>
<path d="M164.642 20.5276C164.316 20.7411 163.949 20.8862 163.565 20.9543C162.536 21.221 161.474 21.3403 160.411 21.3087C158.626 21.2641 156.87 20.8511 155.252 20.0957C153.634 19.3402 152.19 18.2586 151.009 16.9187L151.501 17.0127L151.074 17.2297C149.229 18.1236 147.156 18.4363 145.129 18.1265C143.488 17.8592 141.942 17.1771 140.638 16.1448C139.771 15.4584 139.036 14.6203 138.469 13.6714C138.228 13.3432 138.065 12.965 137.991 12.5648C138.114 12.478 138.816 14.1125 140.978 15.6964C142.376 16.7042 144.021 17.3133 145.739 17.4585C147.456 17.6037 149.18 17.2796 150.727 16.5209L151.118 16.3184L151.407 16.1738L151.61 16.4052C153.863 18.9427 157.019 20.4998 160.404 20.7446C163.037 20.9471 164.606 20.3757 164.642 20.5276Z" fill="#455A64"/>
<path d="M156.687 13.0629C156.687 13.2944 154.734 13.2365 152.492 13.9019C150.25 14.5673 148.637 15.6159 148.5 15.4279C148.363 15.2399 149.852 13.8296 152.275 13.1425C154.698 12.4554 156.738 12.8604 156.687 13.0629Z" fill="#455A64"/>
<path d="M151.61 12.912C151.444 13.0639 150.735 12.5359 149.838 11.9646C148.941 11.3932 148.175 10.9593 148.24 10.7423C148.305 10.5253 149.274 10.6627 150.265 11.2992C151.256 11.9356 151.769 12.7746 151.61 12.912Z" fill="#455A64"/>
<path d="M172.779 19.5006C172.706 19.7176 170.985 19.2692 168.866 19.4572C166.747 19.6453 165.12 20.3468 165.018 20.1443C164.917 19.9418 166.465 18.8569 168.801 18.6978C171.137 18.5387 172.865 19.327 172.779 19.5006Z" fill="#455A64"/>
<path d="M176.872 26.4287C176.872 26.6312 174.37 26.8843 171.419 26.0165C168.468 25.1486 166.458 23.6153 166.581 23.4562C166.703 23.2971 168.808 24.4543 171.643 25.2571C174.478 26.0598 176.879 26.1973 176.872 26.4287Z" fill="#455A64"/>
<path d="M186.274 31.0214C186.101 31.1877 184.792 29.8715 182.658 29.2784C180.525 28.6854 178.745 29.0325 178.695 28.8083C178.644 28.5841 180.525 27.8103 182.882 28.519C185.24 29.2278 186.455 30.8984 186.274 31.0214Z" fill="#455A64"/>
<path d="M184.943 11.8769C184.878 11.8769 184.705 11.4429 184.22 10.7559C183.456 9.82893 182.492 9.08715 181.4 8.58617C178.651 7.25542 174.319 6.41648 169.611 6.62622C165.565 6.87775 161.568 7.64081 157.714 8.89716C154.727 9.8229 152.912 10.5027 152.868 10.3942C153.231 10.113 153.64 9.89532 154.076 9.75057C154.879 9.38896 156.05 8.89716 157.533 8.36197C161.4 6.93036 165.458 6.07977 169.575 5.8379C174.413 5.62816 178.832 6.56113 181.66 8.09438C182.797 8.67974 183.765 9.54613 184.473 10.6112C184.736 10.9858 184.898 11.4217 184.943 11.8769Z" fill="#455A64"/>
<path d="M186.39 19.0442C186.245 19.1093 185.833 17.4314 184.126 15.4281C181.835 12.8397 178.781 11.0465 175.404 10.3076C171.997 9.64227 168.501 9.57131 165.069 10.0979C162.415 10.445 160.773 10.7633 160.73 10.6403C160.686 10.5174 162.306 10.04 164.968 9.54822C168.465 8.84591 172.066 8.84591 175.563 9.54822C179.106 10.3065 182.278 12.2631 184.546 15.0882C185.212 15.9457 185.739 16.9024 186.108 17.9232C186.276 18.2741 186.372 18.6554 186.39 19.0442Z" fill="#455A64"/>
<path d="M136.769 27.4342C136.769 27.5066 135.532 27.1739 134.201 25.7346C133.314 24.8008 132.667 23.6656 132.316 22.4264C131.964 21.1873 131.919 19.8813 132.183 18.6208C132.448 17.3602 133.015 16.1827 133.835 15.1896C134.655 14.1964 135.704 13.4172 136.892 12.919C138.693 12.1307 139.944 12.3187 139.929 12.391C139.915 12.4634 138.751 12.5574 137.131 13.418C136.072 13.9357 135.146 14.6882 134.423 15.6181C133.7 16.548 133.198 17.6307 132.957 18.7838C132.716 19.9369 132.741 21.1298 133.03 22.2717C133.32 23.4137 133.866 24.4744 134.628 25.373C135.764 26.805 136.849 27.2824 136.769 27.4342Z" fill="#455A64"/>
<path d="M192.386 45.3129C192.306 45.1899 193.658 44.4812 195.568 43.0492C196.673 42.2243 197.59 41.1741 198.258 39.9682C198.653 39.2557 198.88 38.462 198.92 37.6483C198.96 36.8345 198.813 36.0224 198.49 35.2744C197.831 33.752 196.596 32.553 195.054 31.9403C193.769 31.4795 192.38 31.3918 191.048 31.6872C188.733 32.2079 187.605 33.3217 187.526 33.1915C187.446 33.0614 187.728 32.8588 188.249 32.4683C189.038 31.8735 189.934 31.4364 190.889 31.181C192.33 30.7734 193.861 30.8138 195.279 31.2967C196.147 31.6163 196.941 32.1095 197.612 32.7462C198.284 33.3828 198.819 34.1495 199.184 34.9996C199.554 35.854 199.718 36.7831 199.664 37.7125C199.61 38.6419 199.339 39.5457 198.873 40.3515C198.126 41.6255 197.1 42.7135 195.872 43.5337C195.07 44.0823 194.226 44.5659 193.348 44.9802C192.762 45.2261 192.407 45.3635 192.386 45.3129Z" fill="#263238"/>
<path d="M193.008 45.3633C193.271 45.7125 193.478 46.1004 193.622 46.5132C194.107 47.5956 194.525 48.7067 194.873 49.8401C195.417 51.5353 195.7 53.3033 195.712 55.0835C195.748 57.3129 195.122 59.5028 193.912 61.3756C193.285 62.3119 192.469 63.1073 191.518 63.7112C190.567 64.3151 189.5 64.7143 188.386 64.8833C187.466 65.0176 186.528 64.9315 185.648 64.6323C184.767 64.333 183.971 63.8291 183.324 63.162C182.441 62.2912 181.889 61.1407 181.761 59.9075C181.693 59.4641 181.751 59.0106 181.928 58.5984C182 58.5984 181.928 59.0757 182.065 59.8713C182.362 61.2402 183.168 62.4451 184.321 63.2415C185.473 64.0379 186.885 64.3663 188.27 64.1601C189.274 63.984 190.232 63.6077 191.086 63.0535C191.941 62.4993 192.676 61.7787 193.246 60.9344C194.369 59.1868 194.966 57.1535 194.968 55.0763C194.983 53.3674 194.767 51.6642 194.324 50.0137C193.572 47.1641 192.899 45.4356 193.008 45.3633Z" fill="#263238"/>
<path d="M172.345 20.4258C170.681 23.7382 171.954 27.7521 173.661 31.05C175.368 34.348 177.545 37.6097 177.682 41.3127C177.928 47.5252 172.374 53.0146 173.14 59.1765C173.403 61.0141 174.21 62.7308 175.458 64.105C176.706 65.4793 178.337 66.448 180.141 66.8861C177.205 64.9045 176.937 60.5868 178.058 57.231C179.179 53.8752 184.611 45.0301 185.399 41.573C188.046 30.0014 186.918 28.6345 182.868 24.5627" fill="#263238"/>
<path d="M183.497 28.6855C183.497 28.7796 182.68 28.9748 181.327 28.7796C179.571 28.5098 177.935 27.7222 176.629 26.5176C175.322 25.313 174.405 23.7461 173.994 22.0173C173.697 20.6938 173.82 19.8477 173.914 19.8477C174.008 19.8477 174.131 20.6432 174.551 21.8365C175.073 23.3908 175.978 24.7885 177.182 25.9008C178.387 27.0131 179.852 27.8042 181.443 28.201C182.709 28.5409 183.497 28.5626 183.497 28.6855Z" fill="#455A64"/>
<path d="M178.694 63.1981C178.694 63.1981 178.535 63.1258 178.282 62.9305C177.917 62.634 177.589 62.294 177.306 61.918C176.257 60.5066 175.705 58.7873 175.736 57.029C175.745 55.8009 176.055 54.5937 176.64 53.5141C177.359 52.3436 178.227 51.2715 179.222 50.3246C180.261 49.3238 181.109 48.1426 181.725 46.8386C182.34 45.4295 182.625 43.8981 182.556 42.3619C182.486 40.8343 182.05 39.346 181.284 38.0225C180.526 36.772 179.66 35.5909 178.694 34.4931C176.99 32.6022 175.574 30.4698 174.492 28.1648C173.771 26.5955 173.346 24.9059 173.241 23.1818C173.173 22.5546 173.217 21.9203 173.371 21.3086C173.545 21.3086 173.14 24.0713 175.013 27.9189C176.141 30.1384 177.573 32.1903 179.266 34.0158C180.281 35.134 181.188 36.3446 181.978 37.6319C182.816 39.0704 183.293 40.6911 183.366 42.3546C183.441 44.0162 183.129 45.6725 182.455 47.193C181.791 48.5759 180.876 49.8239 179.758 50.8743C178.794 51.767 177.944 52.7751 177.226 53.8757C176.672 54.8538 176.357 55.9493 176.308 57.0724C176.23 58.7296 176.67 60.3699 177.566 61.7661C178.217 62.7208 178.745 63.1403 178.694 63.1981Z" fill="#455A64"/>
<path d="M184.878 28.2517C184.878 28.2155 185.233 28.447 185.725 28.9749C186.413 29.7304 186.975 30.5926 187.388 31.5279C188.7 34.671 188.849 38.1789 187.807 41.4217C186.734 44.595 185.021 47.5144 182.774 49.9993C181.11 51.9158 179.939 52.9573 179.881 52.8922C179.823 52.8271 180.814 51.6265 182.347 49.6377C184.388 47.1113 185.972 44.2476 187.026 41.1758C187.997 38.1066 187.933 34.8036 186.846 31.7738C185.963 29.4523 184.755 28.353 184.878 28.2517Z" fill="#455A64"/>
<path d="M129.407 127.378L121.936 113.636C121.692 113.186 121.332 112.811 120.893 112.548C120.454 112.286 119.952 112.147 119.44 112.146H66.2685C65.7523 112.146 65.2461 112.288 64.8049 112.556C64.3636 112.824 64.0043 113.207 63.7661 113.665L116.468 149.104L139.792 151.787C140.038 151.317 140.17 150.796 140.177 150.266C140.185 149.736 140.068 149.211 139.836 148.735L129.407 127.378Z" fill="#263238"/>
<g opacity="0.3">
<path opacity="0.3" d="M185.667 158.91C176.33 154.838 165.59 154.245 156.81 149.074C153.454 147.099 150.481 144.503 147.046 142.666C143.611 140.829 139.445 139.773 135.822 141.219C132.198 142.666 129.45 148.09 131.33 151.504C132.053 153.326 135.489 155.026 137.434 154.86C139.38 154.693 141.224 153.89 143.17 153.645C147.335 153.117 151.335 155.171 155.088 157.051C163.187 161.092 171.552 164.575 180.127 167.473C182.123 168.145 184.227 168.796 186.318 168.485C188.408 168.174 190.462 166.598 190.606 164.486C190.729 161.846 188.068 159.973 185.667 158.91Z" fill="black"/>
</g>
<path d="M139.792 151.729L121.147 115.213C120.904 114.734 120.532 114.332 120.074 114.052C119.615 113.772 119.088 113.626 118.55 113.629H63.5054L84.0162 150.564L139.792 151.729Z" fill="#455A64"/>
<path d="M96.6444 126.763C96.9198 126.984 97.2548 127.119 97.6068 127.15C97.9589 127.181 98.3123 127.107 98.6222 126.937C98.9321 126.767 99.1846 126.509 99.3479 126.196C99.5111 125.882 99.5777 125.527 99.5392 125.176C99.5008 124.825 99.359 124.493 99.1317 124.222C98.9045 123.951 98.6021 123.754 98.2628 123.655C97.9235 123.556 97.5625 123.56 97.2255 123.667C96.8884 123.773 96.5906 123.977 96.3696 124.253C96.2221 124.436 96.1121 124.646 96.0461 124.871C95.98 125.096 95.9591 125.332 95.9847 125.565C96.0102 125.798 96.0817 126.024 96.1949 126.23C96.3081 126.435 96.4609 126.616 96.6444 126.763Z" fill="#EBEBEB"/>
<path d="M145.079 132.679L139.539 128.398C138.416 127.005 136.995 125.881 135.38 125.109C133.766 124.336 131.999 123.936 130.209 123.936H127.194L125.132 126.25C125.132 126.25 110.364 126.894 109.822 128.716V129.302V129.649L122.456 130.495C122.456 130.495 111.709 130.495 111.066 130.495C110.422 130.495 108.064 130.314 108.108 131.58C108.151 132.614 109.373 133.432 111.232 133.699C111.999 133.815 121.306 134.625 121.306 134.625L111.058 134.531C109.908 134.531 110.06 136.361 110.74 136.592C111.275 136.78 124.402 140.606 124.402 140.606C124.402 140.606 122.232 142.089 120.395 141.958C118.558 141.828 115.506 139.514 114.862 140.606C114.219 141.698 114.349 142.342 114.732 142.602C116.676 143.692 118.696 144.637 120.779 145.43C122.225 145.82 133.753 147.65 133.753 147.65L143.336 146.421L145.079 132.679Z" fill="#FFBE9D"/>
<path d="M120.105 126.429C121.829 126.261 123.56 126.198 125.291 126.241C127.021 126.181 128.752 126.224 130.477 126.372C128.754 126.545 127.022 126.61 125.291 126.567C123.561 126.628 121.83 126.582 120.105 126.429Z" fill="#EB996E"/>
<path d="M145.079 132.679L185.746 140.418L189.825 89.2925C189.825 89.2925 200.789 80.0713 206.59 86.3634C208.728 88.7034 210.354 91.4647 211.363 94.47C212.372 97.4754 212.741 100.658 212.448 103.815C212.072 107.525 208.383 151.215 205.317 158.607C201.028 168.942 190.049 168.392 186.983 167.64C183.916 166.888 140.183 146.203 140.183 146.203L145.079 132.679Z" fill="#FFBE9D"/>
<path d="M188.321 89.0241C186.874 100.596 184.076 118.235 183.917 129.865C183.917 130.342 211.884 132.678 211.884 132.678C211.884 132.678 213.33 106.338 212.289 98.3321C211.096 89.2411 204.29 82.9707 204.29 82.9707H195.517L188.321 89.0241Z" fill="#8C8BC7"/>
<path d="M211.884 132.679C211.696 132.688 211.508 132.688 211.32 132.679L209.692 132.548L203.719 132.013L183.902 130.075H183.721V129.887C183.721 129.533 183.772 129.164 183.801 128.759C184.365 120.716 184.878 113.441 185.247 108.125C185.45 105.514 185.616 103.395 185.732 101.876C185.797 101.153 185.84 100.603 185.884 100.184C185.896 99.9849 185.92 99.7868 185.956 99.5908C185.975 99.788 185.975 99.9866 185.956 100.184C185.956 100.611 185.913 101.175 185.876 101.891C185.79 103.402 185.667 105.507 185.515 108.147C185.168 113.462 184.698 120.738 184.177 128.78C184.177 129.171 184.126 129.554 184.097 129.916L183.931 129.713L203.747 131.731L209.707 132.389L211.327 132.585C211.515 132.599 211.701 132.631 211.884 132.679Z" fill="#263238"/>
<path d="M222.332 171.521C226.446 169.391 231.296 169.119 235.867 169.875C238.322 170.28 240.883 171.017 242.549 172.861C244.214 174.706 244.539 177.95 242.622 179.536C241.48 180.478 239.888 180.617 238.402 180.604C234.826 180.558 230.858 179.941 227.998 182.084C226.366 183.311 225.284 185.355 223.354 185.958C221.423 186.562 219.293 185.421 218.278 183.703C217.351 181.907 217.147 179.825 217.707 177.884C217.937 176.539 218.474 175.265 219.276 174.162C220.078 173.058 221.124 172.154 222.332 171.521Z" fill="#90CF7A"/>
<path d="M212.897 153.309C215.418 156.905 220.308 155.717 222.577 153.521C224.847 151.325 225.802 148.147 226.678 145.115C228.668 138.181 230.659 130.916 229.199 123.883C228.84 121.744 227.902 119.745 226.485 118.104C224.999 116.538 222.723 115.609 220.64 116.16C218.172 116.823 216.659 119.225 215.531 121.527C212.268 128.304 210.555 135.722 210.515 143.243C210.515 146.747 210.913 150.422 212.89 153.309" fill="#90CF7A"/>
<path d="M205.983 158.47C208.717 155.226 209.241 150.508 208.02 146.434C206.8 142.36 204.039 138.91 200.895 136.09C197.166 132.774 192.828 130.214 188.122 128.553C186.302 127.817 184.344 127.485 182.383 127.578C181.402 127.634 180.449 127.93 179.609 128.438C178.768 128.947 178.064 129.654 177.559 130.497C176.232 133.058 177.506 136.163 178.886 138.705C181.349 143.174 184.16 147.442 187.293 151.47C189.808 154.715 192.687 157.913 196.515 159.372C200.344 160.832 204.325 160.666 206.355 158.012" fill="#90CF7A"/>
<path d="M212.731 207.542C212.862 207.007 212.937 206.46 212.957 205.91C213.069 204.722 213.215 203.256 213.388 201.451C213.613 199.257 213.95 197.076 214.396 194.916C214.978 192.281 215.772 189.698 216.772 187.193C217.749 184.698 219.076 182.354 220.713 180.233C222.044 178.497 223.747 177.08 225.696 176.086C227.015 175.426 228.43 174.978 229.889 174.759C230.437 174.738 230.982 174.66 231.515 174.527C230.965 174.468 230.412 174.468 229.862 174.527C228.346 174.642 226.863 175.028 225.483 175.668C223.433 176.638 221.635 178.068 220.228 179.848C218.521 182.005 217.144 184.405 216.141 186.967C215.131 189.51 214.343 192.137 213.786 194.816C213.36 197.008 213.069 199.224 212.917 201.451C212.771 203.342 212.718 204.875 212.691 205.936C212.647 206.471 212.661 207.01 212.731 207.542Z" fill="#263238"/>
<path d="M213.036 204.12C213.081 203.87 213.096 203.616 213.083 203.363C213.083 202.793 213.083 202.076 213.083 201.194C213.083 199.316 213.083 196.596 213.176 193.232C213.341 186.511 213.925 179.298 215.04 169.067C216.102 159.48 217.521 148.313 219.021 141.055C219.339 139.402 219.684 137.916 219.97 136.616C220.255 135.315 220.507 134.187 220.753 133.298L221.257 131.195C221.327 130.95 221.372 130.699 221.39 130.445C221.275 130.664 221.188 130.896 221.131 131.135C220.965 131.679 220.759 132.369 220.467 133.212C220.175 134.055 219.903 135.203 219.578 136.53C219.253 137.857 218.915 139.31 218.53 140.955C216.676 149.544 215.285 158.226 214.363 166.964C213.242 177.188 212.738 186.497 212.691 193.238C212.651 196.602 212.691 199.336 212.811 201.2C212.864 202.083 212.91 202.799 212.943 203.37C212.943 203.623 212.974 203.875 213.036 204.12Z" fill="#263238"/>
<path d="M213.083 186.164C213.144 185.409 213.144 184.65 213.083 183.895C212.966 181.841 212.744 179.795 212.42 177.764C211.925 174.748 211.26 171.762 210.429 168.82C209.455 165.205 208.206 161.669 206.694 158.244C203.589 150.893 199.395 144.881 195.713 141.153C194.907 140.298 194.044 139.498 193.132 138.757C192.734 138.419 192.389 138.094 192.03 137.822L191.029 137.158C190.427 136.702 189.79 136.294 189.124 135.938C189.012 136.083 191.825 137.736 195.368 141.511C199.879 146.537 203.499 152.297 206.07 158.543C207.556 161.947 208.813 165.447 209.832 169.019C210.689 171.932 211.397 174.886 211.955 177.87C212.42 180.418 212.692 182.515 212.858 183.948C212.875 184.691 212.95 185.432 213.083 186.164Z" fill="#263238"/>
<path d="M195.726 217.834L201.08 245.137H226.353L230.991 217.834H195.726Z" fill="#FF725E"/>
<path d="M234.759 208.119H192.667V217.833H234.759V208.119Z" fill="#FF725E"/>
<path d="M229.697 225.889C229.659 225.971 229.61 226.046 229.551 226.114L229.1 226.738L227.328 229.1L227.249 229.206L227.176 229.093L222.823 222.83H223.075L218.789 229.147L218.656 229.346L218.504 229.16L213.428 222.863H213.72L213.441 223.228C211.862 225.285 210.343 227.282 208.896 229.16L208.75 229.359L208.605 229.153L204.325 222.837H204.57L199.263 229.1L199.17 229.213L199.097 229.087L197.445 226.194L197.02 225.424C196.968 225.338 196.923 225.247 196.887 225.152C196.887 225.152 196.96 225.225 197.066 225.391L197.537 226.134L199.269 228.974H199.103L204.298 222.638L204.431 222.472L204.551 222.644L208.87 228.934H208.578L213.11 222.963C213.209 222.843 213.302 222.717 213.388 222.598L213.534 222.412L213.687 222.598C215.458 224.807 217.17 226.944 218.749 228.901H218.464L222.79 222.618L222.916 222.432L223.042 222.618L227.302 228.954H227.143L228.987 226.652L229.478 226.061C229.624 225.949 229.69 225.882 229.697 225.889Z" fill="white"/>
<path d="M231.428 217.668C231.428 217.781 223.466 217.867 213.713 217.867C203.96 217.867 195.991 217.781 195.991 217.668C195.991 217.555 203.953 217.469 213.713 217.469C223.473 217.469 231.428 217.562 231.428 217.668Z" fill="#263238"/>
</svg>
